<svg viewBox="0 0 24 24" xmlns="http://www.w3.org/2000/svg" id="Accounting-Coins--Streamline-Ultimate" height="24" width="24">
  <desc>
    Accounting Coins Streamline Icon: https://streamlinehq.com
  </desc>
  <path d="M8.504 8a7.5 7.5 0 1 0 15 0 7.5 7.5 0 1 0 -15 0" fill="none" stroke="currentColor" stroke-linecap="round" stroke-linejoin="round" stroke-width="1"></path>
  <path d="M8.53 8.526a7.5 7.5 0 1 0 6.948 6.948" fill="none" stroke="currentColor" stroke-linecap="round" stroke-linejoin="round" stroke-width="1"></path>
  <path d="m7.504 13.5 0 -1" fill="none" stroke="currentColor" stroke-linecap="round" stroke-linejoin="round" stroke-width="1"></path>
  <path d="M9 13.5H6.971a1.342 1.342 0 0 0 -0.5 2.587l2.064 0.826a1.342 1.342 0 0 1 -0.5 2.587H6" fill="none" stroke="currentColor" stroke-linecap="round" stroke-linejoin="round" stroke-width="1"></path>
  <path d="m7.504 20.5 0 -1" fill="none" stroke="currentColor" stroke-linecap="round" stroke-linejoin="round" stroke-width="1"></path>
  <path d="m16.004 5 0 -1" fill="none" stroke="currentColor" stroke-linecap="round" stroke-linejoin="round" stroke-width="1"></path>
  <path d="M17.5 5h-2.029a1.342 1.342 0 0 0 -0.5 2.587l2.064 0.826a1.342 1.342 0 0 1 -0.5 2.587H14.5" fill="none" stroke="currentColor" stroke-linecap="round" stroke-linejoin="round" stroke-width="1"></path>
  <path d="m16.004 12 0 -1" fill="none" stroke="currentColor" stroke-linecap="round" stroke-linejoin="round" stroke-width="1"></path>
</svg>