<svg id="Add-Filled--Streamline-Carbon" xmlns="http://www.w3.org/2000/svg" viewBox="0 0 16 16" height="16" width="16">
  <desc>
    Add Filled Streamline Icon: https://streamlinehq.com
  </desc>
  <defs></defs>
  <title>add--filled</title>
  <path d="M8 1A7.08625 7.08625 0 0 0 1 8a7.08625 7.08625 0 0 0 7 7 7.08625 7.08625 0 0 0 7 -7A7.08625 7.08625 0 0 0 8 1Zm4 7.5h-3.5v3.5h-1v-3.5H4v-1h3.5V4h1v3.5h3.5Z" fill="currentColor" stroke-width="0.5"></path>
  <path id="inner-path" d="m12 8.5 -3.5 0 0 3.5 -1 0 0 -3.5 -3.5 0 0 -1 3.5 0 0 -3.5 1 0 0 3.5 3.5 0 0 1z" fill-opacity="0" fill="currentColor" stroke-width="0.5"></path>
  <path id="_Transparent_Rectangle_" d="M0 0h16v16H0Z" fill="none" stroke-width="0.5"></path>
</svg>