<svg id="Box--Streamline-Carbon" xmlns="http://www.w3.org/2000/svg" viewBox="0 0 16 16" height="16" width="16">
  <desc>
    Box Streamline Icon: https://streamlinehq.com
  </desc>
  <defs></defs>
  <title>box</title>
  <path d="M10 10.5h-4a1 1 0 0 1 -1 -1v-1a1 1 0 0 1 1 -1h4a1 1 0 0 1 1 1v1a1 1 0 0 1 -1 1Zm-4 -2v1h4v-1Z" fill="currentColor" stroke-width="0.5"></path>
  <path d="M14 2H2a1 1 0 0 0 -1 1v2a1 1 0 0 0 1 1v8a1 1 0 0 0 1 1h10a1 1 0 0 0 1 -1V6a1 1 0 0 0 1 -1V3a1 1 0 0 0 -1 -1Zm-1 12H3V6h10Zm1 -9H2V3h12v2Z" fill="currentColor" stroke-width="0.5"></path>
  <path id="_Transparent_Rectangle_" d="M0 0h16v16H0Z" fill="none" stroke-width="0.5"></path>
</svg>