<svg id="Cake-Slice--Streamline-Atlas" xmlns="http://www.w3.org/2000/svg" viewBox="-0.5 -0.5 16 16" height="16" width="16">
  <desc>
    Cake Slice Streamline Icon: https://streamlinehq.com
  </desc>
  <defs></defs>
  <path d="M3.325 11.675H14.0625v2.3874999999999997H3.325Z" fill="none" stroke="currentColor" stroke-miterlimit="10" stroke-width="1"></path>
  <path d="M3.325 9.2875H14.0625v2.3874999999999997H3.325Z" fill="none" stroke="currentColor" stroke-miterlimit="10" stroke-width="1"></path>
  <path d="M3.9187499999999997 6.875H14.0625v2.3874999999999997H3.325V7.5a0.625 0.625 0 0 1 0.59375 -0.625Z" fill="none" stroke="currentColor" stroke-miterlimit="10" stroke-width="1"></path>
  <path d="M3.325 4.518750000000001a2.3874999999999997 2.3874999999999997 0 0 0 -2.3874999999999997 2.3874999999999997V14.0625h2.3874999999999997V7.5a0.625 0.625 0 0 1 0.59375 -0.59375H14.0625V4.518750000000001Z" fill="none" stroke="currentColor" stroke-miterlimit="10" stroke-width="1"></path>
  <path d="M6.90625 3.0875000000000004a1.4625 1.4625 0 0 1 -1.4937500000000001 1.43125 1.4625 1.4625 0 0 1 -1.4937500000000001 -1.43125c0 -0.79375 0.6687500000000001 -2.15 1.4937500000000001 -2.15s1.4937500000000001 1.35625 1.4937500000000001 2.15Z" fill="none" stroke="currentColor" stroke-miterlimit="10" stroke-width="1"></path>
  <path d="M9.8875 3.0875000000000004a1.4937500000000001 1.4937500000000001 0 0 1 -2.9812499999999997 0c0 -0.79375 0.6625000000000001 -2.15 1.4874999999999998 -2.15s1.4937500000000001 1.35625 1.4937500000000001 2.15Z" fill="none" stroke="currentColor" stroke-miterlimit="10" stroke-width="1"></path>
  <path d="M12.86875 3.0875000000000004a1.4937500000000001 1.4937500000000001 0 0 1 -2.9812499999999997 0c0 -0.79375 0.6687500000000001 -2.15 1.4874999999999998 -2.15s1.4937500000000001 1.35625 1.4937500000000001 2.15Z" fill="none" stroke="currentColor" stroke-miterlimit="10" stroke-width="1"></path>
</svg>