<svg id="Chat--Streamline-Carbon" xmlns="http://www.w3.org/2000/svg" viewBox="0 0 16 16" height="16" width="16">
  <desc>
    Chat Streamline Icon: https://streamlinehq.com
  </desc>
  <defs></defs>
  <title>chat</title>
  <path d="M8.87 15 8 14.5l2 -3.5h3a1 1 0 0 0 1 -1V4a1 1 0 0 0 -1 -1H3a1 1 0 0 0 -1 1v6a1 1 0 0 0 1 1h4.5v1H3a2 2 0 0 1 -2 -2V4a2 2 0 0 1 2 -2h10a2 2 0 0 1 2 2v6a2 2 0 0 1 -2 2h-2.42Z" fill="currentColor" stroke-width="0.5"></path>
  <path d="M4 5h8v1H4Z" fill="currentColor" stroke-width="0.5"></path>
  <path d="M4 8h5v1H4Z" fill="currentColor" stroke-width="0.5"></path>
  <path id="_Transparent_Rectangle_" d="M0 0h16v16H0Z" fill="none" stroke-width="0.5"></path>
</svg>