<svg version="1.1" id="Close-Filled--Streamline-Carbon" xmlns="http://www.w3.org/2000/svg" xmlns:xlink="http://www.w3.org/1999/xlink" x="0" y="0" viewBox="0 0 16 16" xml:space="preserve" enable-background="new 0 0 32 32" height="16" width="16">
  <desc>
    Close Filled Streamline Icon: https://streamlinehq.com
  </desc>
  <path d="M8 1C4.1 1 1 4.1 1 8s3.1 7 7 7 7 -3.1 7 -7S11.9 1 8 1zm2.7 10.5L8 8.8 5.3 11.5 4.5 10.7l2.7 -2.7L4.5 5.3 5.3 4.5l2.7 2.7L10.7 4.5l0.8 0.8 -2.7 2.7 2.7 2.7 -0.8 0.8z" fill="currentColor" stroke-width="0.5"></path>
  <path id="inner-path" d="M7.2 8 4.5 5.3 5.3 4.5l2.7 2.7L10.7 4.5l0.8 0.8 -2.7 2.7 2.7 2.7 -0.8 0.8 -2.7 -2.7 -2.7 2.7L4.5 10.7l2.7 -2.7" opacity="0" fill="currentColor" stroke-width="0.5"></path>
  <path id="_Transparent_Rectangle_" d="M0 0h16v16H0Z" fill="none" stroke-width="0.5"></path>
</svg>