<svg id="Collapse-Categories--Streamline-Carbon" xmlns="http://www.w3.org/2000/svg" viewBox="0 0 16 16" height="16" width="16">
  <desc>
    Collapse Categories Streamline Icon: https://streamlinehq.com
  </desc>
  <defs></defs>
  <title>collapse-categories</title>
  <path d="M7 12.5h7v1H7Z" fill="currentColor" stroke-width="0.5"></path>
  <path d="m3.585 13 -1.29 1.29L3 15l2 -2 -2 -2 -0.71 0.705L3.585 13z" fill="currentColor" stroke-width="0.5"></path>
  <path d="M7 7.5h7v1H7Z" fill="currentColor" stroke-width="0.5"></path>
  <path d="m3.585 8 -1.29 1.29L3 10l2 -2 -2 -2 -0.71 0.705L3.585 8z" fill="currentColor" stroke-width="0.5"></path>
  <path d="M7 2.5h7v1H7Z" fill="currentColor" stroke-width="0.5"></path>
  <path d="M3.585 3 2.295 4.29 3 5l2 -2 -2 -2 -0.71 0.705L3.585 3z" fill="currentColor" stroke-width="0.5"></path>
  <path id="_Transparent_Rectangle_" d="M0 0h16v16H0Z" fill="none" stroke-width="0.5"></path>
</svg>