<svg id="Cupcake-Pastry--Streamline-Atlas" xmlns="http://www.w3.org/2000/svg" viewBox="-0.5 -0.5 16 16" height="16" width="16">
  <desc>
    Cupcake Pastry Streamline Icon: https://streamlinehq.com
  </desc>
  <defs></defs>
  <path d="M9.25625 9.662500000000001a2.38125 2.38125 0 0 0 0 -0.36874999999999997 1.7874999999999999 1.7874999999999999 0 0 0 -3.5749999999999997 0 2.38125 2.38125 0 0 0 0 0.36874999999999997" fill="none" stroke="currentColor" stroke-miterlimit="10" stroke-width="1"></path>
  <path d="M9.2875 9.2875a1.7937500000000002 1.7937500000000002 0 0 1 3.5812500000000003 0l-1.7874999999999999 4.7749999999999995H3.9187499999999997l-1.7874999999999999 -4.7749999999999995a1.7937500000000002 1.7937500000000002 0 0 1 3.5812500000000003 0" fill="none" stroke="currentColor" stroke-miterlimit="10" stroke-width="1"></path>
  <path d="m5.7125 9.2875 0.59375 4.7749999999999995" fill="none" stroke="currentColor" stroke-miterlimit="10" stroke-width="1"></path>
  <path d="m9.2875 9.2875 -0.59375 4.7749999999999995" fill="none" stroke="currentColor" stroke-miterlimit="10" stroke-width="1"></path>
  <path d="M8.53125 2.725h0.1625a2.3874999999999997 2.3874999999999997 0 0 1 2.3874999999999997 2.3874999999999997v0.10625000000000001a1.7874999999999999 1.7874999999999999 0 0 1 1.1937499999999999 1.6875V8.125" fill="none" stroke="currentColor" stroke-miterlimit="10" stroke-width="1"></path>
  <path d="M2.725 8.125v-1.1875a1.7874999999999999 1.7874999999999999 0 0 1 1.1937499999999999 -1.6875v-0.1375a2.3874999999999997 2.3874999999999997 0 0 1 2.3874999999999997 -2.3874999999999997h0.1625" fill="none" stroke="currentColor" stroke-miterlimit="10" stroke-width="1"></path>
  <path d="M6.30625 2.13125a1.1937499999999999 1.1937499999999999 0 1 0 2.3874999999999997 0 1.1937499999999999 1.1937499999999999 0 1 0 -2.3874999999999997 0" fill="none" stroke="currentColor" stroke-miterlimit="10" stroke-width="1"></path>
  <path d="m8.09375 5.1125 1.1937499999999999 0" fill="none" stroke="currentColor" stroke-miterlimit="10" stroke-width="1"></path>
  <path d="m5.7125 5.7125 1.1937499999999999 0" fill="none" stroke="currentColor" stroke-miterlimit="10" stroke-width="1"></path>
</svg>