<svg xmlns="http://www.w3.org/2000/svg" fill="none" viewBox="0 0 24 24" height="24" width="24">
  <g id="Disability-Ramp-Up">
    <path id="Vector" fill="currentColor" d="M21.9999 21.9997H9.99985l12.00005 -7zM6.92856 14.0261c-0.34956 0.4443 -0.55659 0.9488 -0.62011 1.5137 -0.0635 0.5649 0.05127 1.1008 0.34375 1.6074 0.37493 0.6493 0.92076 1.0705 1.63769 1.2627 0.71717 0.1922 1.40126 0.1006 2.05081 -0.2744 0.5065 -0.2925 0.8731 -0.6997 1.1006 -1.2207 0.2274 -0.521 0.3013 -1.0615 0.2207 -1.6211l1.5976 -0.9219c0.3355 1.0012 0.3165 2.0034 -0.0566 3.0068 -0.3732 1.0036 -1.0276 1.7755 -1.9629 2.3155 -1.0781 0.6224 -2.21645 0.7733 -3.41505 0.4521 -1.19869 -0.3212 -2.10895 -1.0214 -2.73145 -2.0996 -0.53992 -0.9352 -0.72152 -1.9307 -0.54297 -2.9863 0.17858 -1.0557 0.66378 -1.9335 1.45508 -2.6328zm0.04786 -7.18554c0.30599 0.00521 0.67531 0.08176 1.10742 0.23047 1.20942 0.44484 2.19526 0.66002 2.95706 0.64453 0.7617 -0.01554 1.5168 -0.23106 2.2646 -0.64551l0.8994 1.55957c-0.6884 0.3974 -1.4699 0.64868 -2.3437 0.75489 -0.8739 0.10619 -1.6841 0.09779 -2.43068 -0.02539l1.55278 2.68948 2.3378 -1.3496c0.4287 -0.2475 0.8838 -0.3068 1.3653 -0.1778 0.4814 0.129 0.8462 0.4074 1.0937 0.836l2.4746 4.2871 -1.5586 0.8994 -2.25 -3.8965 -3.8964 2.25c-0.4287 0.2475 -0.88473 0.3068 -1.36625 0.1777 -0.48133 -0.129 -0.84534 -0.4083 -1.09278 -0.8369L5.39048 9.56126c-0.24738 -0.42861 -0.30674 -0.8838 -0.17774 -1.36523 0.12906 -0.48137 0.40833 -0.84533 0.83692 -1.09277 0.31172 -0.17995 0.62072 -0.26785 0.92676 -0.2627M3.79966 3.2058c0.4286 -0.24737 0.88381 -0.30673 1.36523 -0.17774 0.48135 0.12907 0.84534 0.40834 1.09278 0.83692 0.24742 0.42863 0.30674 0.88377 0.17773 1.36523 -0.12904 0.48117 -0.40759 0.84535 -0.83594 1.09277 -0.42862 0.24747 -0.88378 0.30669 -1.36523 0.17774 -0.48144 -0.129 -0.84625 -0.40739 -1.09375 -0.83594 -0.24745 -0.4286 -0.30666 -0.88381 -0.17774 -1.36523 0.12903 -0.48153 0.40824 -0.84625 0.83692 -1.09375" stroke-width="1"></path>
  </g>
</svg>