<svg id="Distribute-Vertical-Top--Streamline-Carbon" xmlns="http://www.w3.org/2000/svg" viewBox="0 0 16 16" height="16" width="16">
  <desc>
    Distribute Vertical Top Streamline Icon: https://streamlinehq.com
  </desc>
  <defs></defs>
  <title>distribute--vertical-top</title>
  <path d="M12 15H4a1.00105 1.00105 0 0 1 -1 -1v-2a1.00105 1.00105 0 0 1 1 -1h8a1.00105 1.00105 0 0 1 1 1v2a1.00105 1.00105 0 0 1 -1 1ZM4 12v2h8v-2Z" fill="currentColor" stroke-width="0.5"></path>
  <path d="M1 9h14v1H1Z" fill="currentColor" stroke-width="0.5"></path>
  <path d="M10 7h-4a1.00105 1.00105 0 0 1 -1 -1V4a1.00105 1.00105 0 0 1 1 -1h4a1.00105 1.00105 0 0 1 1 1v2a1.00105 1.00105 0 0 1 -1 1Zm-4 -3v2h4V4Z" fill="currentColor" stroke-width="0.5"></path>
  <path d="M1 1h14v1H1Z" fill="currentColor" stroke-width="0.5"></path>
  <path id="_Transparent_Rectangle_" d="M0 0h16v16H0Z" fill="none" stroke-width="0.5"></path>
</svg>