<svg version="1.1" id="Edit-Off--Streamline-Carbon" xmlns="http://www.w3.org/2000/svg" xmlns:xlink="http://www.w3.org/1999/xlink" x="0" y="0" viewBox="0 0 16 16" xml:space="preserve" enable-background="new 0 0 32 32" height="16" width="16">
  <desc>
    Edit Off Streamline Icon: https://streamlinehq.com
  </desc>
  <title>Asset 2</title>
  <path d="M15 14.3 1.7 1 1 1.7l5.05 5.05L2 10.8V14h3.2l4.05 -4.05L14.3 15l0.7 -0.7zM4.8 13H3v-1.8l3.75 -3.75 1.8 1.8L4.8 13z" fill="currentColor" stroke-width="0.5"></path>
  <path d="m14.7 3.1 -1.8 -1.8c-0.4 -0.4 -1 -0.4 -1.4 0l-4 4 0.7 0.7L10 4.2l1.8 1.8 -1.8 1.8 0.7 0.7 4 -4c0.4 -0.4 0.4 -1 0 -1.4zM12.5 5.3 10.7 3.5l1.5 -1.5L14 3.8l-1.5 1.5z" fill="currentColor" stroke-width="0.5"></path>
  <path d="M0 0h16v16H0Z" fill="none" stroke-width="0.5"></path>
</svg>