<svg id="Fingerprint-Recognition--Streamline-Carbon" xmlns="http://www.w3.org/2000/svg" viewBox="0 0 16 16" height="16" width="16">
  <desc>
    Fingerprint Recognition Streamline Icon: https://streamlinehq.com
  </desc>
  <defs></defs>
  <title>fingerprint-recognition</title>
  <path d="M3.5 2.605a0.385 0.385 0 0 1 -0.23 -0.69A7.73 7.73 0 0 1 8 0.5c1.33 0 3.24 0.225 4.75 1.31a0.385 0.385 0 0 1 0.09 0.535 0.39 0.39 0 0 1 -0.54 0.085A7.5 7.5 0 0 0 8 1.265a7 7 0 0 0 -4.25 1.26 0.37 0.37 0 0 1 -0.25 0.08Z" fill="currentColor" stroke-width="0.5"></path>
  <path d="M14.115 6.13a0.39 0.39 0 0 1 -0.315 -0.165C12.935 4.745 11.39 3.12 8 3.12a7 7 0 0 0 -5.815 2.85 0.385 0.385 0 0 1 -0.535 0.085 0.38 0.38 0 0 1 -0.075 -0.555A7.77 7.77 0 0 1 8 2.355c2.805 0 4.905 1.04 6.42 3.17a0.385 0.385 0 0 1 -0.095 0.535 0.395 0.395 0 0 1 -0.21 0.07Z" fill="currentColor" stroke-width="0.5"></path>
  <path d="M6.14 15.5a0.39 0.39 0 0 1 -0.36 -0.245 0.375 0.375 0 0 1 0.22 -0.5c2.185 -0.84 3.5 -2.56 3.5 -4.605a1.4 1.4 0 0 0 -1.5 -1.5c-0.93 0 -1.38 0.5 -1.5 1.675a2.135 2.135 0 0 1 -2.26 1.915 2.135 2.135 0 0 1 -2.16 -2.295A5.855 5.855 0 0 1 8 4.195a6 6 0 0 1 6 5.965 9.33 9.33 0 0 1 -0.695 3.25 0.39 0.39 0 0 1 -0.5 0.205 0.38 0.38 0 0 1 -0.205 -0.5 8.625 8.625 0 0 0 0.635 -2.955A5.225 5.225 0 0 0 8 4.96a5.09 5.09 0 0 0 -5.19 5 1.385 1.385 0 0 0 1.395 1.53 1.37 1.37 0 0 0 1.5 -1.24c0.18 -1.555 0.945 -2.345 2.28 -2.345a2.155 2.155 0 0 1 2.26 2.28c0 2.37 -1.5 4.36 -4 5.315a0.46 0.46 0 0 1 -0.105 0Z" fill="currentColor" stroke-width="0.5"></path>
  <path d="M9.885 15.14a0.405 0.405 0 0 1 -0.26 -0.1 0.38 0.38 0 0 1 0 -0.54 6.315 6.315 0 0 0 1.77 -4.34c0 -0.78 -0.24 -3.325 -3.35 -3.325a3.415 3.415 0 0 0 -2.47 0.935A3.085 3.085 0 0 0 4.66 10a0.385 0.385 0 0 1 -0.385 0.38 0.38 0.38 0 0 1 -0.385 -0.38A3.865 3.865 0 0 1 5 7.23a4.17 4.17 0 0 1 3 -1.16c3.04 0 4.12 2.2 4.12 4.09a7.045 7.045 0 0 1 -1.95 4.84 0.375 0.375 0 0 1 -0.285 0.14Z" fill="currentColor" stroke-width="0.5"></path>
  <path d="M4.33 13.87a7.07 7.07 0 0 1 -0.78 -0.045 0.38 0.38 0 1 1 0.085 -0.76c1.245 0.14 2.225 -0.08 2.92 -0.66a3.185 3.185 0 0 0 1.06 -2.265 0.375 0.375 0 0 1 0.41 -0.355 0.39 0.39 0 0 1 0.36 0.405A3.945 3.945 0 0 1 7.045 13a4.1 4.1 0 0 1 -2.715 0.87Z" fill="currentColor" stroke-width="0.5"></path>
  <path id="_Transparent_Rectangle_" d="M0 0h16v16H0Z" fill="none" stroke-width="0.5"></path>
</svg>