<svg id="Folder--Streamline-Carbon" xmlns="http://www.w3.org/2000/svg" viewBox="0 0 16 16" height="16" width="16">
  <desc>
    Folder Streamline Icon: https://streamlinehq.com
  </desc>
  <defs></defs>
  <title>folder</title>
  <path d="m5.585 3 1.71 1.705 0.29 0.295H14v8H2V3h3.585m0 -1H2a1 1 0 0 0 -1 1v10a1 1 0 0 0 1 1h12a1 1 0 0 0 1 -1V5a1 1 0 0 0 -1 -1H8l-1.705 -1.705A1 1 0 0 0 5.585 2Z" fill="currentColor" stroke-width="0.5"></path>
  <path id="_Transparent_Rectangle_" d="M0 0h16v16H0Z" fill="none" stroke-width="0.5"></path>
</svg>