<svg id="Group-Access--Streamline-Carbon" xmlns="http://www.w3.org/2000/svg" viewBox="0 0 16 16" height="16" width="16">
  <desc>
    Group Access Streamline Icon: https://streamlinehq.com
  </desc>
  <defs></defs>
  <path d="M4 9.5H3v-1a1.50165 1.50165 0 0 1 1.5 -1.5h2.5v1H4.5a0.50055 0.50055 0 0 0 -0.5 0.5Z" fill="currentColor" stroke-width="0.5"></path>
  <path d="M6 6.5a2 2 0 1 1 2 -2 2.00225 2.00225 0 0 1 -2 2Zm0 -3a1 1 0 1 0 1 1 1.00105 1.00105 0 0 0 -1 -1Z" fill="currentColor" stroke-width="0.5"></path>
  <path d="M10 10a2 2 0 1 1 2 -2 2.00225 2.00225 0 0 1 -2 2Zm0 -3a1 1 0 1 0 1 1 1.00105 1.00105 0 0 0 -1 -1Z" fill="currentColor" stroke-width="0.5"></path>
  <path d="M13 13h-1v-1a0.50055 0.50055 0 0 0 -0.5 -0.5h-3a0.50055 0.50055 0 0 0 -0.5 0.5v1h-1v-1a1.50165 1.50165 0 0 1 1.5 -1.5h3a1.50165 1.50165 0 0 1 1.5 1.5Z" fill="currentColor" stroke-width="0.5"></path>
  <path d="M4 15H2a1.00105 1.00105 0 0 1 -1 -1V2a1.00105 1.00105 0 0 1 1 -1h2v1H2v12h2Z" fill="currentColor" stroke-width="0.5"></path>
  <path d="M14 15h-2v-1h2V2h-2V1h2a1.00105 1.00105 0 0 1 1 1v12a1.00105 1.00105 0 0 1 -1 1Z" fill="currentColor" stroke-width="0.5"></path>
  <path id="_Transparent_Rectangle_" d="M0 0h16v16H0Z" fill="none" stroke-width="0.5"></path>
</svg>