<svg id="Hearing--Streamline-Carbon" xmlns="http://www.w3.org/2000/svg" viewBox="0 0 16 16" height="16" width="16">
  <desc>
    Hearing Streamline Icon: https://streamlinehq.com
  </desc>
  <defs></defs>
  <title>hearing</title>
  <path d="M9 15v-1a5.0057 5.0057 0 0 0 5 -5h1a6.0067 6.0067 0 0 1 -6 6Z" fill="currentColor" stroke-width="0.5"></path>
  <path d="M9 13v-1a3.0033 3.0033 0 0 0 3 -3h1a4.0046 4.0046 0 0 1 -4 4Z" fill="currentColor" stroke-width="0.5"></path>
  <path d="M9 11v-1a1.00115 1.00115 0 0 0 1 -1h1a2.0021 2.0021 0 0 1 -2 2Z" fill="currentColor" stroke-width="0.5"></path>
  <path d="M5 1a4.505 4.505 0 0 0 -4.5 4.5h1a3.5 3.5 0 0 1 7 0 3.545 3.545 0 0 1 -1.7505 3.0674l-0.2495 0.14405v1.5366a1.4677 1.4677 0 0 1 -0.45045 1.0757 2.0912 2.0912 0 0 1 -2.3159 0.515A2.0459 2.0459 0 0 1 2.5 10H1.5a3.0578 3.0578 0 0 0 1.8347 2.75585 2.8911 2.8911 0 0 0 1.15725 0.24315 3.2927 3.2927 0 0 0 2.23925 -0.944A2.47 2.47 0 0 0 7.5 10.24805v-0.9712A4.55385 4.55385 0 0 0 9.5 5.5a4.505 4.505 0 0 0 -4.5 -4.5Z" fill="currentColor" stroke-width="0.5"></path>
  <path d="M4.64 4.04125A1.50305 1.50305 0 0 1 6.5 5.5h1a2.4893 2.4893 0 0 0 -0.94215 -1.95555 2.5207 2.5207 0 0 0 -2.14035 -0.4783A2.475 2.475 0 0 0 2.56615 4.9175a2.5159 2.5159 0 0 0 1.15185 2.72925A1.53885 1.53885 0 0 1 4.5 8.96145V10h1v-1.03855a2.5304 2.5304 0 0 0 -1.26855 -2.1729A1.5008 1.5008 0 0 1 4.64 4.04125Z" fill="currentColor" stroke-width="0.5"></path>
  <path id="_Transparent_Rectangle_" d="M0 0h16v16H0Z" fill="none" stroke-width="0.5"></path>
</svg>