<svg id="Logo-Instagram--Streamline-Carbon" xmlns="http://www.w3.org/2000/svg" viewBox="0 0 16 16" height="16" width="16">
  <desc>
    Logo Instagram Streamline Icon: https://streamlinehq.com
  </desc>
  <defs></defs>
  <title>logo--instagram</title>
  <path d="M10.4828 4.7972a0.72 0.72 0 1 0 1.44 0 0.72 0.72 0 1 0 -1.44 0" fill="currentColor" stroke-width="0.5"></path>
  <path d="M8 4.9189A3.0811 3.0811 0 1 0 11.0811 8 3.0811 3.0811 0 0 0 8 4.9189ZM8 10a2 2 0 1 1 2 -2 2 2 0 0 1 -2 2Z" fill="currentColor" stroke-width="0.5"></path>
  <path d="M8 3.0811c1.60205 0 1.79185 0.0061 2.4245 0.035a3.3209 3.3209 0 0 1 1.11415 0.2066 1.9874 1.9874 0 0 1 1.1387 1.1387 3.3209 3.3209 0 0 1 0.2066 1.11415c0.02885 0.63265 0.035 0.82245 0.035 2.4245s-0.0061 1.79185 -0.035 2.4245a3.3209 3.3209 0 0 1 -0.2066 1.11415 1.9874 1.9874 0 0 1 -1.1387 1.1387 3.3209 3.3209 0 0 1 -1.11415 0.2066c-0.6326 0.02885 -0.8223 0.035 -2.4245 0.035s-1.7919 -0.0061 -2.4245 -0.035a3.3209 3.3209 0 0 1 -1.11415 -0.2066 1.9874 1.9874 0 0 1 -1.1387 -1.1387 3.3209 3.3209 0 0 1 -0.2066 -1.11415c-0.02885 -0.63265 -0.035 -0.82245 -0.035 -2.4245s0.0061 -1.79185 0.035 -2.4245a3.3209 3.3209 0 0 1 0.2066 -1.11415 1.9874 1.9874 0 0 1 1.1387 -1.13875 3.3209 3.3209 0 0 1 1.11415 -0.2066c0.63265 -0.02885 0.82245 -0.035 2.4245 -0.035M8 2c-1.6295 0 -1.83385 0.0069 -2.4738 0.0361A4.4034 4.4034 0 0 0 4.07 2.315a3.06815 3.06815 0 0 0 -1.755 1.755 4.4034 4.4034 0 0 0 -0.2789 1.45645C2.0069 6.16615 2 6.3705 2 8s0.0069 1.83385 0.0361 2.4738a4.4037 4.4037 0 0 0 0.2789 1.45645 3.06815 3.06815 0 0 0 1.755 1.755 4.4034 4.4034 0 0 0 1.45645 0.2789C6.16615 13.9931 6.3705 14 8 14s1.83385 -0.0069 2.4738 -0.0361a4.4037 4.4037 0 0 0 1.45645 -0.2789 3.06815 3.06815 0 0 0 1.755 -1.755 4.4037 4.4037 0 0 0 0.2789 -1.45645C13.9931 9.83385 14 9.6295 14 8s-0.0069 -1.83385 -0.0361 -2.4738A4.4034 4.4034 0 0 0 13.685 4.07a3.06815 3.06815 0 0 0 -1.755 -1.75475 4.4037 4.4037 0 0 0 -1.45645 -0.2789C9.83385 2.0069 9.6295 2 8 2Z" fill="currentColor" stroke-width="0.5"></path>
  <path id="_Transparent_Rectangle_" d="M0 0h16v16H0Z" fill="none" stroke-width="0.5"></path>
</svg>