<svg id="Mov--Streamline-Carbon" xmlns="http://www.w3.org/2000/svg" viewBox="0 0 16 16" height="16" width="16">
  <desc>
    MOV Streamline Icon: https://streamlinehq.com
  </desc>
  <defs></defs>
  <title>MOV</title>
  <path d="m14 4.5 -1 6.5 -1 -6.5 -1 0 1.26 7 1.48 0L15 4.5l-1 0z" fill="currentColor" stroke-width="0.5"></path>
  <path d="M9 11.5h-2a1 1 0 0 1 -1 -1V5.5a1 1 0 0 1 1 -1h2a1 1 0 0 1 1 1v5a1 1 0 0 1 -1 1Zm-2 -6v5h2V5.5Z" fill="currentColor" stroke-width="0.5"></path>
  <path d="m4 4.5 -0.755 2.5L3 7.99 2.77 7 2 4.5 1 4.5l0 7 1 0 0 -4 -0.08 -1 0.29 1L3 9.815 3.79 7.5l0.29 -1L4 7.5l0 4 1 0 0 -7 -1 0z" fill="currentColor" stroke-width="0.5"></path>
  <path id="_Transparent_Rectangle_" d="M0 0h16v16H0Z" fill="none" stroke-width="0.5"></path>
</svg>