<svg xmlns="http://www.w3.org/2000/svg" viewBox="0 0 24 24" fill="none" stroke="currentColor" stroke-linecap="round" stroke-linejoin="round" id="Movie--Streamline-Tabler" height="24" width="24">
  <desc>
    Movie Streamline Icon: https://streamlinehq.com
  </desc>
  <path d="M4 6a2 2 0 0 1 2 -2h12a2 2 0 0 1 2 2v12a2 2 0 0 1 -2 2H6a2 2 0 0 1 -2 -2z" stroke-width="2"></path>
  <path d="m8 4 0 16" stroke-width="2"></path>
  <path d="m16 4 0 16" stroke-width="2"></path>
  <path d="m4 8 4 0" stroke-width="2"></path>
  <path d="m4 16 4 0" stroke-width="2"></path>
  <path d="m4 12 16 0" stroke-width="2"></path>
  <path d="m16 8 4 0" stroke-width="2"></path>
  <path d="m16 16 4 0" stroke-width="2"></path>
</svg>