<svg id="Mp3--Streamline-Carbon" xmlns="http://www.w3.org/2000/svg" viewBox="0 0 16 16" height="16" width="16">
  <desc>
    MP3 Streamline Icon: https://streamlinehq.com
  </desc>
  <defs></defs>
  <title>MP3</title>
  <path d="M14 4.5h-3v1h3v2h-2v1h2v2h-3v1h3a1 1 0 0 0 1 -1V5.5a1 1 0 0 0 -1 -1Z" fill="currentColor" stroke-width="0.5"></path>
  <path d="M7 11.5h-1V4.5h3a1 1 0 0 1 1 1v2.5a1 1 0 0 1 -1 1h-2Zm0 -3.5h2v-2.5h-2Z" fill="currentColor" stroke-width="0.5"></path>
  <path d="m4 4.5 -0.755 2.5L3 7.99 2.77 7 2 4.5 1 4.5l0 7 1 0 0 -4 -0.08 -1 0.29 1L3 9.815 3.79 7.5l0.29 -1L4 7.5l0 4 1 0 0 -7 -1 0z" fill="currentColor" stroke-width="0.5"></path>
  <path id="_Transparent_Rectangle_" d="M0 0h16v16H0Z" fill="none" stroke-width="0.5"></path>
</svg>