<svg id="Cupcake--Streamline-Atlas" xmlns="http://www.w3.org/2000/svg" viewBox="-0.5 -0.5 16 16" height="16" width="16">
  <desc>
    Cupcake Streamline Icon: https://streamlinehq.com
  </desc>
  <defs></defs>
  <path d="M11.7625 8.15625a2.26875 2.26875 0 0 1 -1.6375000000000002 -0.7000000000000001 2.0374999999999996 2.0374999999999996 0 0 1 -0.21250000000000002 -0.25 2.6125 2.6125 0 0 1 -4.825 0 2.0374999999999996 2.0374999999999996 0 0 1 -0.21250000000000002 0.25 2.26875 2.26875 0 0 1 -1.6375000000000002 0.7000000000000001 2.16875 2.16875 0 0 1 -0.8375 -0.15625l1.1625 6.0625h7.875l1.1625 -6.0625a2.16875 2.16875 0 0 1 -0.8375 0.15625Z" fill="none" stroke="currentColor" stroke-miterlimit="10" stroke-width="1"></path>
  <path d="M14.056249999999999 5.768750000000001a0.44375 0.44375 0 0 1 0 0.09375 2.2125 2.2125 0 0 1 -0.48750000000000004 1.39375 2.24375 2.24375 0 0 1 -1.8125 0.8999999999999999 2.26875 2.26875 0 0 1 -1.6375000000000002 -0.7000000000000001 2.0374999999999996 2.0374999999999996 0 0 1 -0.21250000000000002 -0.25 2.6125 2.6125 0 0 1 -4.825 0 2.0374999999999996 2.0374999999999996 0 0 1 -0.21250000000000002 0.25 2.26875 2.26875 0 0 1 -1.6375000000000002 0.7000000000000001 2.16875 2.16875 0 0 1 -0.8375 -0.15625 2.16875 2.16875 0 0 1 -0.9750000000000001 -0.7437499999999999 2.2125 2.2125 0 0 1 -0.48125 -1.39375 0.44375 0.44375 0 0 1 0 -0.09375l0 -0.21875C0.9375 2.99375 3.875 0.9375 7.5 0.9375s6.5625 2.05625 6.5625 4.59375l0 0.21875Z" fill="none" stroke="currentColor" stroke-miterlimit="10" stroke-width="1"></path>
  <path d="m7.5 3.325 0 2.3874999999999997" fill="none" stroke="currentColor" stroke-miterlimit="10" stroke-width="1"></path>
  <path d="M5.1125 3.325 3.9187499999999997 5.1125" fill="none" stroke="currentColor" stroke-miterlimit="10" stroke-width="1"></path>
  <path d="m9.8875 3.325 1.1937499999999999 1.7874999999999999" fill="none" stroke="currentColor" stroke-miterlimit="10" stroke-width="1"></path>
  <path d="m6.1875 14.0625 -0.55 -6.03125" fill="none" stroke="currentColor" stroke-miterlimit="10" stroke-width="1"></path>
  <path d="m9.3625 8.03125 -0.55 6.03125" fill="none" stroke="currentColor" stroke-miterlimit="10" stroke-width="1"></path>
</svg>