<svg id="Sankey-Diagram-Alt--Streamline-Carbon" xmlns="http://www.w3.org/2000/svg" viewBox="0 0 16 16" height="16" width="16">
  <desc>
    Sankey Diagram Alt Streamline Icon: https://streamlinehq.com
  </desc>
  <defs></defs>
  <path d="M15 1H1v7h3.05565a3.51795 3.51795 0 0 1 1.565 0.36965L7.88185 9.5l-2.261 1.13035A3.51795 3.51795 0 0 1 4.05565 11H1v4h3.61155a4.5223 4.5223 0 0 0 2.01245 -0.475l4.311 -2.15535A3.51795 3.51795 0 0 1 12.5 12h2.5V7h-2.5a3.51795 3.51795 0 0 1 -1.565 -0.36965L7.67405 5H15ZM4 2h8v2H4ZM2 2h1v5H2Zm0 10h1v2H2Zm8.48755 -0.525 -4.3108 2.15525A3.51795 3.51795 0 0 1 4.61155 14H4v-2h0.05565a4.5223 4.5223 0 0 0 2.01245 -0.475L9 10.0591l0.9319 0.4658a4.5223 4.5223 0 0 0 2.01245 0.475H12v0.0293a4.52575 4.52575 0 0 0 -1.51245 0.4458ZM14 11h-1v-3h1ZM6.17675 5.36965l4.3108 2.155A4.52575 4.52575 0 0 0 12 7.9707V10h-0.05565a3.51795 3.51795 0 0 1 -1.565 -0.36965l-4.31105 -2.155A4.5223 4.5223 0 0 0 4.05565 7H4v-2h0.61155a3.51795 3.51795 0 0 1 1.5652 0.36965ZM14 4h-1V2h1Z" fill="currentColor" stroke-width="0.5"></path>
  </path>
</svg>
