<svg id="Settings--Streamline-Carbon" xmlns="http://www.w3.org/2000/svg" viewBox="0 0 16 16" height="16" width="16">
  <desc>
    Settings Streamline Icon: https://streamlinehq.com
  </desc>
  <defs></defs>
  <title>settings</title>
  <path d="m13.5 8.38 0 -0.38 0 -0.385 0.96 -0.84A1 1 0 0 0 14.65 5.5l-1.18 -2a1 1 0 0 0 -0.865 -0.5 1 1 0 0 0 -0.32 0.05l-1.215 0.41a5.675 5.675 0 0 0 -0.655 -0.375l-0.255 -1.26a1 1 0 0 0 -1 -0.805h-2.34a1 1 0 0 0 -1 0.805l-0.255 1.26a5.74 5.74 0 0 0 -0.66 0.375l-1.19 -0.43A1 1 0 0 0 3.395 3a1 1 0 0 0 -0.865 0.5L1.35 5.5a1 1 0 0 0 0.205 1.255L2.5 7.62 2.5 8l0 0.385 -0.945 0.84A1 1 0 0 0 1.35 10.5l1.18 2a1 1 0 0 0 0.865 0.5 1 1 0 0 0 0.32 -0.05l1.215 -0.41a5.675 5.675 0 0 0 0.655 0.375l0.255 1.26a1 1 0 0 0 1 0.805h2.36a1 1 0 0 0 1 -0.805l0.255 -1.26a5.74 5.74 0 0 0 0.66 -0.375l1.21 0.41a1 1 0 0 0 0.32 0.05 1 1 0 0 0 0.865 -0.5l1.14 -2a1 1 0 0 0 -0.205 -1.255ZM12.605 12l-1.715 -0.58a4.43 4.43 0 0 1 -1.355 0.785L9.18 14h-2.36l-0.355 -1.775a4.68 4.68 0 0 1 -1.35 -0.785L3.395 12l-1.18 -2 1.36 -1.2a4.45 4.45 0 0 1 0 -1.565L2.215 6l1.18 -2 1.715 0.58a4.43 4.43 0 0 1 1.355 -0.785L6.82 2h2.36l0.355 1.775a4.68 4.68 0 0 1 1.35 0.785L12.605 4l1.18 2 -1.36 1.2a4.45 4.45 0 0 1 0 1.565L13.785 10Z" fill="currentColor" stroke-width="0.5"></path>
  <path d="M8 11a3 3 0 1 1 3 -3 2.97 2.97 0 0 1 -3 3Zm0 -5a1.955 1.955 0 0 0 -2 2 1.955 1.955 0 0 0 2 2 1.955 1.955 0 0 0 2 -2 1.955 1.955 0 0 0 -2 -2Z" fill="currentColor" stroke-width="0.5"></path>
  <path id="_Transparent_Rectangle_" d="M0 0h16v16H0Z" fill="none" stroke-width="0.5"></path>
</svg>