<svg id="Txt--Streamline-Carbon" xmlns="http://www.w3.org/2000/svg" viewBox="0 0 16 16" height="16" width="16">
  <desc>
    TXT Streamline Icon: https://streamlinehq.com
  </desc>
  <defs></defs>
  <title>TXT</title>
  <path d="m10.5 5.5 1.5 0 0 6 1 0 0 -6 1.5 0 0 -1 -4 0 0 1z" fill="currentColor" stroke-width="0.5"></path>
  <path d="m10 4.5 -1 0 -1 3 -1 -3 -1 0 1.375 3.5L6 11.5l1 0 1 -3 1 3 1 0 -1.375 -3.5L10 4.5z" fill="currentColor" stroke-width="0.5"></path>
  <path d="m1.5 5.5 1.5 0 0 6 1 0 0 -6 1.5 0 0 -1 -4 0 0 1z" fill="currentColor" stroke-width="0.5"></path>
  <path id="_Transparent_Rectangle_" d="M0 0h16v16H0Z" fill="none" stroke-width="0.5"></path>
</svg>