<svg id="User-Follow--Streamline-Carbon" xmlns="http://www.w3.org/2000/svg" viewBox="0 0 16 16" height="16" width="16">
  <desc>
    User Follow Streamline Icon: https://streamlinehq.com
  </desc>
  <defs></defs>
  <title>user--follow</title>
  <path d="m16 7 -2 0 0 -2 -1 0 0 2 -2 0 0 1 2 0 0 2 1 0 0 -2 2 0 0 -1z" fill="currentColor" stroke-width="0.5"></path>
  <path d="M6 2a2.5 2.5 0 1 1 -2.5 2.5 2.5 2.5 0 0 1 2.5 -2.5m0 -1a3.5 3.5 0 1 0 3.5 3.5 3.5 3.5 0 0 0 -3.5 -3.5Z" fill="currentColor" stroke-width="0.5"></path>
  <path d="M11 15h-1v-2.5a2.5 2.5 0 0 0 -2.5 -2.5H4.5a2.5 2.5 0 0 0 -2.5 2.5v2.5H1v-2.5a3.5 3.5 0 0 1 3.5 -3.5h3a3.5 3.5 0 0 1 3.5 3.5Z" fill="currentColor" stroke-width="0.5"></path>
  <path id="_Transparent_Rectangle_" d="M0 0h16v16H0Z" fill="none" stroke-width="0.5"></path>
</svg>