<svg id="Accessibility--Streamline-Carbon" xmlns="http://www.w3.org/2000/svg" viewBox="0 0 16 16" height="16" width="16">
  <desc>
    Accessibility Streamline Icon: https://streamlinehq.com
  </desc>
  <defs></defs>
  <title>accessibility</title>
  <path d="m14.775 13.055 -1.525 0.76L11.83 10.5H7.5a1 1 0 0 1 -1 -1v-3a1 1 0 0 1 2 0v2h3.5v-1h-2.5v-1a2 2 0 0 0 -4 0v0.5a4.5 4.5 0 1 0 4.385 5.5h-1.03A3.5 3.5 0 1 1 5.5 8v1.5a2 2 0 0 0 2 2h3.67l1.58 3.685 2.475 -1.24Z" fill="currentColor" stroke-width="0.5"></path>
  <path d="M7.75 4A1.75 1.75 0 1 1 9.5 2.25 1.75 1.75 0 0 1 7.75 4Zm0 -2.5A0.75 0.75 0 1 0 8.5 2.25 0.75 0.75 0 0 0 7.75 1.5Z" fill="currentColor" stroke-width="0.5"></path>
  <path id="_Transparent_Rectangle_" d="M0 0h16v16H0Z" fill="none" stroke-width="0.5"></path>
</svg>