<svg xmlns="http://www.w3.org/2000/svg" viewBox="0 0 16 16" id="Money-Bill-Transfer--Streamline-Font-Awesome" height="16" width="16">
  <desc>
    Money Bill Transfer Streamline Icon: https://streamlinehq.com
  </desc>
<!--! Font Awesome Free 6.5.2 by @fontawesome - https://fontawesome.com License - https://fontawesome.com/license/free (Icons: CC BY 4.0, Fonts: SIL OFL 1.1, Code: MIT License) Copyright 2024 Fonticons, Inc.-->
  <path d="M13.2695475 2.7316775c-0.230335 -0.2303375 -0.230335 -0.602795 0 -0.8306800000000001s0.602795 -0.2303375 0.8306800000000001 0l1.5682450000000001 1.5682450000000001c0.11026750000000002 0.11026750000000002 0.17152750000000003 0.25974 0.17152750000000003 0.4165650000000001s-0.06126000000000001 0.3062975 -0.17152750000000003 0.4165650000000001l-1.5682450000000001 1.5682450000000001c-0.230335 0.230335 -0.6027925000000001 0.230335 -0.8306800000000001 0s-0.230335 -0.602795 0 -0.8306800000000001l0.56359 -0.5635875 -4.2636674999999995 -0.004902500000000001c-0.3259 0 -0.5880925 -0.26219000000000003 -0.5880925 -0.58809s0.2621925 -0.5880925 0.5880925 -0.5880925h4.2661175l-0.56604 -0.5635875ZM2.7329025000000002 10.9649625l-0.5635875 0.56359h4.2636650000000005c0.3259025 0 0.5880925 0.26219000000000003 0.5880925 0.58809s-0.26219000000000003 0.5880925 -0.5880925 0.5880925H2.166865l0.5635875 0.5635875c0.230335 0.2303375 0.230335 0.602795 0 0.8306800000000001s-0.602795 0.2303375 -0.8306800000000001 0l-1.5682450000000001 -1.565795C0.22126 12.42294 0.16000000000000003 12.2734675 0.16000000000000003 12.116642500000001s0.06126000000000001 -0.3062975 0.17152750000000003 -0.4165650000000001l1.5682450000000001 -1.5682450000000001c0.230335 -0.230335 0.6027925000000001 -0.230335 0.8306800000000001 0s0.230335 0.602795 0 0.8306800000000001Zm-0.22053500000000004 -7.6696975h5.9274775c-0.090665 0.17642750000000001 -0.1445725 0.3749075 -0.1445725 0.5880925 0 0.7032600000000001 0.5709375 1.2741975 1.2741975 1.2741975h2.87675c-0.098015 0.4165650000000001 0.0147025 0.8698874999999999 0.3381525 1.1957875 0.49742749999999997 0.49742749999999997 1.3036050000000001 0.49742749999999997 1.8010325000000003 0l0.47292249999999997 -0.47292500000000004v5.2560725c0 0.8649850000000001 -0.7032600000000001 1.5682450000000001 -1.5682450000000001 1.5682450000000001h-5.927475c0.09066250000000001 -0.17642750000000001 0.1445725 -0.3749075 0.1445725 -0.5880925 0 -0.7032600000000001 -0.57094 -1.2741975 -1.2742000000000002 -1.2741975h-2.87675c0.098015 -0.4165650000000001 -0.0147025 -0.8698874999999999 -0.3381525 -1.1957875 -0.49742749999999997 -0.49742749999999997 -1.3036025000000002 -0.49742749999999997 -1.8010300000000001 0l-0.47292500000000004 0.47292249999999997V4.863510000000001c0 -0.8649850000000001 0.7032600000000001 -1.5682450000000001 1.5682450000000001 -1.5682450000000001Zm1.5682450000000001 1.5682450000000001h-1.5682450000000001v1.5682450000000001c0.8649850000000001 0 1.5682450000000001 -0.7032600000000001 1.5682450000000001 -1.5682450000000001Zm9.40947 4.704735c-0.8649850000000001 0 -1.5682450000000001 0.7032600000000001 -1.5682450000000001 1.5682450000000001h1.5682450000000001v-1.5682450000000001ZM8.001225 10.3523675c1.8108525000000002 0.00008 2.9426200000000002 -1.960175 2.0372625 -3.52846 -0.42019500000000004 -0.7278775000000001 -1.1968050000000001 -1.1762750000000002 -2.0372625 -1.1762750000000002 -1.8108525000000002 0 -2.9426375 1.960305 -2.03721 3.52855 0.42022750000000003 0.7278575 1.1967525 1.1762225000000002 2.03721 1.176185Z" fill="currentColor" stroke-width="0.025"></path>
</svg>