<svg version="1.1" id="Add-Alt--Streamline-Carbon" xmlns="http://www.w3.org/2000/svg" xmlns:xlink="http://www.w3.org/1999/xlink" x="0" y="0" viewBox="0 0 16 16" xml:space="preserve" enable-background="new 0 0 32 32" height="16" width="16">
  <desc>
    Add Alt Streamline Icon: https://streamlinehq.com
  </desc>
  <path d="M8 2c3.3 0 6 2.7 6 6s-2.7 6 -6 6S2 11.3 2 8 4.7 2 8 2m0 -1C4.15 1 1 4.15 1 8s3.15 7 7 7 7 -3.15 7 -7S11.85 1 8 1z" fill="currentColor" stroke-width="0.5"></path>
  <path d="m12 7.5 -3.5 0 0 -3.5 -1 0 0 3.5 -3.5 0 0 1 3.5 0 0 3.5 1 0 0 -3.5 3.5 0z" fill="currentColor" stroke-width="0.5"></path>
  <path id="_Transparent_Rectangle_" d="M0 0h16v16H0Z" fill="none" stroke-width="0.5"></path>
</svg>