<svg xmlns="http://www.w3.org/2000/svg" viewBox="0 0 16 16" id="Cc-Amex--Streamline-Font-Awesome" height="16" width="16">
  <desc>
    Cc Amex Streamline Icon: https://streamlinehq.com
  </desc>
<!--! Font Awesome Free 6.5.2 by @fontawesome - https://fontawesome.com License - https://fontawesome.com/license/free (Icons: CC BY 4.0, Fonts: SIL OFL 1.1, Code: MIT License) Copyright 2024 Fonticons, Inc.-->
  <path d="M0.15999999999999998 12.79111111111111c0 0.7213888888888889 0.5852777777777778 1.3066666666666666 1.3066666666666666 1.3066666666666666h13.066666666666665c0.7213888888888889 0 1.3066666666666666 -0.5852777777777778 1.3066666666666666 -1.3066666666666666v-0.029944444444444444h-1.679611111111111l-0.8683888888888889 -0.9555 -0.8683888888888889 0.9555H6.878444444444444V8.302166666666666H5.087222222222222l2.2240555555555557 -5.0279444444444445h2.139666666666667l0.7649444444444444 1.7204444444444444v-1.7204444444444444h2.646l0.46005555555555555 1.2957777777777777 0.46277777777777773 -1.2957777777777777h2.0552777777777775v-0.06533333333333333c0 -0.7213888888888889 -0.5852777777777778 -1.3066666666666666 -1.3066666666666666 -1.3066666666666666H1.4666666666666666c-0.7213888888888889 0 -1.3066666666666666 0.5852777777777778 -1.3066666666666666 1.3066666666666666v9.58222222222222Zm11.988666666666665 -0.5907222222222221 1.1487777777777777 -1.2603888888888888 1.143333333333333 1.2603888888888888h1.3992222222222221l-1.851111111111111 -1.9627222222222223 1.851111111111111 -1.9627222222222223h-1.3774444444444445l-1.143333333333333 1.2712777777777777 -1.1297222222222223 -1.2712777777777777H10.790277777777776l1.8375000000000001 1.973611111111111 -1.8347777777777778 1.9491111111111112v-0.9010555555555556h-2.2594444444444446v-0.6043333333333333h2.202277777777778v-0.8792777777777777h-2.202277777777778v-0.6097777777777778h2.2594444444444446v-0.9010555555555556h-3.321111111111111v3.8982222222222225h4.676777777777778Zm2.6214999999999997 -1.96 1.0698333333333334 1.140611111111111v-2.267611111111111l-1.0698333333333334 1.127Zm-0.9881666666666665 -2.5044444444444443 1.0045 -2.738555555555555v2.738555555555555h1.0535V3.835h-1.6387777777777777l-0.8765555555555555 2.430944444444444 -0.8683888888888889 -2.430944444444444H10.790277777777776v3.8954999999999997L9.069833333333333 3.835h-1.3937777777777778l-1.6986666666666665 3.9009444444444443h1.1705555555555556l0.3239444444444444 -0.7812777777777777h1.7939444444444441l0.32666666666666666 0.7812777777777777h2.2512777777777777V5.005555555555555l1.0017777777777777 2.7303888888888888h0.9364444444444445ZM7.836666666666666 6.078111111111111l0.5308333333333333 -1.2767222222222223 0.5281111111111111 1.2767222222222223H7.836666666666666Z" fill="currentColor" stroke-width="0.0278"></path>
</svg>