<svg xmlns="http://www.w3.org/2000/svg" fill="none" viewBox="0 0 24 24" id="Backup--Streamline-Sharp-Material" height="24" width="24">
  <desc>
    Backup Streamline Icon: https://streamlinehq.com
  </desc>
  <path fill="#000000" d="M6.25 20c-1.433335 0 -2.666665 -0.51665 -3.7 -1.55C1.516665 17.4167 1 16.18335 1 14.75c0 -1.3 0.4125 -2.4458 1.2375 -3.4375 0.825 -0.99165 1.8875 -1.5875 3.1875 -1.7875 0.33335 -1.61665 1.11665 -2.9375 2.35 -3.9625 1.23335 -1.024975 2.65835 -1.537475 4.275 -1.537475 1.88335 0 3.4625 0.679165 4.7375 2.037475C18.0625 7.42085 18.7 9.05 18.7 10.95v0.6c1.2 -0.0333 2.21665 0.3542 3.05 1.1625 0.83335 0.80835 1.25 1.8292 1.25 3.0625 0 1.15 -0.41665 2.1417 -1.25 2.975 -0.83335 0.83335 -1.825 1.25 -2.975 1.25H12.75c-0.4 0 -0.75 -0.15 -1.05 -0.45 -0.3 -0.3 -0.45 -0.65 -0.45 -1.05V12.05l-2.075 2.075 -1.075 -1.075 3.9 -3.9 3.9 3.9 -1.075 1.075 -2.075 -2.075V18.5h6.025c0.75 0 1.39165 -0.26665 1.925 -0.8 0.53335 -0.5333 0.8 -1.175 0.8 -1.925s-0.26665 -1.39165 -0.8 -1.925c-0.53335 -0.5333 -1.175 -0.8 -1.925 -0.8H17.2v-2.1c0 -1.4833 -0.50415 -2.7583 -1.5125 -3.825 -1.00835 -1.06665 -2.25415 -1.6 -3.7375 -1.6 -1.48335 0 -2.73335 0.53335 -3.75 1.6 -1.01665 1.0667 -1.525 2.3417 -1.525 3.825h-0.475c-1.03335 0 -1.908335 0.3625 -2.625 1.0875C2.858335 12.7625 2.5 13.65835 2.5 14.725c0 1.03335 0.366085 1.92085 1.09825 2.6625C4.330415 18.1292 5.21435 18.5 6.25 18.5h3.5v1.5h-3.5Z" stroke-width="0.5"></path>
</svg>