<svg id="Bat--Streamline-Carbon" xmlns="http://www.w3.org/2000/svg" viewBox="0 0 16 16" height="16" width="16">
  <desc>
    Bat Streamline Icon: https://streamlinehq.com
  </desc>
  <defs></defs>
  <path d="M15.95465 3.292A0.5 0.5 0 0 0 15.5 3c-2.38415 0 -4.13035 0.44435 -5.5 1.4219V1.5h-1v1.5h-2V1.5h-1v2.9219C4.6304 3.44435 2.8842 3 0.5 3a0.5 0.5 0 0 0 -0.37815 0.82715C0.9727 4.81105 1.5 5.85205 1.5 8a0.5 0.5 0 0 0 0.5 0.5c1.3839 0 3 0.655 3 2.5a0.502 0.502 0 0 0 0.46705 0.499C5.675 11.51365 7.5 11.6936 7.5 13.5a0.5 0.5 0 0 0 1 0c0 -1.8064 1.825 -1.98635 2.0311 -2.001A0.5 0.5 0 0 0 11 11c0 -1.845 1.61605 -2.5 3 -2.5a0.5 0.5 0 0 0 0.5 -0.5c0 -2.14795 0.52735 -3.18895 1.3782 -4.17285a0.5 0.5 0 0 0 0.07645 -0.53515Zm-2.4465 4.23c-1.69285 0.15405 -3.2767 1.1145 -3.485 3.0393A3.276 3.276 0 0 0 8 11.8047a3.276 3.276 0 0 0 -2.02305 -1.2432c-0.2084 -1.925 -1.79225 -2.88525 -3.485 -3.0393a6.60085 6.60085 0 0 0 -0.96935 -3.49c2.0659 0.1362 3.51635 0.71385 4.624 1.82125A0.5 0.5 0 0 0 7 5.5V4h2v1.5a0.5 0.5 0 0 0 0.8535 0.3535c1.10765 -1.1074 2.5581 -1.685 4.624 -1.82125a6.60085 6.60085 0 0 0 -0.96935 3.48995Z" fill="currentColor" stroke-width="0.5"></path>
  <path id="_Transparent_Rectangle_" d="M0 0h16v16H0Z" fill="none" stroke-width="0.5"></path>
</svg>