<svg id="Building--Streamline-Carbon" xmlns="http://www.w3.org/2000/svg" viewBox="0 0 16 16" height="16" width="16">
  <desc>
    Building Streamline Icon: https://streamlinehq.com
  </desc>
  <defs></defs>
  <title>building</title>
  <path d="M14 1H8a1.001 1.001 0 0 0 -1 1v5H2a1.001 1.001 0 0 0 -1 1v7h14V2a1.00115 1.00115 0 0 0 -1 -1ZM4.5 14v-3.5h2v3.5Zm9.5 0H7.5v-4a0.5 0.5 0 0 0 -0.5 -0.5H4a0.5 0.5 0 0 0 -0.5 0.5v4H2V8h6V2h6Z" fill="currentColor" stroke-width="0.5"></path>
  <path d="M9 4h1v1h-1Z" fill="currentColor" stroke-width="0.5"></path>
  <path d="M12 4h1v1h-1Z" fill="currentColor" stroke-width="0.5"></path>
  <path d="M9 7h1v1h-1Z" fill="currentColor" stroke-width="0.5"></path>
  <path d="M12 7h1v1h-1Z" fill="currentColor" stroke-width="0.5"></path>
  <path d="M9 9.9998h1v1h-1Z" fill="currentColor" stroke-width="0.5"></path>
  <path d="M12 9.9998h1v1h-1Z" fill="currentColor" stroke-width="0.5"></path>
  <path id="_Transparent_Rectangle_" d="M0 0h16v16H0Z" fill="none" stroke-width="0.5"></path>
</svg>