<svg xmlns="http://www.w3.org/2000/svg" viewBox="0 0 16 16" fill="currentColor" id="Campfire-Fill--Streamline-Phosphor-Fill" height="16" width="16">
  <desc>
    Campfire Fill Streamline Icon: https://streamlinehq.com
  </desc>
  <path d="M8.315875 0.2493375c-0.1937375 -0.11911875 -0.4380125 -0.11911875 -0.63175 0 -0.756475 0.49158125 -1.453875 1.06856875 -2.0784375 1.7195875 -1.39240625 1.44216875 -2.12894375 3.00796875 -2.12894375 4.5232625 0 3.482 3.76938125 5.65825625 6.7848875 3.91725625 1.3995 -0.80800625 2.261625 -2.30125625 2.261625 -3.91725625 0 -3.612575 -4.0355 -6.13730625 -4.20738125 -6.24285ZM8 9.80924375c-0.99928125 0.00004375 -1.80930625 -0.810025 -1.80930625 -1.80930625C6.19069375 6.1906375 8 4.98443125 8 4.98443125s1.8093 1.20620625 1.8093 3.01550625c0 0.99921875 -0.81008125 1.80925625 -1.8093 1.80930625Zm7.2085625 5.61034375c-0.10091875 0.31750625 -0.44016875 0.49304375 -0.75764375 0.39201875L8 13.7588 1.54908125 15.81160625c-0.44250625 0.140725 -0.87141875 -0.25034375 -0.7720375 -0.703925 0.04611875 -0.2105125 0.2010375 -0.380425 0.40640625 -0.4457375l4.82480625 -1.53565 -4.82480625 -1.5364c-0.44634375 -0.12775625 -0.587 -0.6907875 -0.2531875 -1.01345 0.16404375 -0.15856875 0.40353125 -0.2109875 0.61881875 -0.13545625L8 12.4930375l6.45091875 -2.05205c0.4380875 -0.1537 0.87828125 0.224475 0.79234375 0.680725 -0.04223125 0.2242125 -0.20736875 0.4054 -0.4267125 0.46818125l-4.8248125 1.5364 4.8248125 1.53565c0.31750625 0.10091875 0.4930375 0.44016875 0.3920125 0.75764375Z" stroke-width="0.0625"></path>
</svg>