<svg id="Chart-Bubble-Packed--Streamline-Carbon" xmlns="http://www.w3.org/2000/svg" viewBox="0 0 16 16" height="16" width="16">
  <desc>
    Chart Bubble Packed Streamline Icon: https://streamlinehq.com
  </desc>
  <defs></defs>
  <path d="M13.7661 8.5862A4.495 4.495 0 1 0 6.8037 2.94a2.99845 2.99845 0 1 0 -4.2782 3.67085 3.49835 3.49835 0 1 0 3.9971 5.7422A2.99905 2.99905 0 0 0 12.5 12c0 -0.0608 -0.0055 -0.12 -0.00905 -0.1797a1.74365 1.74365 0 1 0 1.275 -3.2341ZM10.5 2a3.5 3.5 0 1 1 -3.5 3.5 3.5039 3.5039 0 0 1 3.5 -3.5ZM4 2a2 2 0 1 1 -2 2 2.00225 2.00225 0 0 1 2 -2Zm5.5 12a2 2 0 1 1 2 -2 2.00225 2.00225 0 0 1 -2 2Z" fill="currentColor" stroke-width="0.5"></path>
  </path>
</svg>
