<svg id="Checkbox-Checked--Streamline-Carbon" xmlns="http://www.w3.org/2000/svg" viewBox="0 0 16 16" height="16" width="16">
  <desc>
    Checkbox Checked Streamline Icon: https://streamlinehq.com
  </desc>
  <defs></defs>
  <title>checkbox--checked</title>
  <path d="M13 2H3a1 1 0 0 0 -1 1v10a1 1 0 0 0 1 1h10a1 1 0 0 0 1 -1V3a1 1 0 0 0 -1 -1ZM3 13V3h10v10Z" fill="currentColor" stroke-width="0.5"></path>
  <path d="m7 10.75 -2.5 -2.48L5.295 7.5 7 9.175 10.705 5.5 11.5 6.29l-4.5 4.46z" fill="currentColor" stroke-width="0.5"></path>
  <path id="_Transparent_Rectangle_" d="M0 0h16v16H0Z" fill="none" stroke-width="0.5"></path>
</svg>