<svg id="Checkbox-Checked-Filled--Streamline-Carbon" xmlns="http://www.w3.org/2000/svg" viewBox="0 0 16 16" height="16" width="16">
  <desc>
    Checkbox Checked Filled Streamline Icon: https://streamlinehq.com
  </desc>
  <defs></defs>
  <title>checkbox--checked--filled</title>
  <path d="M13 2H3a1 1 0 0 0 -1 1v10a1 1 0 0 0 1 1h10a1 1 0 0 0 1 -1V3a1 1 0 0 0 -1 -1ZM7 10.75l-2.5 -2.47865L5.2954 7.5 7 9.1728 10.70435 5.5l0.7959 0.7886Z" fill="currentColor" stroke-width="0.5"></path>
  <path id="inner-path" d="m7 10.75 -2.5 -2.47865L5.2954 7.5 7 9.1728 10.70435 5.5l0.7959 0.7886Z" fill="none" stroke-width="0.5"></path>
  <path id="_Transparent_Rectangle_" d="M0 0h16v16H0Z" fill="none" stroke-width="0.5"></path>
</svg>