<svg xmlns="http://www.w3.org/2000/svg" viewBox="0 0 16 16" id="Money-Check--Streamline-Font-Awesome" height="16" width="16">
  <desc>
    Money Check Streamline Icon: https://streamlinehq.com
  </desc>
<!--! Font Awesome Free 6.5.2 by @fontawesome - https://fontawesome.com License - https://fontawesome.com/license/free (Icons: CC BY 4.0, Fonts: SIL OFL 1.1, Code: MIT License) Copyright 2024 Fonticons, Inc.-->
  <path d="M1.9022222222222223 2.7733333333333334c-0.9609444444444444 0 -1.7422222222222221 0.7812777777777777 -1.7422222222222221 1.7422222222222221v6.9688888888888885c0 0.9609444444444444 0.7812777777777777 1.7422222222222221 1.7422222222222221 1.7422222222222221h12.195555555555556c0.9609444444444444 0 1.7422222222222221 -0.7812777777777777 1.7422222222222221 -1.7422222222222221V4.515555555555555c0 -0.9609444444444444 -0.7812777777777777 -1.7422222222222221 -1.7422222222222221 -1.7422222222222221H1.9022222222222223Zm1.3066666666666666 4.355555555555556h4.355555555555556c0.23955555555555555 0 0.43555555555555553 0.19599999999999998 0.43555555555555553 0.43555555555555553S7.804 8 7.564444444444444 8h-4.355555555555556c-0.23955555555555555 0 -0.43555555555555553 -0.19599999999999998 -0.43555555555555553 -0.43555555555555553s0.19599999999999998 -0.43555555555555553 0.43555555555555553 -0.43555555555555553ZM2.7733333333333334 10.177777777777777c0 -0.23955555555555555 0.19599999999999998 -0.43555555555555553 0.43555555555555553 -0.43555555555555553h9.58222222222222c0.23955555555555555 0 0.43555555555555553 0.19599999999999998 0.43555555555555553 0.43555555555555553s-0.19599999999999998 0.43555555555555553 -0.43555555555555553 0.43555555555555553H3.2088888888888887c-0.23955555555555555 0 -0.43555555555555553 -0.19599999999999998 -0.43555555555555553 -0.43555555555555553Zm7.622222222222221 -4.79111111111111h2.177777777777778c0.3620555555555556 0 0.6533333333333333 0.2912777777777778 0.6533333333333333 0.6533333333333333v1.3066666666666666c0 0.3620555555555556 -0.2912777777777778 0.6533333333333333 -0.6533333333333333 0.6533333333333333h-2.177777777777778c-0.3620555555555556 0 -0.6533333333333333 -0.2912777777777778 -0.6533333333333333 -0.6533333333333333v-1.3066666666666666c0 -0.3620555555555556 0.2912777777777778 -0.6533333333333333 0.6533333333333333 -0.6533333333333333Z" fill="currentColor" stroke-width="0.0278"></path>
</svg>