<svg viewBox="0 0 16 16" fill="currentColor" xmlns="http://www.w3.org/2000/svg" id="Contacts-Book-Line--Streamline-Remix" height="16" width="16">
  <desc>
    Contacts Book Line Streamline Icon: https://streamlinehq.com
  </desc>
  <path d="M2 1.3333333333333333h10.669933333333333C13.404533333333333 1.3333333333333333 14 1.93214 14 2.6605333333333334v10.678933333333333C14 14.072466666666665 13.404933333333332 14.666666666666666 12.669933333333333 14.666666666666666H2V1.3333333333333333Zm2.6666666666666665 1.3333333333333333H3.333333333333333v10.666666666666666h1.3333333333333333V2.6666666666666665Zm1.3333333333333333 10.666666666666666h6.666666666666666V2.6666666666666665H6v10.666666666666666Zm1.3333333333333333 -2.6666666666666665c0 -1.1046 0.8954 -2 2 -2s2 0.8954 2 2h-4Zm2 -2.6666666666666665c-0.7363999999999999 0 -1.3333333333333333 -0.5969333333333333 -1.3333333333333333 -1.3333333333333333 0 -0.73638 0.5969333333333333 -1.3333333333333333 1.3333333333333333 -1.3333333333333333s1.3333333333333333 0.5969533333333332 1.3333333333333333 1.3333333333333333c0 0.7363999999999999 -0.5969333333333333 1.3333333333333333 -1.3333333333333333 1.3333333333333333Zm5.333333333333333 -4h1.3333333333333333v2.6666666666666665h-1.3333333333333333V4Zm0 4h1.3333333333333333v2.6666666666666665h-1.3333333333333333v-2.6666666666666665Z" stroke-width="0.6667"></path>
</svg>
