<svg id="Currency-Dollar--Streamline-Carbon" xmlns="http://www.w3.org/2000/svg" viewBox="0 0 16 16" height="16" width="16">
  <desc>
    Currency Dollar Streamline Icon: https://streamlinehq.com
  </desc>
  <defs></defs>
  <path d="M11.5 10.25755c0 -2.3076 -1.89 -2.57055 -3.40855 -2.7815 -1.655 -0.23045 -2.59145 -0.43 -2.59145 -1.855C5.5 4.42455 6.75355 4 7.8269 4a3.3769 3.3769 0 0 1 2.78405 1.31395l0.7781 -0.6279A4.3254 4.3254 0 0 0 8.5 3.0481V1.5h-1v1.511c-1.8076 0.1096 -3 1.13 -3 2.61 0 2.365 1.915 2.63135 3.45375 2.845C9.58 8.6924 10.5 8.8872 10.5 10.25755 10.5 11.7737 8.9337 12 8 12c-1.7147 0 -2.4391 -0.48195 -3.11095 -1.31395l-0.7781 0.6279A4.2191 4.2191 0 0 0 7.5 12.9824V14.5h1v-1.52245c1.8628 -0.1521 3 -1.1636 3 -2.72Z" fill="currentColor" stroke-width="0.5"></path>
  <path id="_Transparent_Rectangle_" d="M0 0h16v16H0Z" fill="none" stroke-width="0.5"></path>
</svg>