<svg id="Cut--Streamline-Carbon" xmlns="http://www.w3.org/2000/svg" viewBox="0 0 16 16" height="16" width="16">
  <desc>
    Cut Streamline Icon: https://streamlinehq.com
  </desc>
  <defs></defs>
  <title>cut</title>
  <path d="M13.25 9.815 10.12 8l3.13 -1.815a2.5 2.5 0 0 0 -0.605 -4.6A2.595 2.595 0 0 0 12 1.5a2.5 2.5 0 0 0 -2.165 3.765 2.5 2.5 0 0 0 1.195 1.05l-1.91 1.105L2 3.3 1.5 4.17 8.12 8 1.5 11.84l0.5 0.87 7.12 -4.13 1.91 1.105a2.5 2.5 0 0 0 -1.195 1.05A2.5 2.5 0 0 0 12 14.5a2.595 2.595 0 0 0 0.645 -0.085 2.5 2.5 0 0 0 0.605 -4.6Zm-2.55 -5.05a1.5 1.5 0 0 1 0.55 -2.06 1.5 1.5 0 0 1 2.05 0.555 1.5 1.5 0 0 1 -0.55 2.055 1.5 1.5 0 0 1 -2.05 -0.55Zm2.6 8a1.5 1.5 0 0 1 -2.05 0.555 1.5 1.5 0 0 1 -0.55 -2.06 1.5 1.5 0 0 1 2.05 -0.55 1.5 1.5 0 0 1 0.55 2.03Z" fill="currentColor" stroke-width="0.5"></path>
  <path id="_Transparent_Rectangle_" d="M0 0h16v16H0Z" fill="none" stroke-width="0.5"></path>
</svg>