<svg id="Data-Base--Streamline-Carbon" xmlns="http://www.w3.org/2000/svg" viewBox="0 0 16 16" height="16" width="16">
  <desc>
    Data Base Streamline Icon: https://streamlinehq.com
  </desc>
  <defs></defs>
  <title>data-base</title>
  <path d="M12 1.5H4a1 1 0 0 0 -1 1v11a1 1 0 0 0 1 1h8a1 1 0 0 0 1 -1V2.5a1 1 0 0 0 -1 -1Zm0 1v3H4V2.5ZM4 9.5v-3h8v3Zm0 4v-3h8v3Z" fill="currentColor" stroke-width="0.5"></path>
  <path d="M5 4a0.5 0.5 0 1 0 1 0 0.5 0.5 0 1 0 -1 0" fill="currentColor" stroke-width="0.5"></path>
  <path d="M5 8a0.5 0.5 0 1 0 1 0 0.5 0.5 0 1 0 -1 0" fill="currentColor" stroke-width="0.5"></path>
  <path d="M5 12a0.5 0.5 0 1 0 1 0 0.5 0.5 0 1 0 -1 0" fill="currentColor" stroke-width="0.5"></path>
  <path id="_Transparent_Rectangle_" d="M0 0h16v16H0Z" fill="none" stroke-width="0.5"></path>
</svg>