<svg id="Data-Table--Streamline-Carbon" xmlns="http://www.w3.org/2000/svg" viewBox="0 0 16 16" height="16" width="16">
  <desc>
    Data Table Streamline Icon: https://streamlinehq.com
  </desc>
  <defs></defs>
  <title>data-table</title>
  <path d="M4 9h2v1H4Z" fill="currentColor" stroke-width="0.5"></path>
  <path d="M7 9h2v1h-2Z" fill="currentColor" stroke-width="0.5"></path>
  <path d="M4 7h2v1H4Z" fill="currentColor" stroke-width="0.5"></path>
  <path d="M7 11h2v1h-2Z" fill="currentColor" stroke-width="0.5"></path>
  <path d="M10 7h2v1h-2Z" fill="currentColor" stroke-width="0.5"></path>
  <path d="M10 11h2v1h-2Z" fill="currentColor" stroke-width="0.5"></path>
  <path d="M13.5 1.5H2.5a1.00125 1.00125 0 0 0 -1 1v11a1.00125 1.00125 0 0 0 1 1h11a1.00125 1.00125 0 0 0 1 -1V2.5a1.00125 1.00125 0 0 0 -1 -1Zm0 1 0 2H2.5V2.5ZM2.5 13.5V5.5h11l0 8Z" fill="currentColor" stroke-width="0.5"></path>
  <path id="_Transparent_Rectangle_" d="M0 0h16v16H0Z" fill="none" stroke-width="0.5"></path>
</svg>