<svg id="Data-Format--Streamline-Carbon" xmlns="http://www.w3.org/2000/svg" viewBox="0 0 16 16" height="16" width="16">
  <desc>
    Data Format Streamline Icon: https://streamlinehq.com
  </desc>
  <defs></defs>
  <path d="M9 5.5h4v1h-4Z" fill="currentColor" stroke-width="0.5"></path>
  <path d="M3 9.5h4v1H3Z" fill="currentColor" stroke-width="0.5"></path>
  <path d="M5 8a2 2 0 1 1 2 -2 2.00225 2.00225 0 0 1 -2 2Zm0 -3a1 1 0 1 0 1 1 1.001 1.001 0 0 0 -1 -1Z" fill="currentColor" stroke-width="0.5"></path>
  <path d="M11 12a2 2 0 1 1 2 -2 2.00225 2.00225 0 0 1 -2 2Zm0 -3a1 1 0 1 0 1 1 1.001 1.001 0 0 0 -1 -1Z" fill="currentColor" stroke-width="0.5"></path>
  <path d="M14 15H2a1.00105 1.00105 0 0 1 -1 -1V2a1.00105 1.00105 0 0 1 1 -1h12a1.00105 1.00105 0 0 1 1 1v12a1.00105 1.00105 0 0 1 -1 1ZM2 2v12h12V2Z" fill="currentColor" stroke-width="0.5"></path>
  <path id="_Transparent_Rectangle_" d="M0 0h16v16H0Z" fill="none" stroke-width="0.5"></path>
</svg>