<svg id="Diagram--Streamline-Carbon" xmlns="http://www.w3.org/2000/svg" viewBox="0 0 16 16" height="16" width="16">
  <desc>
    Diagram Streamline Icon: https://streamlinehq.com
  </desc>
  <defs></defs>
  <title>diagram</title>
  <path d="M6.5 15a5.5 5.5 0 0 1 0 -11 0.5 0.5 0 0 1 0.5 0.5v4.5h4.5a0.5 0.5 0 0 1 0.5 0.5 5.5 5.5 0 0 1 -5.5 5.5Zm-0.5 -9.97A4.5 4.5 0 1 0 10.97 10H7a1 1 0 0 1 -1 -1Z" fill="currentColor" stroke-width="0.5"></path>
  <path d="M14 7h-4.5a1 1 0 0 1 -1 -1V1.5a0.5 0.5 0 0 1 0.5 -0.5 5.5 5.5 0 0 1 5.5 5.5 0.5 0.5 0 0 1 -0.5 0.5Zm-4.5 -1h3.97A4.5 4.5 0 0 0 9.5 2.03Z" fill="currentColor" stroke-width="0.5"></path>
  <path id="_Transparent_Rectangle_" d="M0 0h16v16H0Z" fill="none" stroke-width="0.5"></path>
</svg>