<svg xmlns="http://www.w3.org/2000/svg" viewBox="0 0 16 16" id="Cc-Discover--Streamline-Font-Awesome" height="16" width="16">
  <desc>
    Cc Discover Streamline Icon: https://streamlinehq.com
  </desc>
<!--! Font Awesome Free 6.5.2 by @fontawesome - https://fontawesome.com License - https://fontawesome.com/license/free (Icons: CC BY 4.0, Fonts: SIL OFL 1.1, Code: MIT License) Copyright 2024 Fonticons, Inc.-->
  <path d="M14.326444444444443 6.3693888888888885c0 -0.21505555555555556 -0.1497222222222222 -0.3293888888888889 -0.42466666666666664 -0.3293888888888889h-0.13338888888888886v0.6778333333333333h0.12794444444444444c0.28038888888888885 0 0.4301111111111111 -0.11977777777777777 0.4301111111111111 -0.34844444444444445ZM14.533333333333333 1.9022222222222223H1.4666666666666666c-0.7213888888888889 0 -1.3066666666666666 0.5852777777777778 -1.3066666666666666 1.3066666666666666v9.58222222222222c0 0.7213888888888889 0.5852777777777778 1.3066666666666666 1.3066666666666666 1.3066666666666666h13.066666666666665c0.7213888888888889 0 1.3066666666666666 -0.5852777777777778 1.3066666666666666 -1.3066666666666666V3.2088888888888887c0 -0.7213888888888889 -0.5852777777777778 -1.3066666666666666 -1.3066666666666666 -1.3066666666666666Zm-1.2005000000000001 3.781166666666667c0.6152222222222222 0 1.4400555555555554 -0.1116111111111111 1.4400555555555554 0.6642222222222222 0 0.343 -0.17966666666666667 0.5635 -0.5090555555555556 0.6315555555555555l0.7023333333333333 0.9364444444444445h-0.5335555555555554l-0.6043333333333333 -0.8928888888888888h-0.05988888888888889v0.8928888888888888h-0.43555555555555553Zm-1.521722222222222 0.0027222222222222222h1.2331666666666665v0.3811111111111111H12.246666666666666v0.49544444444444435h0.7703888888888889v0.37566666666666665H12.246666666666666v0.6043333333333333h0.797611111111111v0.37566666666666665H11.81111111111111Zm-1.8701666666666663 0 0.5961666666666666 1.5026666666666666 0.6043333333333333 -1.5026666666666666h0.4763888888888888l-0.9663888888888889 2.292111111111111h-0.23411111111111113l-0.9527777777777776 -2.292111111111111Zm-1.521722222222222 -0.08166666666666667c0.6723888888888888 0 1.214111111111111 0.5444444444444445 1.214111111111111 1.214111111111111 0 0.6723888888888888 -0.5444444444444445 1.214111111111111 -1.214111111111111 1.214111111111111 -0.6723888888888888 0 -1.214111111111111 -0.5444444444444445 -1.214111111111111 -1.214111111111111 0 -0.6723888888888888 0.5444444444444445 -1.214111111111111 1.214111111111111 -1.214111111111111Zm-1.3420555555555556 0.16605555555555554v0.5172222222222222c-0.5471666666666667 -0.5471666666666667 -1.2739999999999998 -0.12794444444444444 -1.2739999999999998 0.5172222222222222 0 0.6805555555555555 0.748611111111111 1.0480555555555555 1.2739999999999998 0.5226666666666666v0.5172222222222222c-0.8085 0.3892777777777777 -1.7231666666666665 -0.15516666666666667 -1.7231666666666665 -1.0398888888888889 0 -0.8493333333333333 0.9010555555555556 -1.4427777777777777 1.7231666666666665 -1.0344444444444445Zm-2.646 1.8048333333333333c0.31033333333333335 0 0.6097777777777778 -0.4165 -0.08983333333333333 -0.6642222222222222 -0.40833333333333327 -0.1497222222222222 -0.5498888888888889 -0.31033333333333335 -0.5498888888888889 -0.6179444444444444 0 -0.6315555555555555 0.833 -0.8547777777777776 1.3529444444444445 -0.3892777777777777l-0.22866666666666663 0.294c-0.2831111111111111 -0.31577777777777777 -0.6778333333333333 -0.16877777777777775 -0.6778333333333333 0.06805555555555556 0 0.11977777777777777 0.0735 0.18783333333333332 0.3348333333333333 0.28038888888888885 0.49544444444444435 0.17966666666666667 0.6424444444444444 0.34027777777777773 0.6424444444444444 0.6968888888888889 0 0.8030555555555555 -1.0562222222222222 1.0181111111111112 -1.5407777777777778 0.3076111111111111l0.28038888888888885 -0.26949999999999996c0.10072222222222221 0.19327777777777777 0.26949999999999996 0.294 0.4763888888888888 0.294Zm-2.7630555555555554 0.343H1.031111111111111V5.686111111111111h0.6369999999999999c0.7104999999999999 0 1.2005000000000001 0.46277777777777773 1.2005000000000001 1.1188333333333331 0 0.503611111111111 -0.35933333333333334 1.1133888888888888 -1.2005000000000001 1.1133888888888888Zm1.8375000000000001 0h-0.43555555555555553V5.686111111111111h0.43555555555555553Zm11.463277777777778 4.8999999999999995c0 0.2232222222222222 -0.1851111111111111 0.40833333333333327 -0.40833333333333327 0.40833333333333327H3.644444444444444c5.161333333333332 -0.969111111111111 10.417944444444444 -3.789333333333333 11.324444444444444 -4.355555555555556ZM2.1771666666666665 6.246888888888889c-0.14155555555555555 -0.13338888888888886 -0.31577777777777777 -0.17966666666666667 -0.5961666666666666 -0.17966666666666667H1.4666666666666666v1.4754444444444443h0.11433333333333331c0.28038888888888885 0 0.46277777777777773 -0.05444444444444444 0.5961666666666666 -0.17422222222222222 0.15516666666666667 -0.14155555555555555 0.24227777777777776 -0.34844444444444445 0.24227777777777776 -0.5635s-0.08711111111111111 -0.4219444444444444 -0.24227777777777776 -0.5580555555555555Z" fill="currentColor" stroke-width="0.0278"></path>
</svg>