<svg id="Distribute-Vertical-Center--Streamline-Carbon" xmlns="http://www.w3.org/2000/svg" viewBox="0 0 16 16" height="16" width="16">
  <desc>
    Distribute Vertical Center Streamline Icon: https://streamlinehq.com
  </desc>
  <defs></defs>
  <title>distribute--vertical-center</title>
  <path d="M15 10.5h-2v-0.5a1.00115 1.00115 0 0 0 -1 -1H4a1.00115 1.00115 0 0 0 -1 1v0.5H1v1h2v0.5a1.00115 1.00115 0 0 0 1 1h8a1.00115 1.00115 0 0 0 1 -1v-0.5h2Zm-3 1.5H4v-2l8 -0.0005Z" fill="currentColor" stroke-width="0.5"></path>
  <path d="M15 4.5h-4V4a1.00115 1.00115 0 0 0 -1 -1h-4a1.00115 1.00115 0 0 0 -1 1v0.5H1v1h4v0.5a1.00115 1.00115 0 0 0 1 1h4a1.00115 1.00115 0 0 0 1 -1v-0.5h4Zm-5 1.5h-4V4l4 -0.0005Z" fill="currentColor" stroke-width="0.5"></path>
  <path id="_Transparent_Rectangle_" d="M0 0h16v16H0Z" fill="none" stroke-width="0.5"></path>
</svg>