<svg id="Distribute-Horizontal-Center--Streamline-Carbon" xmlns="http://www.w3.org/2000/svg" viewBox="0 0 16 16" height="16" width="16">
  <desc>
    Distribute Horizontal Center Streamline Icon: https://streamlinehq.com
  </desc>
  <defs></defs>
  <title>distribute--horizontal-center</title>
  <path d="M12 5h-0.5V1h-1v4h-0.5a1.00115 1.00115 0 0 0 -1 1v4a1.00115 1.00115 0 0 0 1 1h0.5v4h1v-4h0.5a1.00115 1.00115 0 0 0 1 -1v-4a1.00115 1.00115 0 0 0 -1 -1Zm0 5h-2v-4h2Z" fill="currentColor" stroke-width="0.5"></path>
  <path d="M6 3h-0.5V1H4.5v2H4a1.00115 1.00115 0 0 0 -1 1v8a1.00115 1.00115 0 0 0 1 1h0.5v2h1v-2h0.5a1.00115 1.00115 0 0 0 1 -1V4a1.00115 1.00115 0 0 0 -1 -1Zm0 9H4V4h2Z" fill="currentColor" stroke-width="0.5"></path>
  <path id="_Transparent_Rectangle_" d="M0 0h16v16H0Z" fill="none" stroke-width="0.5"></path>
</svg>