<svg id="Distribute-Vertical-Bottom--Streamline-Carbon" xmlns="http://www.w3.org/2000/svg" viewBox="0 0 16 16" height="16" width="16">
  <desc>
    Distribute Vertical Bottom Streamline Icon: https://streamlinehq.com
  </desc>
  <defs></defs>
  <title>distribute--vertical-bottom</title>
  <path d="M1 14h14v1H1Z" fill="currentColor" stroke-width="0.5"></path>
  <path d="M12 13H4a1.00105 1.00105 0 0 1 -1 -1v-2a1.00105 1.00105 0 0 1 1 -1h8a1.00105 1.00105 0 0 1 1 1v2a1.00105 1.00105 0 0 1 -1 1Zm0 -3.0006L4 10v2h8Z" fill="currentColor" stroke-width="0.5"></path>
  <path d="M1 6h14v1H1Z" fill="currentColor" stroke-width="0.5"></path>
  <path d="M10 5h-4a1.00105 1.00105 0 0 1 -1 -1V2a1.00105 1.00105 0 0 1 1 -1h4a1.00105 1.00105 0 0 1 1 1v2a1.00105 1.00105 0 0 1 -1 1Zm0 -3.0006L6 2v2h4Z" fill="currentColor" stroke-width="0.5"></path>
  <path id="_Transparent_Rectangle_" d="M0 0h16v16H0Z" fill="none" stroke-width="0.5"></path>
</svg>