<svg id="Distribute-Horizontal-Right--Streamline-Carbon" xmlns="http://www.w3.org/2000/svg" viewBox="0 0 16 16" height="16" width="16">
  <desc>
    Distribute Horizontal Right Streamline Icon: https://streamlinehq.com
  </desc>
  <defs></defs>
  <title>distribute--horizontal-right</title>
  <path d="M14 1h1v14h-1Z" fill="currentColor" stroke-width="0.5"></path>
  <path d="M12 11h-2a1.00105 1.00105 0 0 1 -1 -1v-4a1.00105 1.00105 0 0 1 1 -1h2a1.00105 1.00105 0 0 1 1 1v4a1.00105 1.00105 0 0 1 -1 1Zm-2 -5h-0.00075L10 10h2v-4Z" fill="currentColor" stroke-width="0.5"></path>
  <path d="M6 1h1v14h-1Z" fill="currentColor" stroke-width="0.5"></path>
  <path d="M4 13H2a1.00105 1.00105 0 0 1 -1 -1V4a1.00105 1.00105 0 0 1 1 -1h2a1.00105 1.00105 0 0 1 1 1v8a1.00105 1.00105 0 0 1 -1 1ZM2 4h-0.00075L2 12h2V4Z" fill="currentColor" stroke-width="0.5"></path>
  <path id="_Transparent_Rectangle_" d="M0 0h16v16H0Z" fill="none" stroke-width="0.5"></path>
</svg>