<svg id="Distribute-Horizontal-Left--Streamline-Carbon" xmlns="http://www.w3.org/2000/svg" viewBox="0 0 16 16" height="16" width="16">
  <desc>
    Distribute Horizontal Left Streamline Icon: https://streamlinehq.com
  </desc>
  <defs></defs>
  <title>distribute--horizontal-left</title>
  <path d="M14 11h-2a1.00105 1.00105 0 0 1 -1 -1v-4a1.00105 1.00105 0 0 1 1 -1h2a1.00105 1.00105 0 0 1 1 1v4a1.00105 1.00105 0 0 1 -1 1Zm-2 -5v4h2v-4Z" fill="currentColor" stroke-width="0.5"></path>
  <path d="M9 1h1v14h-1Z" fill="currentColor" stroke-width="0.5"></path>
  <path d="M6 13H4a1.00105 1.00105 0 0 1 -1 -1V4a1.00105 1.00105 0 0 1 1 -1h2a1.00105 1.00105 0 0 1 1 1v8a1.00105 1.00105 0 0 1 -1 1ZM4 4v8h2V4Z" fill="currentColor" stroke-width="0.5"></path>
  <path d="M1 1h1v14H1Z" fill="currentColor" stroke-width="0.5"></path>
  <path id="_Transparent_Rectangle_" d="M0 0h16v16H0Z" fill="none" stroke-width="0.5"></path>
</svg>