<svg id="Doc--Streamline-Carbon" xmlns="http://www.w3.org/2000/svg" viewBox="0 0 16 16" height="16" width="16">
  <desc>
    DOC Streamline Icon: https://streamlinehq.com
  </desc>
  <defs></defs>
  <title>DOC</title>
  <path d="M15 11.5h-3a1.00115 1.00115 0 0 1 -1 -1V5.5a1.001 1.001 0 0 1 1 -1h3v1h-3v5h3Z" fill="currentColor" stroke-width="0.5"></path>
  <path d="M9 11.5h-2a1.00115 1.00115 0 0 1 -1 -1V5.5a1.001 1.001 0 0 1 1 -1h2a1.001 1.001 0 0 1 1 1v5a1.00115 1.00115 0 0 1 -1 1Zm-2 -6v5h2V5.5Z" fill="currentColor" stroke-width="0.5"></path>
  <path d="M3 11.5H1V4.5h2a2.00225 2.00225 0 0 1 2 2v3a2.00225 2.00225 0 0 1 -2 2Zm-1 -1h1a1.001 1.001 0 0 0 1 -1v-3a1.001 1.001 0 0 0 -1 -1H2Z" fill="currentColor" stroke-width="0.5"></path>
  <path id="_Transparent_Rectangle_" d="M0 0h16v16H0Z" fill="none" stroke-width="0.5"></path>
</svg>