<svg id="Document-Import--Streamline-Carbon" xmlns="http://www.w3.org/2000/svg" viewBox="0 0 16 16" height="16" width="16">
  <desc>
    Document Import Streamline Icon: https://streamlinehq.com
  </desc>
  <defs></defs>
  <title>document--import</title>
  <path d="m14 9.5 -6.585 0 1.29 -1.295L8 7.5l-2.5 2.5 2.5 2.5 0.705 -0.705L7.415 10.5 14 10.5l0 -1z" fill="currentColor" stroke-width="0.5"></path>
  <path d="M12 7v-2a0.5 0.5 0 0 0 -0.145 -0.355l-3.5 -3.5A0.5 0.5 0 0 0 8 1H3a1 1 0 0 0 -1 1v12a1 1 0 0 0 1 1h8a1 1 0 0 0 1 -1v-1h-1v1H3V2h4v3a1 1 0 0 0 1 1h3v1Zm-4 -2V2.205L10.795 5Z" fill="currentColor" stroke-width="0.5"></path>
  </path>
</svg>
