<svg id="Document-Blank--Streamline-Carbon" xmlns="http://www.w3.org/2000/svg" viewBox="0 0 16 16" height="16" width="16">
  <desc>
    Document Blank Streamline Icon: https://streamlinehq.com
  </desc>
  <defs></defs>
  <title>document--blank</title>
  <path d="m12.85 4.65 -3.5 -3.5A0.4539 0.4539 0 0 0 9 1H4a1.00295 1.00295 0 0 0 -1 1v12a1.00295 1.00295 0 0 0 1 1h8a1.00295 1.00295 0 0 0 1 -1V5a0.4539 0.4539 0 0 0 -0.15 -0.35ZM9 2.2l2.8 2.8H9ZM12 14H4V2h4v3a1.00295 1.00295 0 0 0 1 1h3Z" fill="currentColor" stroke-width="0.5"></path>
  <path id="_Transparent_Rectangle_" d="M0 0h16v16H0Z" fill="none" stroke-width="0.5"></path>
</svg>