<svg id="Document-Attachment--Streamline-Carbon" xmlns="http://www.w3.org/2000/svg" viewBox="0 0 16 16" height="16" width="16">
  <desc>
    Document Attachment Streamline Icon: https://streamlinehq.com
  </desc>
  <defs></defs>
  <path d="M13 15H5.5a1.00115 1.00115 0 0 1 -1 -1v-3h1v3h7.5V3h-4.5V2h4.5a1.00115 1.00115 0 0 1 1 1v11a1.00115 1.00115 0 0 1 -1 1Z" fill="currentColor" stroke-width="0.5"></path>
  <path d="M8.5 5h3.5v1h-3.5Z" fill="currentColor" stroke-width="0.5"></path>
  <path d="M8 7.5h4v1h-4Z" fill="currentColor" stroke-width="0.5"></path>
  <path d="M7.5 10h4.5v1h-4.5Z" fill="currentColor" stroke-width="0.5"></path>
  <path d="M4.5 9.5a2.50275 2.50275 0 0 1 -2.5 -2.5V1.5h1v5.5a1.5 1.5 0 0 0 3 0V2.5a0.5 0.5 0 0 0 -1 0v5H4V2.5a1.5 1.5 0 0 1 3 0v4.5a2.50275 2.50275 0 0 1 -2.5 2.5Z" fill="currentColor" stroke-width="0.5"></path>
  <path id="_Transparent_Rectangle_" d="M0 0h16v16H0Z" fill="none" stroke-width="0.5"></path>
</svg>