<svg id="Document-Pdf--Streamline-Carbon" xmlns="http://www.w3.org/2000/svg" viewBox="0 0 16 16" height="16" width="16">
  <desc>
    Document Pdf Streamline Icon: https://streamlinehq.com
  </desc>
  <defs></defs>
  <title>document--pdf</title>
  <path d="m15 9 0 -1 -3 0 0 5 1 0 0 -2 1.5 0 0 -1 -1.5 0 0 -1 2 0z" fill="currentColor" stroke-width="0.5"></path>
  <path d="M9.5 13h-2V8h2a1.50165 1.50165 0 0 1 1.5 1.5v2a1.50165 1.50165 0 0 1 -1.5 1.5Zm-1 -1h1a0.50055 0.50055 0 0 0 0.5 -0.5v-2a0.50055 0.50055 0 0 0 -0.5 -0.5h-1Z" fill="currentColor" stroke-width="0.5"></path>
  <path d="M5.5 8H3v5h1v-1.5h1.5a1.00135 1.00135 0 0 0 1 -1v-1.5a1.00115 1.00115 0 0 0 -1 -1Zm-1.5 2.5v-1.5h1.5l0.0005 1.5Z" fill="currentColor" stroke-width="0.5"></path>
  <path d="M11 7v-2a0.4546 0.4546 0 0 0 -0.15 -0.35l-3.5 -3.5A0.45435 0.45435 0 0 0 7 1H2a1.00295 1.00295 0 0 0 -1 1v12a1 1 0 0 0 1 1h8v-1H2V2h4v3a1.00295 1.00295 0 0 0 1 1h3v1Zm-4 -2V2.2l2.8 2.8Z" fill="currentColor" stroke-width="0.5"></path>
  <path id="_Transparent_Rectangle_" d="M0 0h16v16H0Z" fill="none" stroke-width="0.5"></path>
</svg>