<svg version="1.1" id="Document--Streamline-Carbon" xmlns="http://www.w3.org/2000/svg" xmlns:xlink="http://www.w3.org/1999/xlink" x="0" y="0" viewBox="0 0 16 16" xml:space="preserve" enable-background="new 0 0 32 32" height="16" width="16">
  <desc>
    Document Streamline Icon: https://streamlinehq.com
  </desc>
  <title>document</title>
  <path d="m12.85 4.65 -3.5 -3.5c-0.1 -0.1 -0.2 -0.15 -0.35 -0.15H4c-0.55 0 -1 0.45 -1 1v12c0 0.55 0.45 1 1 1h8c0.55 0 1 -0.45 1 -1V5c0 -0.15 -0.05 -0.25 -0.15 -0.35zM9 2.2l2.8 2.8H9V2.2zM12 14H4V2h4v3c0 0.55 0.45 1 1 1h3v8z" fill="currentColor" stroke-width="0.5"></path>
  <path d="M5 11h6v1H5Z" fill="currentColor" stroke-width="0.5"></path>
  <path d="M5 8h6v1H5Z" fill="currentColor" stroke-width="0.5"></path>
  <path d="M0 0h16v16H0Z" fill="none" stroke-width="0.5"></path>
</svg>