<svg id="Donut--Streamline-Atlas" xmlns="http://www.w3.org/2000/svg" viewBox="-0.5 -0.5 16 16" height="16" width="16">
  <desc>
    Donut Streamline Icon: https://streamlinehq.com
  </desc>
  <defs></defs>
  <path d="M0.9375 7.5a6.5625 6.5625 0 1 0 13.125 0 6.5625 6.5625 0 1 0 -13.125 0" fill="none" stroke="currentColor" stroke-miterlimit="10" stroke-width="1"></path>
  <path d="M5.7125 7.5a1.7874999999999999 1.7874999999999999 0 1 0 3.5749999999999997 0 1.7874999999999999 1.7874999999999999 0 1 0 -3.5749999999999997 0" fill="none" stroke="currentColor" stroke-miterlimit="10" stroke-width="1"></path>
  <path d="m12.86875 7.5 -1.1937499999999999 1.1937499999999999" fill="none" stroke="currentColor" stroke-miterlimit="10" stroke-width="1"></path>
  <path d="m9.8875 3.9187499999999997 1.1937499999999999 0.6" fill="none" stroke="currentColor" stroke-miterlimit="10" stroke-width="1"></path>
  <path d="m3.9187499999999997 5.1125 0 1.1937499999999999" fill="none" stroke="currentColor" stroke-miterlimit="10" stroke-width="1"></path>
  <path d="m2.725 8.09375 1.1937499999999999 1.1937499999999999" fill="none" stroke="currentColor" stroke-miterlimit="10" stroke-width="1"></path>
  <path d="m5.7125 12.275 1.7874999999999999 0" fill="none" stroke="currentColor" stroke-miterlimit="10" stroke-width="1"></path>
  <path d="m9.8875 10.48125 0 1.1937499999999999" fill="none" stroke="currentColor" stroke-miterlimit="10" stroke-width="1"></path>
  <path d="M6.30625 3.325 7.5 2.725" fill="none" stroke="currentColor" stroke-miterlimit="10" stroke-width="1"></path>
</svg>