<svg id="Email-New--Streamline-Carbon" xmlns="http://www.w3.org/2000/svg" viewBox="0 0 16 16" height="16" width="16">
  <desc>
    Email New Streamline Icon: https://streamlinehq.com
  </desc>
  <defs></defs>
  <title>email--new</title>
  <path d="M9.5 12H2L1.9983 4.4531l5.71705 3.95805a0.5004 0.5004 0 0 0 0.5693 0L14 4.45435 14 9h1V4a1.00135 1.00135 0 0 0 -1 -1H2a1.00115 1.00115 0 0 0 -1 1v8a1.00135 1.00135 0 0 0 1 1h7.5Zm3.3993 -8L8 7.39185 3.1007 4Z" fill="currentColor" stroke-width="0.5"></path>
  <path d="M11 12a2 2 0 1 0 4 0 2 2 0 1 0 -4 0" fill="currentColor" stroke-width="0.5"></path>
  <path id="_Transparent_Rectangle_" d="M0 0h16v16H0Z" fill="none" stroke-width="0.5"></path>
</svg>