<svg id="Email--Streamline-Carbon" xmlns="http://www.w3.org/2000/svg" viewBox="0 0 16 16" height="16" width="16">
  <desc>
    Email Streamline Icon: https://streamlinehq.com
  </desc>
  <defs></defs>
  <title>email</title>
  <path d="M14 3H2a1 1 0 0 0 -1 1v8a1 1 0 0 0 1 1h12a1 1 0 0 0 1 -1V4a1 1 0 0 0 -1 -1Zm-1.1 1L8 7.39 3.1 4ZM2 12V4.455l5.715 3.955a0.5 0.5 0 0 0 0.57 0L14 4.455V12Z" fill="currentColor" stroke-width="0.5"></path>
  <path id="_Transparent_Rectangle_" d="M0 0h16v16H0Z" fill="none" stroke-width="0.5"></path>
</svg>