<svg viewBox="-0.5 -0.5 16 16" fill="none" xmlns="http://www.w3.org/2000/svg" id="Emoji--Streamline-Iconoir" height="16" width="16">
  <desc>
    Emoji Streamline Icon: https://streamlinehq.com
  </desc>
  <path d="M7.5 14.337187499999999C3.7239375000000003 14.337187499999999 0.6628125 11.276062499999998 0.6628125 7.5 0.6628125 3.7239375000000003 3.7239375000000003 0.6628125 7.5 0.6628125c3.7760624999999997 0 6.837187500000001 3.061125 6.837187500000001 6.837187500000001 0 3.7760624999999997 -3.061125 6.837187500000001 -6.837187500000001 6.837187500000001Z" stroke="currentColor" stroke-linecap="round" stroke-linejoin="round" stroke-width="1"></path>
  <path d="M10.576749999999999 9.2093125S9.551187500000001 10.576749999999999 7.5 10.576749999999999s-3.0767499999999997 -1.3674374999999999 -3.0767499999999997 -1.3674374999999999" stroke="currentColor" stroke-linecap="round" stroke-linejoin="round" stroke-width="1"></path>
  <path d="M9.892999999999999 5.4488125c-0.18875 0 -0.3418125 -0.1530625 -0.3418125 -0.3418125s0.1530625 -0.34187500000000004 0.3418125 -0.34187500000000004 0.34187500000000004 0.1530625 0.34187500000000004 0.34187500000000004 -0.1530625 0.3418125 -0.34187500000000004 0.3418125Z" fill="currentColor" stroke="currentColor" stroke-linecap="round" stroke-linejoin="round" stroke-width="1"></path>
  <path d="M5.107 5.4488125c-0.1888125 0 -0.34187500000000004 -0.1530625 -0.34187500000000004 -0.3418125s0.1530625 -0.34187500000000004 0.34187500000000004 -0.34187500000000004 0.3418125 0.1530625 0.3418125 0.34187500000000004 -0.1530625 0.3418125 -0.3418125 0.3418125Z" fill="currentColor" stroke="currentColor" stroke-linecap="round" stroke-linejoin="round" stroke-width="1"></path>
</svg>