<svg xmlns="http://www.w3.org/2000/svg" fill="none" viewBox="0 0 24 24" height="24" width="24">
  <g id="event-repeat">
    <path id="Union" fill="#000000" d="M17 12c2.7614 0 5 2.2386 5 5s-2.2386 5 -5 5c-1.2673 0 -2.4268 -0.4726 -3.3076 -1.25 -0.4141 -0.3655 -0.4534 -0.998 -0.0879 -1.4121 0.3654 -0.4138 0.9971 -0.453 1.4111 -0.0879 0.5295 0.4673 1.2229 0.75 1.9844 0.75 1.6569 0 3 -1.3431 3 -3s-1.3431 -3 -3 -3c-0.955 0 -1.8058 0.4476 -2.3555 1.1445l1.002 1.002c0.3149 0.315 0.0919 0.8534 -0.3535 0.8535H12c-0.2761 0 -0.5 -0.2239 -0.5 -0.5v-3.293c0.0001 -0.4454 0.5385 -0.6684 0.8535 -0.3535l0.8701 0.8701C14.14 12.6683 15.4913 12 17 12M14 2c0.5523 0 1 0.44772 1 1v0.5c1.1046 0 2 0.89543 2 2V10h-2V9H4v7h5.5v2H4c-1.10457 0 -2 -0.8954 -2 -2V5.5c0 -1.10457 0.89543 -2 2 -2V3c0 -0.55228 0.44772 -1 1 -1s1 0.44772 1 1v0.5h7V3c0 -0.55228 0.4477 -1 1 -1M4 7h11V5.5H4z" stroke-width="1"></path>
  </g>
</svg>