<svg id="Event-Schedule--Streamline-Carbon" xmlns="http://www.w3.org/2000/svg" viewBox="0 0 16 16" height="16" width="16">
  <desc>
    Event Schedule Streamline Icon: https://streamlinehq.com
  </desc>
  <defs></defs>
  <title>event-schedule</title>
  <path d="M10.5 15a4 4 0 1 1 4 -4 4 4 0 0 1 -4 4Zm0 -7a3 3 0 1 0 3 3 3 3 0 0 0 -3 -3Z" fill="currentColor" stroke-width="0.5"></path>
  <path d="M11.295 12.5 10 11.205 10 9l1 0 0 1.795 1 1L11.295 12.5z" fill="currentColor" stroke-width="0.5"></path>
  <path d="M14 3a1 1 0 0 0 -1 -1h-2V1h-1v1h-4V1h-1v1H3a1 1 0 0 0 -1 1v10a1 1 0 0 0 1 1h2v-1H3V3h2v1h1V3h4v1h1V3h2v3h1Z" fill="currentColor" stroke-width="0.5"></path>
  <path id="_Transparent_Rectangle_" d="M0 0h16v16H0Z" fill="none" stroke-width="0.5"></path>
</svg>