<svg id="Logo-Facebook--Streamline-Carbon" xmlns="http://www.w3.org/2000/svg" viewBox="0 0 16 16" height="16" width="16">
  <desc>
    Logo Facebook Streamline Icon: https://streamlinehq.com
  </desc>
  <defs></defs>
  <title>logo--facebook</title>
  <path d="M13.335 2H2.665A0.67 0.67 0 0 0 2 2.665v10.67A0.67 0.67 0 0 0 2.665 14h5.745v-4.64H6.85v-1.815h1.56v-1.335c0 -1.55 0.945 -2.395 2.335 -2.395 0.465 0 0.93 0 1.395 0.07V5.5h-0.955c-0.755 0 -0.9 0.36 -0.9 0.885v1.155h1.8l-0.235 1.815h-1.565V14h3.05A0.67 0.67 0 0 0 14 13.335V2.665A0.67 0.67 0 0 0 13.335 2Z" fill="currentColor" stroke-width="0.5"></path>
  <path id="_Transparent_Rectangle_" d="M0 0h16v16H0Z" fill="none" stroke-width="0.5"></path>
</svg>