<svg xmlns="http://www.w3.org/2000/svg" fill="none" viewBox="0 0 24 24" height="24" width="24">
  <g id="face-scan-circle-fill">
    <path id="Union" fill="currentColor" d="M4.25098 13.9999c0.72346 2.8112 2.93695 5.0234 5.74804 5.747v2.0518c-3.91812 -0.7955 -7.00451 -3.8806 -7.7998 -7.7988zm17.54782 0c-0.7953 3.9182 -3.8815 7.0034 -7.7998 7.7988v-2.0518c2.8112 -0.7235 5.0246 -2.9358 5.7481 -5.747zm-5.7734 1.6064C14.989 16.6222 13.5668 17.2509 12 17.2509s-2.98902 -0.6287 -4.02539 -1.6446l1.05078 -1.0703c0.76731 0.7519 1.81631 1.2149 2.97461 1.2149s2.2073 -0.463 2.9746 -1.2149zM12.75 13.2499H9.5v-1.5h1.75V7.49988h1.5zM9.99902 4.25183c-2.81114 0.72357 -5.02447 2.93691 -5.74804 5.74805H2.19922c0.7954 -3.91814 3.88167 -7.0044 7.7998 -7.79981zM13.999 2.20007c3.9183 0.7953 7.0044 3.8816 7.7998 7.79981h-2.0517c-0.7236 -2.81121 -2.9368 -5.02456 -5.7481 -5.74805zM8 7.49988c0.55224 0 0.99993 0.44777 1 1 0 0.55228 -0.44772 1 -1 1s-1 -0.44772 -1 -1c0.00007 -0.55223 0.44776 -1 1 -1m8 0c0.5522 0 0.9999 0.44777 1 1 0 0.55228 -0.4477 1 -1 1s-1 -0.44772 -1 -1c0.0001 -0.55223 0.4478 -1 1 -1" stroke-width="1"></path>
  </g>
</svg>