<svg id="Finance--Streamline-Carbon" xmlns="http://www.w3.org/2000/svg" viewBox="0 0 16 16" height="16" width="16">
  <desc>
    Finance Streamline Icon: https://streamlinehq.com
  </desc>
  <defs></defs>
  <title>finance</title>
  <path d="M1 14h14v1H1Z" fill="currentColor" stroke-width="0.5"></path>
  <path d="M13.5 5.5a0.5 0.5 0 0 0 0.5 -0.5V3.5a0.5 0.5 0 0 0 -0.33 -0.47l-5.5 -2a0.5 0.5 0 0 0 -0.34 0l-5.5 2A0.5 0.5 0 0 0 2 3.5v1.5a0.5 0.5 0 0 0 0.5 0.5h0.5v6.5H2v1h12v-1h-1V5.5ZM3 3.85l5 -1.82L13 3.85V4.5H3ZM9 12h-2V5.5h2ZM4 5.5h2v6.5H4Zm8 6.5h-2V5.5h2Z" fill="currentColor" stroke-width="0.5"></path>
  <path id="_Transparent_Rectangle_" d="M0 0h16v16H0Z" fill="none" stroke-width="0.5"></path>
</svg>