<svg version="1.1" id="Folder-Add--Streamline-Carbon" xmlns="http://www.w3.org/2000/svg" xmlns:xlink="http://www.w3.org/1999/xlink" x="0" y="0" viewBox="0 0 16 16" xml:space="preserve" enable-background="new 0 0 32 32" height="16" width="16">
  <desc>
    Folder Add Streamline Icon: https://streamlinehq.com
  </desc>
  <title>folder--add</title>
  <path d="m13 10 -1 0 0 2 -2 0 0 1 2 0 0 2 1 0 0 -2 2 0 0 -1 -2 0z" fill="currentColor" stroke-width="0.5"></path>
  <path d="M14 4H8l-1.7 -1.7c-0.2 -0.2 -0.45 -0.3 -0.7 -0.3H2c-0.55 0 -1 0.45 -1 1v10c0 0.55 0.45 1 1 1h7v-1H2V3h3.6l1.7 1.7 0.3 0.3H14v4h1v-4c0 -0.55 -0.45 -1 -1 -1z" fill="currentColor" stroke-width="0.5"></path>
  <path id="_Transparent_Rectangle_" d="M0 0h16v16H0Z" fill="none" stroke-width="0.5"></path>
</svg>