<svg version="1.1" id="Forum--Streamline-Carbon" xmlns="http://www.w3.org/2000/svg" xmlns:xlink="http://www.w3.org/1999/xlink" x="0" y="0" viewBox="0 0 16 16" xml:space="preserve" enable-background="new 0 0 32 32" height="16" width="16">
  <desc>
    Forum Streamline Icon: https://streamlinehq.com
  </desc>
  <path d="M14 3H4c-0.6 0 -1 0.4 -1 1v7c0 0.6 0.4 1 1 1h4v-1H4V4h10v7h-3.6L8 14.4l0.8 0.6 2.1 -3H14c0.6 0 1 -0.4 1 -1V4c0 -0.6 -0.4 -1 -1 -1z" fill="currentColor" stroke-width="0.5"></path>
  <path d="M2 9H1V2.5c0 -0.85 0.65 -1.5 1.5 -1.5h6.5v1H2.5c-0.3 0 -0.5 0.2 -0.5 0.5v6.5z" fill="currentColor" stroke-width="0.5"></path>
  <path id="_Transparent_Rectangle_" d="M0 0h16v16H0Z" fill="none" stroke-width="0.5"></path>
</svg>