<svg id="Generate-Pdf--Streamline-Carbon" xmlns="http://www.w3.org/2000/svg" viewBox="0 0 16 16" height="16" width="16">
  <desc>
    Generate Pdf Streamline Icon: https://streamlinehq.com
  </desc>
  <defs></defs>
  <title>generate-pdf</title>
  <path d="M12 12v2H4v-2H3v2a1 1 0 0 0 1 1h8a1 1 0 0 0 1 -1v-2Z" fill="currentColor" stroke-width="0.5"></path>
  <path d="m10.5 10.5 -0.707 -0.707L8.5 11.086 8.5 7l-1 0 0 4.086 -1.293 -1.293L5.5 10.5l2.5 2.5 2.5 -2.5z" fill="currentColor" stroke-width="0.5"></path>
  <path d="m14 2 0 -1 -3 0 0 5 1 0 0 -2 1.5 0 0 -1 -1.5 0 0 -1 2 0z" fill="currentColor" stroke-width="0.5"></path>
  <path d="M8.5 6h-2V1h2a1.50165 1.50165 0 0 1 1.5 1.5v2a1.50165 1.50165 0 0 1 -1.5 1.5Zm-1 -1h1a0.50055 0.50055 0 0 0 0.5 -0.5V2.5a0.50055 0.50055 0 0 0 -0.5 -0.5h-1Z" fill="currentColor" stroke-width="0.5"></path>
  <path d="M4.5 1H2v5h1V4.5h1.5a1.00135 1.00135 0 0 0 1 -1V2a1.00115 1.00115 0 0 0 -1 -1ZM3 3.5V2h1.5l0.0005 1.5Z" fill="currentColor" stroke-width="0.5"></path>
  <path id="_Transparent_Rectangle_" d="M0 0h16v16H0Z" fill="none" stroke-width="0.5"></path>
</svg>