<svg id="Gif--Streamline-Carbon" xmlns="http://www.w3.org/2000/svg" viewBox="0 0 16 16" height="16" width="16">
  <desc>
    GIF Streamline Icon: https://streamlinehq.com
  </desc>
  <defs></defs>
  <title>GIF</title>
  <path d="M1 6v4a1.5 1.5 0 0 0 1.5 1.5h2.5v-4H3v1h1v2H2.5a0.5 0.5 0 0 1 -0.5 -0.5v-4a0.5 0.5 0 0 1 0.5 -0.5h2.5V4.5H2.5a1.5 1.5 0 0 0 -1.5 1.5Z" fill="currentColor" stroke-width="0.5"></path>
  <path d="m15 5.5 0 -1 -4 0 0 7 1 0 0 -3 2.5 0 0 -1 -2.5 0 0 -2 3 0z" fill="currentColor" stroke-width="0.5"></path>
  <path d="m6 4.5 0 1 1.5 0 0 5 -1.5 0 0 1 4 0 0 -1 -1.5 0 0 -5 1.5 0 0 -1 -4 0z" fill="currentColor" stroke-width="0.5"></path>
  <path id="_Transparent_Rectangle_" d="M0 0h16v16H0Z" fill="none" stroke-width="0.5"></path>
</svg>