<svg id="Apps--Streamline-Carbon" xmlns="http://www.w3.org/2000/svg" viewBox="0 0 16 16" height="16" width="16">
  <desc>
    Apps Streamline Icon: https://streamlinehq.com
  </desc>
  <defs></defs>
  <path d="M4 2v2H2V2Zm1 -1H1v4h4Zm4 1v2h-2V2Zm1 -1h-4v4h4Zm4 1v2h-2V2Zm1 -1h-4v4h4ZM4 7v2H2v-2Zm1 -1H1v4h4Zm4 1v2h-2v-2Zm1 -1h-4v4h4Zm4 1v2h-2v-2Zm1 -1h-4v4h4ZM4 12v2H2v-2Zm1 -1H1v4h4Zm4 1v2h-2v-2Zm1 -1h-4v4h4Zm4 1v2h-2v-2Zm1 -1h-4v4h4Z" fill="currentColor" stroke-width="0.5"></path>
  <path id="_Transparent_Rectangle_" d="M0 0h16v16H0Z" fill="none" stroke-width="0.5"></path>
</svg>