<svg id="Group-Security--Streamline-Carbon" xmlns="http://www.w3.org/2000/svg" viewBox="0 0 16 16" height="16" width="16">
  <desc>
    Group Security Streamline Icon: https://streamlinehq.com
  </desc>
  <defs></defs>
  <path d="M5.5 10.5H4.5v-1a1.50165 1.50165 0 0 1 1.5 -1.5h3v1h-3a0.50055 0.50055 0 0 0 -0.5 0.5Z" fill="currentColor" stroke-width="0.5"></path>
  <path d="M7.5 7.5a2 2 0 1 1 2 -2 2.00225 2.00225 0 0 1 -2 2Zm0 -3a1 1 0 1 0 1 1 1.00105 1.00105 0 0 0 -1 -1Z" fill="currentColor" stroke-width="0.5"></path>
  <path d="M12 11a2 2 0 1 1 2 -2 2.00225 2.00225 0 0 1 -2 2Zm0 -3a1 1 0 1 0 1 1 1.00105 1.00105 0 0 0 -1 -1Z" fill="currentColor" stroke-width="0.5"></path>
  <path d="M15 14h-1v-1a0.50055 0.50055 0 0 0 -0.5 -0.5h-3a0.50055 0.50055 0 0 0 -0.5 0.5v1h-1v-1a1.50165 1.50165 0 0 1 1.5 -1.5h3a1.50165 1.50165 0 0 1 1.5 1.5Z" fill="currentColor" stroke-width="0.5"></path>
  <path d="m7 13.8667 -2.6172 -1.3955A4.4929 4.4929 0 0 1 2 8.5V2h10v3h1V2a1.00115 1.00115 0 0 0 -1 -1H2a1.00115 1.00115 0 0 0 -1 1v6.5a5.4907 5.4907 0 0 0 2.9121 4.8535L7 15Z" fill="currentColor" stroke-width="0.5"></path>
  <path id="_Transparent_Rectangle_" d="M0 0h16v16H0Z" fill="none" stroke-width="0.5"></path>
</svg>