<svg id="Help-Desk--Streamline-Carbon" xmlns="http://www.w3.org/2000/svg" viewBox="0 0 16 16" height="16" width="16">
  <desc>
    Help Desk Streamline Icon: https://streamlinehq.com
  </desc>
  <defs></defs>
  <title>help-desk</title>
  <path d="M13.5 5h-3a1.50165 1.50165 0 0 0 -1.5 1.5v3a1.00115 1.00115 0 0 0 1 1v3.5a1.00115 1.00115 0 0 0 1 1h2a1.00115 1.00115 0 0 0 1 -1v-3.5a1.00115 1.00115 0 0 0 1 -1v-3a1.50165 1.50165 0 0 0 -1.5 -1.5Zm0.5 4.5h-1v4.5h-2v-4.5h-1v-3a0.50045 0.50045 0 0 1 0.5 -0.5h3a0.50045 0.50045 0 0 1 0.5 0.5Z" fill="currentColor" stroke-width="0.5"></path>
  <path d="M10 2.5a2 2 0 1 1 2 2 2.0021 2.0021 0 0 1 -2 -2Zm1 0a1 1 0 1 0 1 -1 1.00115 1.00115 0 0 0 -1 1Z" fill="currentColor" stroke-width="0.5"></path>
  <path d="M7 8v-1.5a1.50165 1.50165 0 0 0 -1.5 -1.5H2.5a1.50165 1.50165 0 0 0 -1.5 1.5v1.5H0v1h8v-1ZM2 6.5a0.50045 0.50045 0 0 1 0.5 -0.5h3a0.50045 0.50045 0 0 1 0.5 0.5v1.5H2Z" fill="currentColor" stroke-width="0.5"></path>
  <path d="M2 2.5a2 2 0 1 1 2 2 2.0021 2.0021 0 0 1 -2 -2Zm1 0a1 1 0 1 0 1 -1 1.00115 1.00115 0 0 0 -1 1Z" fill="currentColor" stroke-width="0.5"></path>
  <path id="_Transparent_Rectangle_" d="M0 0h16v16H0Z" fill="none" stroke-width="0.5"></path>
</svg>