<svg id="Help--Streamline-Carbon" xmlns="http://www.w3.org/2000/svg" viewBox="0 0 16 16" height="16" width="16">
  <desc>
    Help Streamline Icon: https://streamlinehq.com
  </desc>
  <defs></defs>
  <title>help</title>
  <path d="M8 1a7 7 0 1 0 7 7A7 7 0 0 0 8 1Zm0 13a6 6 0 1 1 6 -6 6 6 0 0 1 -6 6Z" fill="currentColor" stroke-width="0.5"></path>
  <path d="M7.25 11.75a0.75 0.75 0 1 0 1.5 0 0.75 0.75 0 1 0 -1.5 0" fill="currentColor" stroke-width="0.5"></path>
  <path d="M8.5 4h-0.75a2.245 2.245 0 0 0 -2.25 2.25v0.25h1v-0.25a1.25 1.25 0 0 1 1.25 -1.25H8.5a1.25 1.25 0 0 1 0 2.5h-1v2.25h1V8.5a2.25 2.25 0 0 0 0 -4.5Z" fill="currentColor" stroke-width="0.5"></path>
  <path d="M0 0h16v16H0Z" fill="none" stroke-width="0.5"></path>
</svg>