<svg id="Help-Filled--Streamline-Carbon" xmlns="http://www.w3.org/2000/svg" viewBox="0 0 16 16" height="16" width="16">
  <desc>
    Help Filled Streamline Icon: https://streamlinehq.com
  </desc>
  <defs></defs>
  <title>help--filled</title>
  <path d="M8 1a7 7 0 1 0 7 7A7 7 0 0 0 8 1Zm0 11.5a0.75 0.75 0 1 1 0.75 -0.75A0.75 0.75 0 0 1 8 12.5Zm0.57105 -3.877v1.2507h-1.125V7.5h1.0625a1.18815 1.18815 0 0 0 0 -2.3763h-0.75a1.18885 1.18885 0 0 0 -1.1875 1.1875v0.3188h-1.125v-0.31885A2.31395 2.31395 0 0 1 7.75855 4h0.75a2.3119 2.3119 0 0 1 0.0625 4.623Z" fill="currentColor" stroke-width="0.5"></path>
  <path id="inner-path" d="M8 12.5a0.75 0.75 0 1 1 0.75 -0.75A0.75 0.75 0 0 1 8 12.5Zm0.57105 -3.877v1.2507h-1.125V7.5h1.0625a1.18815 1.18815 0 0 0 0 -2.3763h-0.75a1.18885 1.18885 0 0 0 -1.1875 1.1875v0.3188h-1.125v-0.31885A2.31395 2.31395 0 0 1 7.75855 4h0.75a2.3119 2.3119 0 0 1 0.0625 4.623Z" fill="none" stroke-width="0.5"></path>
  <path id="_Transparent_Rectangle_" d="M0 0h16v16H0Z" fill="none" stroke-width="0.5"></path>
</svg>