<svg xmlns="http://www.w3.org/2000/svg" viewBox="0 0 16 16" id="Person-Hiking--Streamline-Font-Awesome" height="16" width="16">
  <desc>
    Person Hiking Streamline Icon: https://streamlinehq.com
  </desc>
<!--! Font Awesome Free 6.5.2 by @fontawesome - https://fontawesome.com License - https://fontawesome.com/license/free (Icons: CC BY 4.0, Fonts: SIL OFL 1.1, Code: MIT License) Copyright 2024 Fonticons, Inc.-->
  <path d="M7.90415 1.63c0 -1.1316083333333333 1.2249999999999999 -1.8388624999999998 2.205 -1.2730583333333332 0.45481666666666665 0.26259166666666667 0.735 0.7478791666666667 0.735 1.2730583333333332 0 1.1316083333333333 -1.2249999999999999 1.8388624999999998 -2.205 1.2730583333333332 -0.4548208333333333 -0.26259166666666667 -0.735 -0.7478791666666667 -0.735 -1.2730583333333332Zm1.5710625 5.5951875 -0.5849375 2.3366875 1.5220624999999999 1.5220624999999999c0.275625 0.275625 0.4318125 0.64925 0.4318125 1.0381874999999998v2.737875c0 0.5420624999999999 -0.4379375 0.98 -0.98 0.98s-0.98 -0.4379375 -0.98 -0.98v-2.5326874999999998l-2.2631875 -2.2631875c-0.48387499999999994 -0.48387499999999994 -0.679875 -1.1821249999999999 -0.5175624999999999 -1.8466875l0.6247499999999999 -2.5725c0.2541875 -1.0443125 1.3076875 -1.6813125 2.3489375 -1.4209999999999998 0.5818749999999999 0.147 1.09025 0.50225 1.4209999999999998 1.0014375l0.8697499999999999 1.304625h0.9463125v-0.735c0 -0.40731249999999997 0.32768749999999996 -0.735 0.735 -0.735s0.735 0.32768749999999996 0.735 0.735v9.309999999999999c0 0.40731249999999997 -0.32768749999999996 0.735 -0.735 0.735s-0.735 -0.32768749999999996 -0.735 -0.735V8.489999999999998h-1.2066249999999998c-0.49 0 -0.949375 -0.245 -1.2219375 -0.6553749999999999l-0.40731249999999997 -0.6124999999999999Zm-4.967375 7.38675 1.108625 -4.2231875c0.091875 0.128625 0.19599999999999998 0.251125 0.3093125 0.36443749999999997l1.2831875 1.2831875 -0.8085 3.0716875c-0.1378125 0.5236875 -0.6737500000000001 0.8360624999999999 -1.1974375 0.6982499999999999s-0.8360624999999999 -0.6737500000000001 -0.6982499999999999 -1.1974375Zm1.6996874999999998 -10.59625 -1.0779999999999998 4.3058749999999995c-0.091875 0.37056249999999996 -0.45631249999999995 0.6094375 -0.833 0.5481874999999999l-1.4669374999999998 -0.245c-0.42874999999999996 -0.07043749999999999 -0.7013124999999999 -0.49918749999999995 -0.588 -0.91875l0.7595000000000001 -2.799125c0.29093749999999996 -1.06575 1.2586875 -1.806875 2.3642499999999997 -1.806875h0.128625c0.47774999999999995 0 0.8299375 0.4501875 0.7135624999999999 0.9126249999999999Z" fill="currentColor" stroke-width="0.0417"></path>
</svg>