<svg id="Home--Streamline-Carbon" xmlns="http://www.w3.org/2000/svg" viewBox="0 0 16 16" height="16" width="16">
  <desc>
    Home Streamline Icon: https://streamlinehq.com
  </desc>
  <defs></defs>
  <path id="_Transparent_Rectangle_" d="M0 0h16v16H0Z" fill="none" stroke-width="0.5"></path>
  <path d="M8.30615 1.1069a0.505 0.505 0 0 0 -0.62135 0L0.5 6.7097l0.62135 0.78585L2 6.81045V13a1.00205 1.00205 0 0 0 1 1h10a1.00185 1.00185 0 0 0 1 -1V6.815L14.87865 7.5 15.5 6.7141ZM9 13h-2v-4h2Zm1 0v-4a1.00115 1.00115 0 0 0 -1 -1h-2a1.001 1.001 0 0 0 -1 1v4H3V6.03075l5 -3.895 5 3.90025V13Z" fill="currentColor" stroke-width="0.5"></path>
</svg>