<svg id="Image--Streamline-Carbon" xmlns="http://www.w3.org/2000/svg" viewBox="0 0 16 16" height="16" width="16">
  <desc>
    Image Streamline Icon: https://streamlinehq.com
  </desc>
  <defs></defs>
  <title>image</title>
  <path d="M9.5 7a1.5 1.5 0 1 0 -1.5 -1.5 1.5 1.5 0 0 0 1.5 1.5Zm0 -2a0.5 0.5 0 1 1 -0.5 0.5 0.5 0.5 0 0 1 0.5 -0.5Z" fill="currentColor" stroke-width="0.5"></path>
  <path d="M13 2H3a1 1 0 0 0 -1 1v10a1 1 0 0 0 1 1h10a1 1 0 0 0 1 -1V3a1 1 0 0 0 -1 -1Zm0 11H3v-3l2.5 -2.5 2.795 2.795a1 1 0 0 0 1.41 0L10.5 9.5l2.5 2.5Zm0 -2.415 -1.795 -1.795a1 1 0 0 0 -1.41 0L9 9.585l-2.795 -2.795a1 1 0 0 0 -1.41 0L3 8.585V3h10Z" fill="currentColor" stroke-width="0.5"></path>
  <path id="_Transparent_Rectangle_" d="M0 0h16v16H0Z" fill="none" stroke-width="0.5"></path>
</svg>