<svg id="Information--Streamline-Carbon" xmlns="http://www.w3.org/2000/svg" viewBox="0 0 16 16" height="16" width="16">
  <desc>
    Information Streamline Icon: https://streamlinehq.com
  </desc>
  <defs></defs>
  <path d="m8.5 11 0 -4 -2 0 0 1 1 0 0 3 -1.5 0 0 1 4 0 0 -1 -1.5 0z" fill="currentColor" stroke-width="0.5"></path>
  <path d="M8 4a0.75 0.75 0 1 0 0.75 0.75A0.75 0.75 0 0 0 8 4Z" fill="currentColor" stroke-width="0.5"></path>
  <path d="M8 15a7 7 0 1 1 7 -7 7 7 0 0 1 -7 7Zm0 -13a6 6 0 1 0 6 6A6 6 0 0 0 8 2Z" fill="currentColor" stroke-width="0.5"></path>
  <path id="_Transparent_Rectangle_" d="M0 0h16v16H0Z" fill="none" stroke-width="0.5"></path>
</svg>