<svg xmlns="http://www.w3.org/2000/svg" viewBox="0 0 16 16" id="Invite-Line--Streamline-Mingcute" height="16" width="16">
  <desc>
    Invite Line Streamline Icon: https://streamlinehq.com
  </desc>
  <g fill="none" fill-rule="evenodd">
    <path d="M16 0v16H0V0h16ZM8.395333333333333 15.505333333333333l-0.007333333333333332 0.0013333333333333333 -0.047333333333333324 0.023333333333333334 -0.013333333333333332 0.0026666666666666666 -0.009333333333333332 -0.0026666666666666666 -0.047333333333333324 -0.023333333333333334c-0.006666666666666666 -0.0026666666666666666 -0.012666666666666666 -0.0006666666666666666 -0.016 0.003333333333333333l-0.0026666666666666666 0.006666666666666666 -0.011333333333333334 0.2853333333333333 0.003333333333333333 0.013333333333333332 0.006666666666666666 0.008666666666666666 0.06933333333333333 0.049333333333333326 0.009999999999999998 0.0026666666666666666 0.008 -0.0026666666666666666 0.06933333333333333 -0.049333333333333326 0.008 -0.010666666666666666 0.0026666666666666666 -0.011333333333333334 -0.011333333333333334 -0.2846666666666666c-0.0013333333333333333 -0.006666666666666666 -0.005999999999999999 -0.011333333333333334 -0.011333333333333334 -0.011999999999999999Zm0.17666666666666667 -0.07533333333333334 -0.008666666666666666 0.0013333333333333333 -0.12333333333333332 0.062 -0.006666666666666666 0.006666666666666666 -0.002 0.007333333333333332 0.011999999999999999 0.2866666666666666 0.003333333333333333 0.008 0.005333333333333333 0.004666666666666666 0.134 0.062c0.008 0.0026666666666666666 0.015333333333333332 0 0.019333333333333334 -0.005333333333333333l0.0026666666666666666 -0.009333333333333332 -0.02266666666666667 -0.4093333333333333c-0.002 -0.008 -0.006666666666666666 -0.013333333333333332 -0.013333333333333332 -0.014666666666666665Zm-0.4766666666666666 0.0013333333333333333a0.015333333333333332 0.015333333333333332 0 0 0 -0.018 0.004l-0.004 0.009333333333333332 -0.02266666666666667 0.4093333333333333c0 0.008 0.004666666666666666 0.013333333333333332 0.011333333333333334 0.016l0.009999999999999998 -0.0013333333333333333 0.134 -0.062 0.006666666666666666 -0.005333333333333333 0.0026666666666666666 -0.007333333333333332 0.011333333333333334 -0.2866666666666666 -0.002 -0.008 -0.006666666666666666 -0.006666666666666666 -0.12266666666666666 -0.06133333333333333Z" stroke-width="0.6667"></path>
    <path fill="currentColor" d="M11.333333333333332 2a2 2 0 0 1 1.9966666666666666 1.8826666666666665L13.333333333333332 4v2.8999999999999995l0.39599999999999996 -0.176c0.4093333333333333 -0.182 0.8813333333333333 0.09999999999999999 0.9333333333333332 0.532L14.666666666666666 7.333333333333333v5.333333333333333a1.3333333333333333 1.3333333333333333 0 0 1 -1.2333333333333334 1.33L13.333333333333332 14H2.6666666666666665a1.3333333333333333 1.3333333333333333 0 0 1 -1.33 -1.2333333333333334L1.3333333333333333 12.666666666666666v-5.333333333333333c0 -0.448 0.45 -0.7646666666666666 0.8646666666666666 -0.6366666666666666l0.07333333333333333 0.027333333333333334 0.3953333333333333 0.176V4a2 2 0 0 1 1.8826666666666665 -1.9966666666666666L4.666666666666666 2h6.666666666666666Zm2 6.359333333333333 -4.792 2.1293333333333333a1.3333333333333333 1.3333333333333333 0 0 1 -1.0826666666666667 0L2.6666666666666665 8.36V12.666666666666666h10.666666666666666v-4.307333333333333ZM11.333333333333332 3.333333333333333H4.666666666666666a0.6666666666666666 0.6666666666666666 0 0 0 -0.6666666666666666 0.6666666666666666v3.4926666666666666l4 1.7779999999999998 4 -1.7779999999999998V4a0.6666666666666666 0.6666666666666666 0 0 0 -0.6666666666666666 -0.6666666666666666Zm-3.333333333333333 2a0.6666666666666666 0.6666666666666666 0 0 1 0.078 1.3286666666666667L8 6.666666666666666h-1.3333333333333333a0.6666666666666666 0.6666666666666666 0 0 1 -0.078 -1.3286666666666667L6.666666666666666 5.333333333333333h1.3333333333333333Z" stroke-width="0.6667"></path>
  </g>
</svg>
