<svg id="Json--Streamline-Carbon" xmlns="http://www.w3.org/2000/svg" viewBox="0 0 16 16" height="16" width="16">
  <desc>
    JSON Streamline Icon: https://streamlinehq.com
  </desc>
  <defs></defs>
  <title>JSON</title>
  <path d="m15.5 5.5 0 5 -1 0 -1 -3 0 3 -1 0 0 -5 1 0 1 3 0 -3 1 0z" fill="currentColor" stroke-width="0.5"></path>
  <path d="M10.66675 10.5h-1.3335A0.8342 0.8342 0 0 1 8.5 9.66675v-3.3335A0.8342 0.8342 0 0 1 9.33325 5.5h1.3335A0.8342 0.8342 0 0 1 11.5 6.33325v3.3335A0.8342 0.8342 0 0 1 10.66675 10.5ZM9.5 9.5h1v-3h-1Z" fill="currentColor" stroke-width="0.5"></path>
  <path d="M6.66675 10.5H4.5v-1h2v-1h-1a1.001 1.001 0 0 1 -1 -1v-1.16675A0.8342 0.8342 0 0 1 5.33325 5.5H7.5v1h-2v1h1a1.001 1.001 0 0 1 1 1v1.16675A0.8342 0.8342 0 0 1 6.66675 10.5Z" fill="currentColor" stroke-width="0.5"></path>
  <path d="M2.66675 10.5h-1.3335A0.8342 0.8342 0 0 1 0.5 9.66675V8.5h1v1h1v-4h1v4.16675A0.8342 0.8342 0 0 1 2.66675 10.5Z" fill="currentColor" stroke-width="0.5"></path>
  <path id="_Transparent_Rectangle_" d="M0 0h16v16H0Z" fill="none" stroke-width="0.5"></path>
</svg>