<svg id="License-Draft--Streamline-Carbon" xmlns="http://www.w3.org/2000/svg" viewBox="0 0 16 16" height="16" width="16">
  <desc>
    License Draft Streamline Icon: https://streamlinehq.com
  </desc>
  <defs></defs>
  <path d="M4 3h6v1H4Z" fill="currentColor" stroke-width="0.5"></path>
  <path d="M4 5h6v1H4Z" fill="currentColor" stroke-width="0.5"></path>
  <path d="M4 7h3v1H4Z" fill="currentColor" stroke-width="0.5"></path>
  <path d="M4 12h2v1H4Z" fill="currentColor" stroke-width="0.5"></path>
  <path d="m14.8535 9.6465 -1.5 -1.5a0.4997 0.4997 0 0 0 -0.707 0L8 12.79295V15h2.20705l4.64645 -4.6465a0.4997 0.4997 0 0 0 0 -0.707ZM9.79295 14H9v-0.79295l2.5 -2.5L12.29295 11.5ZM13 10.79295 12.20705 10 13 9.20705 13.79295 10Z" fill="currentColor" stroke-width="0.5"></path>
  <path d="M6 15H3a1.00105 1.00105 0 0 1 -1 -1V2a1.00105 1.00105 0 0 1 1 -1h8a1.00105 1.00105 0 0 1 1 1v5h-1V2H3v12h3Z" fill="currentColor" stroke-width="0.5"></path>
  <path id="_Transparent_Rectangle_" d="M0 0h16v16H0Z" fill="none" stroke-width="0.5"></path>
</svg>