<svg id="Link--Streamline-Carbon" xmlns="http://www.w3.org/2000/svg" viewBox="0 0 16 16" height="16" width="16">
  <desc>
    Link Streamline Icon: https://streamlinehq.com
  </desc>
  <defs></defs>
  <title>link</title>
  <path d="M14.625 3.38a3 3 0 0 0 -4.25 0l0.71 0.71a2 2 0 1 1 2.835 2.835l-4 4a2 2 0 1 1 -2.835 -2.83l0.705 -0.71 -0.705 -0.71 -0.71 0.71a3 3 0 0 0 0 4.25A3 3 0 0 0 8.5 12.5a3 3 0 0 0 2.135 -0.88l4 -4a3 3 0 0 0 -0.01 -4.24Z" fill="currentColor" stroke-width="0.5"></path>
  <path d="M2.095 12.41a2 2 0 0 1 0 -2.835l4 -4a2 2 0 0 1 2.835 0A1.97 1.97 0 0 1 9.5 7a2 2 0 0 1 -0.585 1.425L7.855 9.5l0.71 0.71 1.06 -1.06a3 3 0 0 0 -4.255 -4.255l-4 4a3 3 0 0 0 0 4.255A3 3 0 0 0 3.5 14a3.035 3.035 0 0 0 2.14 -0.88l-0.71 -0.71a2 2 0 0 1 -2.835 0Z" fill="currentColor" stroke-width="0.5"></path>
  <path id="_Transparent_Rectangle_" d="M0 0h16v16H0Z" fill="none" stroke-width="0.5"></path>
</svg>