<svg id="List-Boxes--Streamline-Carbon" xmlns="http://www.w3.org/2000/svg" viewBox="0 0 16 16" height="16" width="16">
  <desc>
    List Boxes Streamline Icon: https://streamlinehq.com
  </desc>
  <defs></defs>
  <title>list--checked</title>
  <path d="M8 4h7v1H8Z" fill="currentColor" stroke-width="0.5"></path>
  <path d="M8 11h7v1H8Z" fill="currentColor" stroke-width="0.5"></path>
  <path d="M5 7H2a1.00115 1.00115 0 0 1 -1 -1V3a1.00115 1.00115 0 0 1 1 -1h3a1.00115 1.00115 0 0 1 1 1v3a1.00115 1.00115 0 0 1 -1 1ZM2 3v3h3.0006L5 3Z" fill="currentColor" stroke-width="0.5"></path>
  <path d="M5 14H2a1.00115 1.00115 0 0 1 -1 -1v-3a1.00115 1.00115 0 0 1 1 -1h3a1.00115 1.00115 0 0 1 1 1v3a1.00115 1.00115 0 0 1 -1 1Zm-3 -4v3h3.0006L5 10Z" fill="currentColor" stroke-width="0.5"></path>
  <path id="_Transparent_Rectangle_" d="M0 0h16v16H0Z" fill="none" stroke-width="0.5"></path>
</svg>