<svg xmlns="http://www.w3.org/2000/svg" viewBox="0 0 16 16" id="Cc-Mastercard--Streamline-Font-Awesome" height="16" width="16">
  <desc>
    Cc Mastercard Streamline Icon: https://streamlinehq.com
  </desc>
<!--! Font Awesome Free 6.5.2 by @fontawesome - https://fontawesome.com License - https://fontawesome.com/license/free (Icons: CC BY 4.0, Fonts: SIL OFL 1.1, Code: MIT License) Copyright 2024 Fonticons, Inc.-->
  <path d="M13.30561111111111 12.173166666666665c0 0.1851111111111111 -0.1252222222222222 0.31849999999999995 -0.3048888888888889 0.31849999999999995 -0.1851111111111111 0 -0.3048888888888889 -0.14155555555555555 -0.3048888888888889 -0.31849999999999995 0 -0.17694444444444443 0.11977777777777777 -0.31849999999999995 0.3048888888888889 -0.31849999999999995 0.17966666666666667 0 0.3048888888888889 0.14155555555555555 0.3048888888888889 0.31849999999999995Zm-8.460666666666667 -0.31849999999999995c-0.19327777777777777 0 -0.3048888888888889 0.14155555555555555 -0.3048888888888889 0.31849999999999995 0 0.17694444444444443 0.1116111111111111 0.31849999999999995 0.3048888888888889 0.31849999999999995 0.17694444444444443 0 0.2967222222222222 -0.13338888888888886 0.2967222222222222 -0.31849999999999995 -0.0027222222222222222 -0.17694444444444443 -0.11977777777777777 -0.31849999999999995 -0.2967222222222222 -0.31849999999999995Zm3.198611111111111 -0.008166666666666666c-0.147 0 -0.2368333333333333 0.09527777777777778 -0.2586111111111111 0.2368333333333333h0.5199444444444444c-0.024499999999999997 -0.15516666666666667 -0.11977777777777777 -0.2368333333333333 -0.2613333333333333 -0.2368333333333333Zm2.9345555555555554 0.008166666666666666c-0.1851111111111111 0 -0.2967222222222222 0.14155555555555555 -0.2967222222222222 0.31849999999999995 0 0.17694444444444443 0.1116111111111111 0.31849999999999995 0.2967222222222222 0.31849999999999995 0.1851111111111111 0 0.3048888888888889 -0.13338888888888886 0.3048888888888889 -0.31849999999999995 0 -0.17694444444444443 -0.11977777777777777 -0.31849999999999995 -0.3048888888888889 -0.31849999999999995Zm2.882833333333333 0.7104999999999999c0 0.008166666666666666 0.008166666666666666 0.01361111111111111 0.008166666666666666 0.029944444444444444 0 0.008166666666666666 -0.008166666666666666 0.01361111111111111 -0.008166666666666666 0.029944444444444444 -0.008166666666666666 0.008166666666666666 -0.008166666666666666 0.01361111111111111 -0.01361111111111111 0.021777777777777778 -0.008166666666666666 0.008166666666666666 -0.01361111111111111 0.01361111111111111 -0.029944444444444444 0.01361111111111111 -0.008166666666666666 0.008166666666666666 -0.01361111111111111 0.008166666666666666 -0.029944444444444444 0.008166666666666666 -0.008166666666666666 0 -0.01361111111111111 0 -0.029944444444444444 -0.008166666666666666 -0.008166666666666666 0 -0.01361111111111111 -0.008166666666666666 -0.021777777777777778 -0.01361111111111111 -0.008166666666666666 -0.008166666666666666 -0.01361111111111111 -0.01361111111111111 -0.01361111111111111 -0.021777777777777778 -0.008166666666666666 -0.01361111111111111 -0.008166666666666666 -0.021777777777777778 -0.008166666666666666 -0.029944444444444444 0 -0.01361111111111111 0 -0.021777777777777778 0.008166666666666666 -0.029944444444444444 0 -0.01361111111111111 0.008166666666666666 -0.021777777777777778 0.01361111111111111 -0.029944444444444444 0.008166666666666666 -0.008166666666666666 0.01361111111111111 -0.008166666666666666 0.021777777777777778 -0.01361111111111111 0.01361111111111111 -0.008166666666666666 0.021777777777777778 -0.008166666666666666 0.029944444444444444 -0.008166666666666666 0.01361111111111111 0 0.021777777777777778 0 0.029944444444444444 0.008166666666666666 0.01361111111111111 0.008166666666666666 0.021777777777777778 0.008166666666666666 0.029944444444444444 0.01361111111111111s0.0054444444444444445 0.01633333333333333 0.01361111111111111 0.029944444444444444Zm-0.05988888888888889 0.03811111111111111c0.01361111111111111 0 0.01361111111111111 -0.008166666666666666 0.021777777777777778 -0.008166666666666666 0.008166666666666666 -0.008166666666666666 0.008166666666666666 -0.01361111111111111 0.008166666666666666 -0.021777777777777778 0 -0.008166666666666666 0 -0.01361111111111111 -0.008166666666666666 -0.021777777777777778 -0.008166666666666666 0 -0.01361111111111111 -0.008166666666666666 -0.029944444444444444 -0.008166666666666666h-0.043555555555555556v0.09527777777777778h0.021777777777777778v-0.03811111111111111h0.008166666666666666l0.029944444444444444 0.03811111111111111h0.021777777777777778l-0.029944444444444444 -0.035388888888888886ZM15.84 3.2088888888888887v9.58222222222222c0 0.7213888888888889 -0.5852777777777778 1.3066666666666666 -1.3066666666666666 1.3066666666666666H1.4666666666666666c-0.7213888888888889 0 -1.3066666666666666 -0.5852777777777778 -1.3066666666666666 -1.3066666666666666V3.2088888888888887c0 -0.7213888888888889 0.5852777777777778 -1.3066666666666666 1.3066666666666666 -1.3066666666666666h13.066666666666665c0.7213888888888889 0 1.3066666666666666 0.5852777777777778 1.3066666666666666 1.3066666666666666ZM1.9022222222222223 7.00911111111111c0 2.0825 1.6905 3.7702777777777774 3.7702777777777774 3.7702777777777774 0.7404444444444443 0 1.4672777777777777 -0.2232222222222222 2.0825 -0.6288333333333334 -1.9844999999999997 -1.6142777777777777 -1.9708888888888887 -4.660444444444445 0 -6.274722222222222 -0.6152222222222222 -0.40833333333333327 -1.3420555555555556 -0.6288333333333334 -2.0825 -0.6288333333333334 -2.0797777777777777 -0.0027222222222222222 -3.7702777777777774 1.6877777777777776 -3.7702777777777774 3.762111111111111ZM8 9.970888888888888c1.9191666666666667 -1.497222222222222 1.911 -4.415444444444444 0 -5.920833333333333 -1.911 1.5053888888888889 -1.9191666666666667 4.426333333333334 0 5.920833333333333Zm-3.8737222222222223 2.0770555555555554c0 -0.2368333333333333 -0.15516666666666667 -0.39199999999999996 -0.40016666666666667 -0.40016666666666667 -0.1252222222222222 0 -0.2586111111111111 0.03811111111111111 -0.34844444444444445 0.17694444444444443 -0.06533333333333333 -0.1116111111111111 -0.17694444444444443 -0.17694444444444443 -0.3321111111111111 -0.17694444444444443 -0.10344444444444445 0 -0.2068888888888889 0.03811111111111111 -0.2885555555555555 0.147V11.674999999999999h-0.2232222222222222v0.9990555555555556h0.2232222222222222c0 -0.5145 -0.06805555555555556 -0.822111111111111 0.245 -0.822111111111111 0.2776666666666667 0 0.2232222222222222 0.2776666666666667 0.2232222222222222 0.822111111111111h0.21505555555555556c0 -0.49816666666666665 -0.06805555555555556 -0.822111111111111 0.245 -0.822111111111111 0.2776666666666667 0 0.2232222222222222 0.27222222222222225 0.2232222222222222 0.822111111111111h0.2232222222222222v-0.6261111111111111Zm1.2222777777777778 -0.3729444444444444h-0.21505555555555556v0.11977777777777777c-0.0735 -0.08983333333333333 -0.17694444444444443 -0.147 -0.31849999999999995 -0.147 -0.28038888888888885 0 -0.49544444444444435 0.2232222222222222 -0.49544444444444435 0.5253888888888889 0 0.3048888888888889 0.21505555555555556 0.5253888888888889 0.49544444444444435 0.5253888888888889 0.14155555555555555 0 0.245 -0.051722222222222225 0.31849999999999995 -0.147v0.1252222222222222h0.21505555555555556V11.674999999999999Zm1.1024999999999998 0.6968888888888889c0 -0.40833333333333327 -0.6233888888888889 -0.2232222222222222 -0.6233888888888889 -0.4137777777777778 0 -0.15516666666666667 0.3239444444444444 -0.13066666666666665 0.503611111111111 -0.029944444444444444l0.08983333333333333 -0.17694444444444443c-0.2558888888888889 -0.16605555555555554 -0.822111111111111 -0.16333333333333333 -0.822111111111111 0.2232222222222222 0 0.3892777777777777 0.6233888888888889 0.22594444444444445 0.6233888888888889 0.40833333333333327 0 0.1715 -0.3675 0.15788888888888888 -0.5635 0.021777777777777778l-0.09527777777777778 0.1715c0.3048888888888889 0.2068888888888889 0.8874444444444444 0.16333333333333333 0.8874444444444444 -0.20416666666666664Zm0.9636666666666667 0.25316666666666665 -0.05988888888888889 -0.1851111111111111c-0.10344444444444445 0.05716666666666666 -0.3321111111111111 0.11977777777777777 -0.3321111111111111 -0.1116111111111111v-0.4518888888888889h0.35661111111111105V11.674999999999999h-0.35661111111111105v-0.3048888888888889h-0.2232222222222222V11.674999999999999h-0.2068888888888889v0.19872222222222222h0.2068888888888889v0.4546111111111111c0 0.4791111111111111 0.47094444444444444 0.39199999999999996 0.6152222222222222 0.2967222222222222Zm0.3620555555555556 -0.36477777777777776h0.748611111111111c0 -0.44099999999999995 -0.20144444444444443 -0.6152222222222222 -0.4736666666666666 -0.6152222222222222 -0.2885555555555555 0 -0.49544444444444435 0.21505555555555556 -0.49544444444444435 0.5253888888888889 0 0.5580555555555555 0.6152222222222222 0.6506111111111111 0.9201111111111111 0.38655555555555554l-0.10344444444444445 -0.16333333333333333c-0.21233333333333332 0.17422222222222222 -0.5335555555555554 0.15788888888888888 -0.5961666666666666 -0.13338888888888886Zm1.6088333333333331 -0.5852777777777778c-0.1252222222222222 -0.05444444444444444 -0.31577777777777777 -0.048999999999999995 -0.4137777777777778 0.11977777777777777V11.674999999999999h-0.2232222222222222v0.9990555555555556h0.2232222222222222V12.110555555555555c0 -0.31577777777777777 0.2586111111111111 -0.27494444444444444 0.34844444444444445 -0.22866666666666663l0.06533333333333333 -0.2068888888888889Zm0.2885555555555555 0.49816666666666665c0 -0.31033333333333335 0.31577777777777777 -0.4110555555555555 0.5635 -0.22866666666666663l0.10344444444444445 -0.17694444444444443c-0.31577777777777777 -0.24772222222222218 -0.8901666666666666 -0.1116111111111111 -0.8901666666666666 0.40833333333333327 0 0.5389999999999999 0.6097777777777778 0.6478888888888888 0.8901666666666666 0.40833333333333327l-0.10344444444444445 -0.17694444444444443c-0.2504444444444444 0.17694444444444443 -0.5635 0.07077777777777777 -0.5635 -0.23411111111111113Zm1.815722222222222 -0.49816666666666665H11.266666666666667v0.11977777777777777c-0.22594444444444445 -0.2994444444444444 -0.8139444444444444 -0.13066666666666665 -0.8139444444444444 0.3783888888888889 0 0.5226666666666666 0.6097777777777778 0.6723888888888888 0.8139444444444444 0.3783888888888889v0.1252222222222222h0.2232222222222222V11.674999999999999Zm0.9173888888888889 0c-0.06533333333333333 -0.03266666666666666 -0.2994444444444444 -0.07894444444444444 -0.4137777777777778 0.11977777777777777V11.674999999999999h-0.21505555555555556v0.9990555555555556h0.21505555555555556V12.110555555555555c0 -0.2994444444444444 0.245 -0.28038888888888885 0.34844444444444445 -0.22866666666666663l0.06533333333333333 -0.2068888888888889Zm1.0970555555555555 -0.4056111111111111h-0.21505555555555556v0.5253888888888889c-0.2232222222222222 -0.2967222222222222 -0.8139444444444444 -0.13883333333333334 -0.8139444444444444 0.3783888888888889 0 0.5281111111111111 0.6124999999999999 0.6696666666666666 0.8139444444444444 0.3783888888888889v0.1252222222222222h0.21505555555555556v-1.4073888888888888Zm0.2068888888888889 -2.044388888888889v0.1252222222222222h0.021777777777777778V9.225h0.051722222222222225v-0.021777777777777778h-0.1252222222222222v0.021777777777777778h0.051722222222222225Zm0.17966666666666667 3.370111111111111c0 -0.01361111111111111 0 -0.029944444444444444 -0.008166666666666666 -0.043555555555555556 -0.008166666666666666 -0.008166666666666666 -0.01361111111111111 -0.021777777777777778 -0.021777777777777778 -0.029944444444444444 -0.008166666666666666 -0.008166666666666666 -0.021777777777777778 -0.01361111111111111 -0.029944444444444444 -0.021777777777777778 -0.01361111111111111 0 -0.029944444444444444 -0.008166666666666666 -0.043555555555555556 -0.008166666666666666 -0.008166666666666666 0 -0.021777777777777778 0.008166666666666666 -0.03811111111111111 0.008166666666666666 -0.01361111111111111 0.008166666666666666 -0.021777777777777778 0.01361111111111111 -0.029944444444444444 0.021777777777777778 -0.01361111111111111 0.008166666666666666 -0.021777777777777778 0.021777777777777778 -0.021777777777777778 0.029944444444444444 -0.008166666666666666 0.01361111111111111 -0.008166666666666666 0.029944444444444444 -0.008166666666666666 0.043555555555555556 0 0.008166666666666666 0 0.021777777777777778 0.008166666666666666 0.03811111111111111 0 0.008166666666666666 0.008166666666666666 0.021777777777777778 0.021777777777777778 0.029944444444444444 0.008166666666666666 0.008166666666666666 0.01361111111111111 0.01361111111111111 0.029944444444444444 0.021777777777777778 0.01361111111111111 0.008166666666666666 0.029944444444444444 0.008166666666666666 0.03811111111111111 0.008166666666666666 0.01361111111111111 0 0.029944444444444444 0 0.043555555555555556 -0.008166666666666666 0.008166666666666666 -0.008166666666666666 0.021777777777777778 -0.01361111111111111 0.029944444444444444 -0.021777777777777778 0.008166666666666666 -0.008166666666666666 0.01361111111111111 -0.021777777777777778 0.021777777777777778 -0.029944444444444444 0.008166666666666666 -0.01633333333333333 0.008166666666666666 -0.029944444444444444 0.008166666666666666 -0.03811111111111111Zm0.08711111111111111 -3.394611111111111h-0.03811111111111111l-0.043555555555555556 0.09527777777777778 -0.043555555555555556 -0.09527777777777778h-0.03811111111111111v0.147h0.021777777777777778v-0.1116111111111111l0.043555555555555556 0.09527777777777778h0.029944444444444444l0.03811111111111111 -0.09527777777777778v0.1116111111111111h0.029944444444444444v-0.147Zm0.11977777777777777 -2.1913888888888886c0 -2.074333333333333 -1.6905 -3.764833333333333 -3.7702777777777774 -3.764833333333333 -0.7404444444444443 0 -1.4672777777777777 0.2232222222222222 -2.0825 0.6288333333333334 1.9627222222222223 1.6142777777777777 1.9926666666666666 4.668611111111111 0 6.274722222222222 0.6152222222222222 0.40833333333333327 1.3475 0.6288333333333334 2.0825 0.6288333333333334 2.0797777777777777 0.0027222222222222222 3.7702777777777774 -1.6850555555555555 3.7702777777777774 -3.7675555555555555Z" fill="currentColor" stroke-width="0.0278"></path>
</svg>