<svg id="Manager-Meeting--Streamline-Atlas" xmlns="http://www.w3.org/2000/svg" viewBox="-0.5 -0.5 16 16" height="16" width="16">
  <desc>
    Manager Meeting Streamline Icon: https://streamlinehq.com
  </desc>
  <defs></defs>
  <path d="M10.493749999999999 14.7a1.7937500000000002 1.7937500000000002 0 0 1 1.7999999999999998 -1.7937500000000002 1.7937500000000002 1.7937500000000002 0 0 1 1.7937500000000002 1.7937500000000002" fill="none" stroke="currentColor" stroke-miterlimit="10" stroke-width="1"></path>
  <path d="M11.09375 10.50625a1.2 1.2 0 1 0 2.4 0 1.2 1.2 0 1 0 -2.4 0" fill="none" stroke="currentColor" stroke-miterlimit="10" stroke-width="1"></path>
  <path d="M5.699999999999999 14.7A1.7937500000000002 1.7937500000000002 0 0 1 7.5 12.90625a1.7937500000000002 1.7937500000000002 0 0 1 1.7999999999999998 1.7937500000000002" fill="none" stroke="currentColor" stroke-miterlimit="10" stroke-width="1"></path>
  <path d="M6.3 10.50625a1.2 1.2 0 1 0 2.4 0 1.2 1.2 0 1 0 -2.4 0" fill="none" stroke="currentColor" stroke-miterlimit="10" stroke-width="1"></path>
  <path d="M5.699999999999999 6.3125A1.7999999999999998 1.7999999999999998 0 0 1 7.5 4.518750000000001a1.7999999999999998 1.7999999999999998 0 0 1 1.7999999999999998 1.7937500000000002" fill="none" stroke="currentColor" stroke-miterlimit="10" stroke-width="1"></path>
  <path d="M6.3 2.125a1.2 1.2 0 1 0 2.4 0 1.2 1.2 0 1 0 -2.4 0" fill="none" stroke="currentColor" stroke-miterlimit="10" stroke-width="1"></path>
  <path d="M0.9125 14.7a1.7937500000000002 1.7937500000000002 0 0 1 1.7937500000000002 -1.7937500000000002 1.7937500000000002 1.7937500000000002 0 0 1 1.7999999999999998 1.7937500000000002" fill="none" stroke="currentColor" stroke-miterlimit="10" stroke-width="1"></path>
  <path d="M1.50625 10.50625a1.2 1.2 0 1 0 2.4 0 1.2 1.2 0 1 0 -2.4 0" fill="none" stroke="currentColor" stroke-miterlimit="10" stroke-width="1"></path>
  <path d="m0.3125 6.9125000000000005 14.375 0" fill="none" stroke="currentColor" stroke-miterlimit="10" stroke-width="1"></path>
</svg>