<svg id="Money--Streamline-Carbon" xmlns="http://www.w3.org/2000/svg" viewBox="0 0 16 16" height="16" width="16">
  <desc>
    Money Streamline Icon: https://streamlinehq.com
  </desc>
  <defs></defs>
  <title>money</title>
  <path d="M1 11h14v1H1Z" fill="currentColor" stroke-width="0.5"></path>
  <path d="M1 13h14v1H1Z" fill="currentColor" stroke-width="0.5"></path>
  <path d="M12 5a1 1 0 1 0 1 1 1 1 0 0 0 -1 -1Z" fill="currentColor" stroke-width="0.5"></path>
  <path d="M8 8a2 2 0 1 1 2 -2 2.00225 2.00225 0 0 1 -2 2Zm0 -3a1 1 0 1 0 1 1 1.001 1.001 0 0 0 -1 -1Z" fill="currentColor" stroke-width="0.5"></path>
  <path d="M4 5a1 1 0 1 0 1 1 1 1 0 0 0 -1 -1Z" fill="currentColor" stroke-width="0.5"></path>
  <path d="M14 10H2a1.00255 1.00255 0 0 1 -1 -1V3a1.00255 1.00255 0 0 1 1 -1h12a1.00255 1.00255 0 0 1 1 1v6a1.00135 1.00135 0 0 1 -1 1Zm0 -7H2v6h12Z" fill="currentColor" stroke-width="0.5"></path>
  <path id="_Transparent_Rectangle_" d="M0 0h16v16H0Z" fill="none" stroke-width="0.5"></path>
</svg>