<svg xmlns="http://www.w3.org/2000/svg" fill="none" viewBox="0 0 16 16" id="Mp4--Streamline-Carbon" height="16" width="16">
  <desc>
    MP4 Streamline Icon: https://streamlinehq.com
  </desc>
  <path fill="currentColor" d="M14.5 4.5h-1v4h-1.5V4.5h-1v5h2.5v2h1v-2h0.5v-1h-0.5V4.5Z" stroke-width="0.5"></path>
  <path fill="currentColor" d="M7 11.5h-1V4.5h3c0.2652 0 0.51955 0.105355 0.7071 0.292895C9.89465 4.98043 10 5.2348 10 5.5v2.5c0 0.2652 -0.10535 0.51955 -0.2929 0.7071S9.2652 9 9 9h-2v2.5Zm0 -3.5h2v-2.5h-2v2.5Z" stroke-width="0.5"></path>
  <path fill="currentColor" d="m4 4.5 -0.755 2.5L3 7.99 2.77 7 2 4.5H1v7h1v-4l-0.08 -1 0.29 1L3 9.815 3.79 7.5l0.29 -1L4 7.5v4h1V4.5H4Z" stroke-width="0.5"></path>
</svg>