<svg id="Need--Streamline-Carbon" xmlns="http://www.w3.org/2000/svg" viewBox="0 0 16 16" height="16" width="16">
  <desc>
    Need Streamline Icon: https://streamlinehq.com
  </desc>
  <defs></defs>
  <path d="M14.56055 8.43945A1.49 1.49 0 0 0 13.505 8H13.5a1.4887 1.4887 0 0 0 -1.06055 0.43945L9.9889 10.89A1.49715 1.49715 0 0 0 8.5 9.5h-3.5a2.50295 2.50295 0 0 0 -2.5 2.5v0.3335l-1.5 1.99805 0.8 0.6L3.5 12.6665V12a1.50165 1.50165 0 0 1 1.5 -1.5h3.5a0.5 0.5 0 0 1 0 1h-2v1h2.46435a1.98585 1.98585 0 0 0 1.4143 -0.58595l2.76785 -2.76755A0.49645 0.49645 0 0 1 13.5 9h0.0017a0.5 0.5 0 0 1 0.3518 0.8535l-3.707 3.70705A1.48955 1.48955 0 0 1 9.0857 14H5.5v1h3.5857a2.48325 2.48325 0 0 0 1.7678 -0.7324l3.70705 -3.70705a1.49945 1.49945 0 0 0 0 -2.1211Z" fill="currentColor" stroke-width="0.5"></path>
  <path d="M10.793 4.293 9 6l0 -5 -1 0 0 5 -1.793 -1.707L5.5 5l3 3 3 -3 -0.707 -0.707z" fill="currentColor" stroke-width="0.5"></path>
  <path id="_Transparent_Rectangle_" d="M0 0h16v16H0Z" fill="none" stroke-width="0.5"></path>
</svg>