<svg id="Notification--Streamline-Carbon" xmlns="http://www.w3.org/2000/svg" viewBox="0 0 16 16" height="16" width="16">
  <desc>
    Notification Streamline Icon: https://streamlinehq.com
  </desc>
  <defs></defs>
  <path d="M14.35355 9.6465 13 8.29295V6.5a5.0068 5.0068 0 0 0 -4.5 -4.9746V0.5h-1v1.0254A5.0068 5.0068 0 0 0 3 6.5v1.79295L1.64645 9.6465A0.5 0.5 0 0 0 1.5 10v1.5a0.5 0.5 0 0 0 0.5 0.5h3.5v0.3884a2.576 2.576 0 0 0 2.25 2.59935A2.50285 2.50285 0 0 0 10.5 12.5v-0.5h3.5a0.5 0.5 0 0 0 0.5 -0.5v-1.5a0.5 0.5 0 0 0 -0.14645 -0.3535ZM9.5 12.5a1.5 1.5 0 0 1 -3 0v-0.5h3Zm4 -1.5H2.5v-0.79295l1.3535 -1.35355A0.5 0.5 0 0 0 4 8.5v-2a4 4 0 0 1 8 0v2a0.5 0.5 0 0 0 0.1465 0.3535L13.5 10.20705Z" fill="currentColor" stroke-width="0.5"></path>
  <path id="_Transparent_Rectangle_" d="M0 0h16v16H0Z" fill="none" stroke-width="0.5"></path>
</svg>