<svg xmlns="http://www.w3.org/2000/svg" viewBox="0 0 16 16" fill="currentColor" aria-hidden="true" id="Paper-Clip--Streamline-Heroicons" height="16" width="16">
  <desc>
    Paper Clip Streamline Icon: https://streamlinehq.com
  </desc>
  <path fill-rule="evenodd" d="M12.646666666666665 2.439333333333333a1.5 1.5 0 0 0 -2.1213333333333333 0l-7.293333333333333 7.293333333333333a2.5 2.5 0 1 0 3.536 3.535333333333333l5.128666666666666 -5.128666666666666a0.5 0.5 0 0 1 0.7066666666666667 0.7066666666666667l-5.128666666666666 5.128666666666666a3.5 3.5 0 1 1 -4.949333333333334 -4.949333333333334l7.292666666666666 -7.293333333333333a2.5 2.5 0 1 1 3.535333333333333 3.536L6.064666666666666 12.556666666666667l-0.005333333333333333 0.005333333333333333 -0.004666666666666666 0.004666666666666666 -0.0013333333333333333 0.0013333333333333333 -0.002 0.0013333333333333333A1.5 1.5 0 0 1 3.94 10.44l5.206666666666666 -5.206666666666666a0.5 0.5 0 0 1 0.7073333333333333 0.7066666666666667l-5.206666666666666 5.206666666666666a0.5 0.5 0 0 0 0.7026666666666667 0.712L12.646666666666665 4.56a1.5 1.5 0 0 0 0 -2.1213333333333333Z" clip-rule="evenodd" stroke-width="0.6667"></path>
</svg>