<svg xmlns="http://www.w3.org/2000/svg" fill="none" viewBox="0 0 24 24" id="Passkey--Streamline-Rounded-Material" height="24" width="24">
  <desc>
    Passkey Streamline Icon: https://streamlinehq.com
  </desc>
  <path fill="currentColor" d="M4.5 20c-0.4125 0 -0.765585 -0.1469 -1.05925 -0.44075C3.146915 19.2656 3 18.9125 3 18.5v-0.85c0 -0.63335 0.158335 -1.175 0.475 -1.625 0.316665 -0.45 0.725 -0.79165 1.225 -1.025 1.11665 -0.5 2.1875 -0.875 3.2125 -1.125S9.96665 13.5 11 13.5c0.35 0 0.7 0.0125 1.05 0.0375 0.35 0.025 0.7 0.07085 1.05 0.1375 0.13335 0.03335 0.23335 0.09325 0.3 0.17975 0.06665 0.0865 0.1 0.19325 0.1 0.32025 0 0.83335 0.19165 1.6125 0.575 2.3375 0.38335 0.725 0.91665 1.32085 1.6 1.7875 0.10115 0.06615 0.1806 0.14875 0.23825 0.24775 0.05785 0.09915 0.08675 0.20825 0.08675 0.32725v0.375c0 0.2125 -0.07185 0.3906 -0.2155 0.53425 -0.14385 0.14385 -0.322 0.21575 -0.5345 0.21575H4.5Zm6.5 -8.5c-1.05 0 -1.9375 -0.3625 -2.6625 -1.0875 -0.725 -0.725 -1.0875 -1.6125 -1.0875 -2.6625s0.3625 -1.9375 1.0875 -2.6625C9.0625 4.3625 9.95 4 11 4s1.9375 0.3625 2.6625 1.0875c0.725 0.725 1.0875 1.6125 1.0875 2.6625s-0.3625 1.9375 -1.0875 2.6625C12.9375 11.1375 12.05 11.5 11 11.5Zm7.5 3.175c0.28335 0 0.52085 -0.09585 0.7125 -0.2875S19.5 13.95835 19.5 13.675c0 -0.28335 -0.09585 -0.52085 -0.2875 -0.7125s-0.42915 -0.2875 -0.7125 -0.2875c-0.28335 0 -0.52085 0.09585 -0.7125 0.2875S17.5 13.39165 17.5 13.675c0 0.28335 0.09585 0.52085 0.2875 0.7125s0.42915 0.2875 0.7125 0.2875Zm0.225 8.725 -1.119 -1.119c-0.03735 -0.03735 -0.07265 -0.12265 -0.106 -0.256v-4.4965c-0.73335 -0.219 -1.33335 -0.63265 -1.8 -1.241 -0.46665 -0.60835 -0.7 -1.3125 -0.7 -2.1125 0 -0.96665 0.34165 -1.79165 1.025 -2.475 0.68335 -0.68335 1.50835 -1.025 2.475 -1.025s1.79165 0.34165 2.475 1.025c0.68335 0.68335 1.025 1.50835 1.025 2.475 0 0.75 -0.2125 1.41665 -0.6375 2 -0.425 0.58335 -0.9625 1 -1.6125 1.25l0.975 0.975c0.08335 0.07735 0.125 0.1675 0.125 0.2705 0 0.103 -0.04165 0.19615 -0.125 0.2795l-0.95 0.95c-0.08335 0.07735 -0.125 0.1675 -0.125 0.2705 0 0.103 0.04165 0.19615 0.125 0.2795l0.95 0.95c0.08335 0.07735 0.125 0.1675 0.125 0.2705 0 0.103 -0.04165 0.19615 -0.125 0.2795l-1.45 1.45c-0.07735 0.08335 -0.1675 0.125 -0.2705 0.125 -0.103 0 -0.19615 -0.04165 -0.2795 -0.125Z" stroke-width="0.5"></path>
</svg>