<svg id="Pdf--Streamline-Carbon" xmlns="http://www.w3.org/2000/svg" viewBox="0 0 16 16" height="16" width="16">
  <desc>
    PDF Streamline Icon: https://streamlinehq.com
  </desc>
  <defs></defs>
  <title>PDF</title>
  <path d="m15 5.5 0 -1 -4 0 0 7 1 0 0 -3 2.5 0 0 -1 -2.5 0 0 -2 3 0z" fill="currentColor" stroke-width="0.5"></path>
  <path d="M4 4.5H1v7h1v-2.5h2a1 1 0 0 0 1 -1v-2.5a1 1 0 0 0 -1 -1Zm0 3.5H2v-2.5h2Z" fill="currentColor" stroke-width="0.5"></path>
  <path d="M8 11.5h-2V4.5h2a2 2 0 0 1 2 2v3a2 2 0 0 1 -2 2Zm-1 -1h1a1 1 0 0 0 1 -1v-3a1 1 0 0 0 -1 -1h-1Z" fill="currentColor" stroke-width="0.5"></path>
  <path id="_Transparent_Rectangle_" d="M0 0h16v16H0Z" fill="none" stroke-width="0.5"></path>
</svg>