<svg id="Phone-Ip--Streamline-Carbon" xmlns="http://www.w3.org/2000/svg" viewBox="0 0 16 16" height="16" width="16">
  <desc>
    Phone Ip Streamline Icon: https://streamlinehq.com
  </desc>
  <defs></defs>
  <path d="M8 7h1v1h-1Z" fill="currentColor" stroke-width="0.5"></path>
  <path d="M10 7h1v1h-1Z" fill="currentColor" stroke-width="0.5"></path>
  <path d="M12 7h1v1h-1Z" fill="currentColor" stroke-width="0.5"></path>
  <path d="M8 9h1v1h-1Z" fill="currentColor" stroke-width="0.5"></path>
  <path d="M10 9h1v1h-1Z" fill="currentColor" stroke-width="0.5"></path>
  <path d="M12 9h1v1h-1Z" fill="currentColor" stroke-width="0.5"></path>
  <path d="M8 11h1v1h-1Z" fill="currentColor" stroke-width="0.5"></path>
  <path d="M10 11h1v1h-1Z" fill="currentColor" stroke-width="0.5"></path>
  <path d="M12 11h1v1h-1Z" fill="currentColor" stroke-width="0.5"></path>
  <path d="M8 5h5v1H8Z" fill="currentColor" stroke-width="0.5"></path>
  <path d="M14 3H7V2.5a1.00125 1.00125 0 0 0 -1 -1H4a1.00125 1.00125 0 0 0 -1 1v0.5H2a1.00125 1.00125 0 0 0 -1 1v9a1.00125 1.00125 0 0 0 1 1h12a1.00125 1.00125 0 0 0 1 -1V4a1.00125 1.00125 0 0 0 -1 -1ZM4 2.5h2v8.5H4Zm10 10.5H2V4h1v7a1.00125 1.00125 0 0 0 1 1h2a1.00125 1.00125 0 0 0 1 -1V4h7Z" fill="currentColor" stroke-width="0.5"></path>
  <path id="_Transparent_Rectangle_" d="M0 0h16v16H0Z" fill="none" stroke-width="0.5"></path>
</svg>