<svg id="Phrase-Sentiment--Streamline-Carbon" xmlns="http://www.w3.org/2000/svg" viewBox="0 0 16 16" height="16" width="16">
  <desc>
    Phrase Sentiment Streamline Icon: https://streamlinehq.com
  </desc>
  <defs></defs>
  <title>phrase-sentiment</title>
  <path d="M9.1515 5a1.3308 1.3308 0 0 0 -0.95395 0.4029l-0.1966 0.2027 -0.1985 -0.2027a1.33075 1.33075 0 0 0 -1.90785 0 1.3996 1.3996 0 0 0 0 1.9482L8.00095 9.5l2.10445 -2.1489a1.3996 1.3996 0 0 0 0 -1.9482A1.3308 1.3308 0 0 0 9.1515 5Z" fill="currentColor" stroke-width="0.5"></path>
  <path d="M8.8679 15 8 14.5l2 -3.5h3a0.9983 0.9983 0 0 0 1 -1V4a0.9983 0.9983 0 0 0 -1 -1H3a0.9983 0.9983 0 0 0 -1 1v6a0.9983 0.9983 0 0 0 1 1h4.5v1H3a1.99965 1.99965 0 0 1 -2 -2V4a1.9994 1.9994 0 0 1 2 -2h10a1.9994 1.9994 0 0 1 2 2v6a1.99965 1.99965 0 0 1 -2 2h-2.4177Z" fill="currentColor" stroke-width="0.5"></path>
  <path id="_Transparent_Rectangle_" d="M0 0h16v16H0Z" fill="none" stroke-width="0.5"></path>
</svg>