<svg id="Pie-Slice--Streamline-Atlas" xmlns="http://www.w3.org/2000/svg" viewBox="-0.5 -0.5 16 16" height="16" width="16">
  <desc>
    Pie Slice Streamline Icon: https://streamlinehq.com
  </desc>
  <defs></defs>
  <path d="M14.0625 6.1875v5.25l-13.125 2.625v-5.25L8.15625 0.9375h0.625a5.231249999999999 5.231249999999999 0 0 1 5.25 5.25Z" fill="none" stroke="currentColor" stroke-miterlimit="10" stroke-width="1"></path>
  <path d="M0.9375 10.78125c0.83125 -0.05 1.10625 1.1 2 0.925s0.68125 -1.4749999999999999 1.61875 -1.6625 1.1937499999999999 1.1 2.13125 0.9125 0.68125 -1.4749999999999999 1.6125 -1.65625 1.1937499999999999 1.09375 2.13125 0.9125 0.6875 -1.4812500000000002 1.625 -1.66875 1.1749999999999998 0.9750000000000001 2.00625 0.925" fill="none" stroke="currentColor" stroke-miterlimit="10" stroke-width="1"></path>
  <path d="M8.100000000000001 2.725a0.59375 0.59375 0 1 0 1.1875 0 0.59375 0.59375 0 1 0 -1.1875 0" fill="currentColor" stroke-width="1"></path>
  <path d="M9.8875 3.325a0.59375 0.59375 0 1 0 1.1875 0 0.59375 0.59375 0 1 0 -1.1875 0" fill="currentColor" stroke-width="1"></path>
  <path d="M11.08125 4.518750000000001a0.59375 0.59375 0 1 0 1.1875 0 0.59375 0.59375 0 1 0 -1.1875 0" fill="currentColor" stroke-width="1"></path>
  <path d="m0.9375 8.69375 13.125 -2.9812499999999997" fill="none" stroke="currentColor" stroke-miterlimit="10" stroke-width="1"></path>
</svg>