<svg id="Pie--Streamline-Atlas" xmlns="http://www.w3.org/2000/svg" viewBox="-0.5 -0.5 16 16" height="16" width="16">
  <desc>
    Pie Streamline Icon: https://streamlinehq.com
  </desc>
  <defs></defs>
  <path d="M14.075 10.362499999999999c0 1.15625 -2.94375 1.30625 -6.574999999999999 1.30625s-6.574999999999999 -0.15 -6.574999999999999 -1.30625S3.8687500000000004 6.875 7.5 6.875s6.574999999999999 2.3375000000000004 6.574999999999999 3.4875Z" fill="none" stroke="currentColor" stroke-miterlimit="10" stroke-width="1"></path>
  <path d="m13.46875 11.10625 -1.1875 2.9562500000000003 -9.5625 0 -1.1875 -2.9562500000000003" fill="none" stroke="currentColor" stroke-miterlimit="10" stroke-width="1"></path>
  <path d="m3.9124999999999996 9.875 1.1937499999999999 0" fill="none" stroke="currentColor" stroke-miterlimit="10" stroke-width="1"></path>
  <path d="m6.8999999999999995 9.28125 1.2 0" fill="none" stroke="currentColor" stroke-miterlimit="10" stroke-width="1"></path>
  <path d="m9.89375 9.875 1.1937499999999999 0" fill="none" stroke="currentColor" stroke-miterlimit="10" stroke-width="1"></path>
  <path d="M4.5125 0.3125c0 0.6937500000000001 -0.625 0.6937500000000001 -0.625 1.39375s0.625 0.7000000000000001 0.625 1.39375 -0.625 0.7000000000000001 -0.625 1.4000000000000001" fill="none" stroke="currentColor" stroke-miterlimit="10" stroke-width="1"></path>
  <path d="M8.125 0.9125c0 0.6937500000000001 -0.625 0.6937500000000001 -0.625 1.39375s0.625 0.6937500000000001 0.625 1.39375S7.5 4.375 7.5 5.09375" fill="none" stroke="currentColor" stroke-miterlimit="10" stroke-width="1"></path>
  <path d="M11.6875 0.3125c0 0.6937500000000001 -0.625 0.6937500000000001 -0.625 1.39375s0.625 0.7000000000000001 0.625 1.39375 -0.625 0.7000000000000001 -0.625 1.4000000000000001" fill="none" stroke="currentColor" stroke-miterlimit="10" stroke-width="1"></path>
</svg>