<svg id="Piggy-Bank--Streamline-Carbon" xmlns="http://www.w3.org/2000/svg" viewBox="0 0 16 16" height="16" width="16">
  <desc>
    Piggy Bank Streamline Icon: https://streamlinehq.com
  </desc>
  <defs></defs>
  <path d="M8.25 7H10v-1h-1v-0.5h-1v0.5254A1.25 1.25 0 0 0 8.25 8.5h0.5a0.25 0.25 0 0 1 0 0.5H7v1h1v0.5h1v-0.5254A1.25 1.25 0 0 0 8.75 7.5h-0.5a0.25 0.25 0 0 1 0 -0.5Z" fill="currentColor" stroke-width="0.5"></path>
  <path d="M14.5 6.5h-1.01A2.88945 2.88945 0 0 0 12.5 4.42625V2.5a0.5 0.5 0 0 0 -0.8 -0.4L9.83325 3.5H7.5c-2.75475 0 -4.7317 1.6206 -4.97425 4H2.5a0.50045 0.50045 0 0 1 -0.5 -0.5v-1H1v1a1.50165 1.50165 0 0 0 1.5 1.5h0.035A4.58665 4.58665 0 0 0 4.5 11.7783V13.5a0.5 0.5 0 0 0 0.5 0.5h2a0.5 0.5 0 0 0 0.5 -0.5v-1h1.5v1a0.5 0.5 0 0 0 0.5 0.5h2a0.5 0.5 0 0 0 0.5 -0.5v-1.6814A2.5463 2.5463 0 0 0 13.4094 10H14.5a0.5 0.5 0 0 0 0.5 -0.5v-2.5a0.5 0.5 0 0 0 -0.5 -0.5Zm-0.5 2.5h-1.438c-0.1526 1.37645 -0.41175 1.7427 -1.562 2.1577V13h-1v-1.5h-3.5v1.5h-1v-1.81105A3.5065 3.5065 0 0 1 3.5 8c0 -2.4177 2.00905 -3.5 4 -3.5h2.66675L11.5 3.5v1.3882c1.2091 0.92965 0.9563 1.593 1.00915 2.6118H14Z" fill="currentColor" stroke-width="0.5"></path>
  <path id="_Transparent_Rectangle_" d="M0 0h16v16H0Z" fill="none" stroke-width="0.5"></path>
</svg>