<svg id="Pizza--Streamline-Atlas" xmlns="http://www.w3.org/2000/svg" viewBox="-0.5 -0.5 16 16" height="16" width="16">
  <desc>
    Pizza Streamline Icon: https://streamlinehq.com
  </desc>
  <defs></defs>
  <path d="m5.7125 0.9375 -0.00625 0.025" fill="none" stroke="currentColor" stroke-miterlimit="10" stroke-width="1"></path>
  <path d="m14.0625 9.2875 -0.025 0.00625" fill="none" stroke="currentColor" stroke-miterlimit="10" stroke-width="1"></path>
  <path d="m11.30625 9.8875 0 0.41250000000000003 -8.99375 3.6875a0.9875 0.9875 0 0 1 -0.38125 0.075 0.99375 0.99375 0 0 1 -0.99375 -0.99375 0.9875 0.9875 0 0 1 0.075 -0.38125l3.6875 -8.98125 0.41250000000000003 0a6.1875 6.1875 0 0 1 6.19375 6.18125Z" fill="none" stroke="currentColor" stroke-miterlimit="10" stroke-width="1"></path>
  <path d="M12.45625 11.08125a1.1625 1.1625 0 0 1 -1.1500000000000001 -1.1875 6.1875 6.1875 0 0 0 -6.19375 -6.2 1.1625 1.1625 0 0 1 -1.1875 -1.1500000000000001 1.5875 1.5875 0 0 1 1.5875 -1.5875h0.19375a8.931249999999999 8.931249999999999 0 0 1 8.33125 8.3375 1.5375 1.5375 0 0 1 0 0.19375 1.5875 1.5875 0 0 1 -1.5812499999999998 1.59375Z" fill="none" stroke="currentColor" stroke-miterlimit="10" stroke-width="1"></path>
  <path d="M5.7125 6.30625a0.59375 0.59375 0 1 0 1.1875 0 0.59375 0.59375 0 1 0 -1.1875 0" fill="none" stroke="currentColor" stroke-miterlimit="10" stroke-width="1"></path>
  <path d="M5.7125 11.08125a0.59375 0.59375 0 1 0 1.1875 0 0.59375 0.59375 0 1 0 -1.1875 0" fill="none" stroke="currentColor" stroke-miterlimit="10" stroke-width="1"></path>
  <path d="m7.5 9.2875 1.7874999999999999 -1.1937499999999999" fill="none" stroke="currentColor" stroke-miterlimit="10" stroke-width="1"></path>
  <path d="m3.325 11.675 0 1.7937500000000002" fill="none" stroke="currentColor" stroke-miterlimit="10" stroke-width="1"></path>
  <path d="m4.518750000000001 8.69375 1.7874999999999999 0" fill="none" stroke="currentColor" stroke-miterlimit="10" stroke-width="1"></path>
</svg>