<svg id="Png--Streamline-Carbon" xmlns="http://www.w3.org/2000/svg" viewBox="0 0 16 16" height="16" width="16">
  <desc>
    PNG Streamline Icon: https://streamlinehq.com
  </desc>
  <defs></defs>
  <title>PNG</title>
  <path d="M15 11.5h-3a1 1 0 0 1 -1 -1V5.5a1 1 0 0 1 1 -1h3v1h-3v5h2v-2h-1v-1h2Z" fill="currentColor" stroke-width="0.5"></path>
  <path d="M9 9.5 7.16 4.5 6 4.5l0 7 1 0 0 -5 1.84 5L10 11.5l0 -7 -1 0 0 5z" fill="currentColor" stroke-width="0.5"></path>
  <path d="M2 11.5H1V4.5h3a1 1 0 0 1 1 1v2.5a1 1 0 0 1 -1 1H2Zm0 -3.5h2v-2.5H2Z" fill="currentColor" stroke-width="0.5"></path>
  <path id="_Transparent_Rectangle_" d="M0 0h16v16H0Z" fill="none" stroke-width="0.5"></path>
</svg>