<svg id="Ppt--Streamline-Carbon" xmlns="http://www.w3.org/2000/svg" viewBox="0 0 16 16" height="16" width="16">
  <desc>
    PPT Streamline Icon: https://streamlinehq.com
  </desc>
  <defs></defs>
  <title>PPT</title>
  <path d="m11 5.5 1.5 0 0 6 1 0 0 -6 1.5 0 0 -1 -4 0 0 1z" fill="currentColor" stroke-width="0.5"></path>
  <path d="M7 11.5h-1V4.5h3a1.001 1.001 0 0 1 1 1v2.5a1.001 1.001 0 0 1 -1 1h-2Zm0 -3.5h2v-2.50075h-2Z" fill="currentColor" stroke-width="0.5"></path>
  <path d="M2 11.5H1V4.5h3a1.001 1.001 0 0 1 1 1v2.5a1.001 1.001 0 0 1 -1 1H2Zm0 -3.5h2v-2.50075H2Z" fill="currentColor" stroke-width="0.5"></path>
  <path id="_Transparent_Rectangle_" d="M0 0h16v16H0Z" fill="none" stroke-width="0.5"></path>
</svg>