<svg id="Pricing-Traditional--Streamline-Carbon" xmlns="http://www.w3.org/2000/svg" viewBox="0 0 16 16" height="16" width="16">
  <desc>
    Pricing Traditional Streamline Icon: https://streamlinehq.com
  </desc>
  <defs></defs>
  <path d="M8.5 7.5349V4.0581c0.84545 0.13965 1.542 0.55105 2.11095 1.25585l0.7781 -0.62795C10.6293 3.74485 9.6581 3.1992 8.5 3.04805V1.49995h-1v1.511c-1.8076 0.1096 -3 1.13015 -3 2.6101 0 2.13695 1.56325 2.55955 3 2.7793v3.5808c-1.3596 -0.08885 -2.0093 -0.55005 -2.61095 -1.29515l-0.7781 0.62795c0.88515 1.0967 1.8666 1.584 3.38905 1.66845V14.5h1v-1.52245c1.8628 -0.1521 3 -1.16355 3 -2.71995 0 -2.1045 -1.5714 -2.5078 -3 -2.72265Zm-3 -1.9138c0 -1.07665 1.01465 -1.52685 2 -1.6067v3.3733c-1.2848 -0.2119 -2 -0.5215 -2 -1.7666Zm3 6.355v-3.4287c1.28345 0.20775 2 0.5022 2 1.7102 0 1.26805 -1.0951 1.6328 -2 1.7185Z" stroke-width="0.5" fill="currentColor"></path>
  <path id="_Transparent_Rectangle_" d="M0 0h16v16H0Z" stroke-width="0.5" fill="none"></path>
</svg>