<svg id="Raw--Streamline-Carbon" xmlns="http://www.w3.org/2000/svg" viewBox="0 0 16 16" height="16" width="16">
  <desc>
    RAW Streamline Icon: https://streamlinehq.com
  </desc>
  <defs></defs>
  <title>RAW</title>
  <path d="m14.6 4.5 -0.17 4 -0.13 2.27 -0.205 -1.77 -0.34 -2.73 -1.01 0 -0.34 2.73 -0.205 1.77 -0.13 -2.27 -0.17 -4L11 4.5l0.5 7 1.135 0 0.38 -2.465 0.23 -2.035 0.005 -0.015 0.005 0.015 0.23 2.035 0.38 2.465L15 11.5l0.5 -7 -0.9 0z" fill="currentColor" stroke-width="0.5"></path>
  <path d="M9 4.5h-2a1 1 0 0 0 -1 1v6h1v-2.5h2v2.5h1V5.5a1 1 0 0 0 -1 -1Zm-2 3.5v-2.5h2v2.5Z" fill="currentColor" stroke-width="0.5"></path>
  <path d="M5 7.5v-2a1 1 0 0 0 -1 -1H1v7h1v-3h0.74l1.17 3H5l-1.185 -3H4a1 1 0 0 0 1 -1Zm-3 -2h2v2H2Z" fill="currentColor" stroke-width="0.5"></path>
  <path id="_Transparent_Rectangle_" d="M0 0h16v16H0Z" fill="none" stroke-width="0.5"></path>
</svg>