<svg id="Reminder--Streamline-Carbon" xmlns="http://www.w3.org/2000/svg" viewBox="0 0 16 16" height="16" width="16">
  <desc>
    Reminder Streamline Icon: https://streamlinehq.com
  </desc>
  <defs></defs>
  <title>reminder</title>
  <path d="m15 11.6909 -1 -0.5V10a3.0023 3.0023 0 0 0 -2.5 -2.955V6h-1v1.045A3.0023 3.0023 0 0 0 8 10v1.1909l-1 0.5V14h3v1h2v-1h3ZM14 13H8v-0.6909l1 -0.5V10a2 2 0 0 1 4 0v1.8091l1 0.5Z" fill="currentColor" stroke-width="0.5"></path>
  <path d="M14 3a1 1 0 0 0 -1 -1h-2V1h-1v1h-4V1h-1v1H3a1 1 0 0 0 -1 1v10a1 1 0 0 0 1 1h2v-1H3V3h2v1h1V3h4v1h1V3h2v3h1Z" fill="currentColor" stroke-width="0.5"></path>
  <path id="_Transparent_Rectangle_" d="M0 0h16v16H0Z" fill="none" stroke-width="0.5"></path>
</svg>