<svg id="Reminder-Medical--Streamline-Carbon" xmlns="http://www.w3.org/2000/svg" viewBox="0 0 16 16" height="16" width="16">
  <desc>
    Reminder Medical Streamline Icon: https://streamlinehq.com
  </desc>
  <defs></defs>
  <title>reminder--medical</title>
  <path d="M13.5 6v1h0.5v2a1.5 1.5 0 0 1 -3 0v-2h0.5v-1h-1.5v3a2.50415 2.50415 0 0 0 2 2.44945V12a2 2 0 0 1 -4 0v-1.09215a1.5 1.5 0 1 0 -1 0V12a3 3 0 0 0 6 0v-0.55055A2.50415 2.50415 0 0 0 15 9v-3Zm-6 3a0.5 0.5 0 1 1 -0.5 0.5 0.50045 0.50045 0 0 1 0.5 -0.5Z" fill="currentColor" stroke-width="0.5"></path>
  <path d="M13 2h-2V1h-1v1h-4V1h-1v1H3a1 1 0 0 0 -1 1v10a1 1 0 0 0 1 1l2 0v-1l-2 0V3h2v1h1V3h4v1h1V3h2v2h1V3a1 1 0 0 0 -1 -1Z" fill="currentColor" stroke-width="0.5"></path>
  <path id="_Transparent_Rectangle_" d="M0 0h16v16H0Z" fill="none" stroke-width="0.5"></path>
</svg>