<svg xmlns="http://www.w3.org/2000/svg" fill="none" viewBox="0 0 24 24" id="Settings-Backup-Restore--Streamline-Sharp-Material" height="24" width="24">
  <desc>
    Settings Backup Restore Streamline Icon: https://streamlinehq.com
  </desc>
  <path fill="#000000" d="M11.999 13.875c-0.516 0 -0.95735 -0.18365 -1.324 -0.551 -0.36665 -0.3675 -0.55 -0.80915 -0.55 -1.325 0 -0.516 0.18365 -0.95735 0.551 -1.324 0.3675 -0.36665 0.80915 -0.55 1.325 -0.55 0.516 0 0.95735 0.18365 1.324 0.551 0.36665 0.3675 0.55 0.80915 0.55 1.325 0 0.516 -0.18365 0.95735 -0.551 1.324 -0.3675 0.36665 -0.80915 0.55 -1.325 0.55ZM12 21c-2.5 0 -4.625 -0.87915 -6.375 -2.6375S3 14.475 3 11.975h1.5c0 2.08335 0.72915 3.85835 2.1875 5.325S9.91665 19.5 12 19.5c2.08935 0 3.86165 -0.72765 5.317 -2.183C18.77235 15.86165 19.5 14.08935 19.5 12s-0.72765 -3.86165 -2.183 -5.317C15.86165 5.22765 14.08935 4.5 12 4.5c-1.15 0 -2.225 0.254165 -3.225 0.7625 -1 0.50835 -1.875 1.19585 -2.625 2.0625h2.6v1.5H3.55V3.625h1.5v2.65c0.88335 -1.03335 1.92685 -1.8375 3.1305 -2.4125C9.384 3.2875 10.65715 3 12 3c1.25 0 2.42085 0.2375 3.5125 0.7125 1.09165 0.475 2.04165 1.116665 2.85 1.925 0.80835 0.80835 1.45 1.75835 1.925 2.85C20.7625 9.57915 21 10.75 21 12s-0.2375 2.42085 -0.7125 3.5125c-0.475 1.09165 -1.11665 2.04165 -1.925 2.85 -0.80835 0.80835 -1.75835 1.45 -2.85 1.925C14.42085 20.7625 13.25 21 12 21Z" stroke-width="0.5"></path>
</svg>