<svg id="Save--Streamline-Carbon" xmlns="http://www.w3.org/2000/svg" viewBox="0 0 16 16" height="16" width="16">
  <desc>
    Save Streamline Icon: https://streamlinehq.com
  </desc>
  <defs></defs>
  <title>save</title>
  <path d="m13.855 4.645 -2.5 -2.5A0.5 0.5 0 0 0 11 2H3a1 1 0 0 0 -1 1v10a1 1 0 0 0 1 1h10a1 1 0 0 0 1 -1V5a0.5 0.5 0 0 0 -0.145 -0.355ZM6 3h4v2h-4Zm4 10h-4v-4h4Zm1 0v-4a1 1 0 0 0 -1 -1h-4a1 1 0 0 0 -1 1v4H3V3h2v2a1 1 0 0 0 1 1h4a1 1 0 0 0 1 -1V3.205l2 2V13Z" fill="currentColor" stroke-width="0.5"></path>
  <path id="_Transparent_Rectangle_" d="M0 0h16v16H0Z" fill="none" stroke-width="0.5"></path>
</svg>