<svg id="Service-Desk--Streamline-Carbon" xmlns="http://www.w3.org/2000/svg" viewBox="0 0 32 32" height="16" width="16">
  <desc>
    Service Desk Streamline Icon: https://streamlinehq.com
  </desc>
  <defs></defs>
  <title>service-desk</title>
  <path d="M28 24v-2a12.01 12.01 0 0 0-11-11.9493V8h3V6h-8v2h3v2.0507A12.01 12.01 0 0 0 4 22v2H2v2h28v-2ZM16 12a10.0167 10.0167 0 0 1 9.7984 8H6.2015A10.0165 10.0165 0 0 1 16 12ZM6 22h20v2H6Z" transform="translate(0 .005)" fill="currentColor"></path>
  <path id="_Transparent_Rectangle_" d="M0 0h32v32H0Z" fill="none"></path>
</svg>