<svg id="Bare-Metal-Server-02--Streamline-Carbon" xmlns="http://www.w3.org/2000/svg" viewBox="0 0 16 16" height="16" width="16">
  <desc>
    Bare Metal Server 02 Streamline Icon: https://streamlinehq.com
  </desc>
  <defs></defs>
  <path d="m8.5 14 0 -3 -1 0 0 3 -5 0 0 1 11 0 0 -1 -5 0z" fill="currentColor" stroke-width="0.5"></path>
  <path d="M4 8a0.5 0.5 0 1 0 1 0 0.5 0.5 0 1 0 -1 0" fill="currentColor" stroke-width="0.5"></path>
  <path d="M13 10H3a1.00115 1.00115 0 0 1 -1 -1v-2a1.00115 1.00115 0 0 1 1 -1h10a1.00115 1.00115 0 0 1 1 1v2a1.00115 1.00115 0 0 1 -1 1ZM3 7v2h10v-2Z" fill="currentColor" stroke-width="0.5"></path>
  <path d="M4 3a0.5 0.5 0 1 0 1 0 0.5 0.5 0 1 0 -1 0" fill="currentColor" stroke-width="0.5"></path>
  <path d="M13 5H3a1.00115 1.00115 0 0 1 -1 -1V2a1.00115 1.00115 0 0 1 1 -1h10a1.00115 1.00115 0 0 1 1 1v2a1.00115 1.00115 0 0 1 -1 1ZM3 2v2h10V2Z" fill="currentColor" stroke-width="0.5"></path>
  <path id="_Transparent_Rectangle_" d="M0 0h16v16H0Z" fill="none" stroke-width="0.5"></path>
</svg>