<svg xmlns="http://www.w3.org/2000/svg" fill="none" viewBox="0 0 24 24" id="Sign-Language--Streamline-Guidance-Free" height="24" width="24">
  <desc>
    Sign Language Streamline Icon: https://streamlinehq.com
  </desc>
  <path stroke="currentColor" d="m0.5 24 0 -18H1a3 3 0 0 1 3 3v4L4 3h0.5a3 3 0 0 1 3 3v6.5l2 0a3 3 0 0 1 3 3v6h-2A2.5 2.5 0 0 0 8 24m1 -8.5V19m0 -1.75h3.5M23.5 0l0 18H23a3 3 0 0 1 -3 -3v-4l0 10h-0.5a3 3 0 0 1 -3 -3v-6.5h-2a3 3 0 0 1 -3 -3l0 -6 2 0A2.5 2.5 0 0 0 16 0m-1 8.5V5m0 1.75h-3.5" stroke-width="1"></path>
</svg>