<svg id="Stethoscope--Streamline-Carbon" xmlns="http://www.w3.org/2000/svg" viewBox="0 0 16 16" height="16" width="16">
  <desc>
    Stethoscope Streamline Icon: https://streamlinehq.com
  </desc>
  <defs></defs>
  <title>stethoscope</title>
  <path d="M12 1v1h1v3a2 2 0 0 1 -4 0V2h1V1h-2v4a3.00255 3.00255 0 0 0 2.5 2.955V11a3 3 0 0 1 -6 0v-3.07105a2 2 0 1 0 -1 0V11a4 4 0 0 0 8 0v-3.045A3.00255 3.00255 0 0 0 14 5V1ZM3 6a1 1 0 1 1 1 1 1.00115 1.00115 0 0 1 -1 -1Z" fill="currentColor" stroke-width="0.5"></path>
  <path id="_Transparent_Rectangle_" d="M0 0h16v16H0Z" fill="none" stroke-width="0.5"></path>
</svg>