<svg id="Svg--Streamline-Carbon" xmlns="http://www.w3.org/2000/svg" viewBox="0 0 32 32" height="16" width="16">
  <desc>
    SVG Streamline Icon: https://streamlinehq.com
  </desc>
  <defs></defs>
  <title>SVG</title>
  <path d="M30 23h-6a2 2 0 0 1-2-2V11a2 2 0 0 1 2-2h6v2h-6v10h4v-4h-2v-2h4Z" fill="currentColor"></path>
  <path d="m18 9-2 13-2-13-2 0 2.52 14 2.96 0L20 9l-2 0z" fill="currentColor"></path>
  <path d="M8 23H2v-2h6v-4H4a2 2 0 0 1-2-2v-4a2 2 0 0 1 2-2h6v2H4v4h4a2 2 0 0 1 2 2v4a2 2 0 0 1-2 2Z" fill="currentColor"></path>
  <path id="_Transparent_Rectangle_" transform="rotate(-180 16 16)" d="M0 0h32v32H0Z" fill="none"></path>
</svg>