<svg xmlns="http://www.w3.org/2000/svg" fill="none" viewBox="0 0 24 24" id="Tabs--Streamline-Rounded-Material" height="24" width="24">
  <desc>
    Tabs Streamline Icon: https://streamlinehq.com
  </desc>
  <path fill="currentColor" d="M4.5 21c-0.4 0 -0.75 -0.15 -1.05 -0.45 -0.3 -0.3 -0.45 -0.65 -0.45 -1.05V4.5c0 -0.4 0.15 -0.75 0.45 -1.05C3.75 3.15 4.1 3 4.5 3h15c0.4 0 0.75 0.15 1.05 0.45 0.3 0.3 0.45 0.65 0.45 1.05v15c0 0.4 -0.15 0.75 -0.45 1.05 -0.3 0.3 -0.65 0.45 -1.05 0.45H4.5Zm0 -1.5h15V11.675H4.5V19.5Zm0 -9.325h15V4.5H4.5v5.675Zm13.5 -3.425c0.2125 0 0.39065 -0.07235 0.5345 -0.217 0.14365 -0.1445 0.2155 -0.32365 0.2155 -0.5375 0 -0.21365 -0.07185 -0.39135 -0.2155 -0.533 -0.14385 -0.14165 -0.322 -0.2125 -0.5345 -0.2125h-3.225c-0.2125 0 -0.3906 0.07235 -0.53425 0.217 -0.14385 0.1445 -0.21575 0.32365 -0.21575 0.5375 0 0.21365 0.0719 0.39135 0.21575 0.533 0.14365 0.14165 0.32175 0.2125 0.53425 0.2125H18Z" stroke-width="0.5"></path>
</svg>