<svg id="Taco--Streamline-Atlas" xmlns="http://www.w3.org/2000/svg" viewBox="-0.5 -0.5 16 16" height="16" width="16">
  <desc>
    Taco Streamline Icon: https://streamlinehq.com
  </desc>
  <defs></defs>
  <path d="m12.86875 12.875 -10.7375 0a1.1937499999999999 1.1937499999999999 0 0 1 -1.1937499999999999 -1.1937499999999999A6.5625 6.5625 0 0 1 7.5 5.1187499999999995a6.5625 6.5625 0 0 1 6.5625 6.5625 1.1937499999999999 1.1937499999999999 0 0 1 -1.1937499999999999 1.1937499999999999Z" fill="none" stroke="currentColor" stroke-miterlimit="10" stroke-width="1"></path>
  <path d="M1.5375 8.887500000000001c0.15 -0.55625 -0.34375 -2.58125 -0.0625 -3.075s1.25 -0.475 1.6625 -0.88125 0.3875 -1.375 0.88125 -1.6625 1.3250000000000002 0.21875 1.875 0.06875 1.0125000000000002 -1 1.6 -1 1.05625 0.8500000000000001 1.6 1 1.3875000000000002 -0.35000000000000003 1.875 -0.06875 0.475 1.25 0.88125 1.6625 1.375 0.3875 1.6625 0.8875 -0.21250000000000002 2.5 -0.0625 3.06875" fill="none" stroke="currentColor" stroke-miterlimit="10" stroke-width="1"></path>
  <path d="m3.325 9.89375 1.1937499999999999 1.1937499999999999" fill="none" stroke="currentColor" stroke-miterlimit="10" stroke-width="1"></path>
  <path d="m8.09375 9.29375 0 1.1937499999999999" fill="none" stroke="currentColor" stroke-miterlimit="10" stroke-width="1"></path>
  <path d="m11.08125 9.29375 0 1.7937500000000002" fill="none" stroke="currentColor" stroke-miterlimit="10" stroke-width="1"></path>
  <path d="m5.7125 6.90625 1.1937499999999999 1.1937499999999999" fill="none" stroke="currentColor" stroke-miterlimit="10" stroke-width="1"></path>
</svg>