<svg id="Template--Streamline-Carbon" xmlns="http://www.w3.org/2000/svg" viewBox="0 0 16 16" height="16" width="16">
  <desc>
    Template Streamline Icon: https://streamlinehq.com
  </desc>
  <defs></defs>
  <title>template</title>
  <path d="M13 3v2H3V3h10m0 -1H3a1 1 0 0 0 -1 1v2a1 1 0 0 0 1 1h10a1 1 0 0 0 1 -1V3a1 1 0 0 0 -1 -1Z" fill="currentColor" stroke-width="0.5"></path>
  <path d="M5 8v5H3V8h2m0 -1H3a1 1 0 0 0 -1 1v5a1 1 0 0 0 1 1h2a1 1 0 0 0 1 -1V8a1 1 0 0 0 -1 -1Z" fill="currentColor" stroke-width="0.5"></path>
  <path d="M13 8v5H8V8h5m0 -1H8a1 1 0 0 0 -1 1v5a1 1 0 0 0 1 1h5a1 1 0 0 0 1 -1V8a1 1 0 0 0 -1 -1Z" fill="currentColor" stroke-width="0.5"></path>
  <path d="M0 0h16v16H0Z" fill="none" stroke-width="0.5"></path>
</svg>