<svg id="Text-Strikethrough--Streamline-Carbon" xmlns="http://www.w3.org/2000/svg" viewBox="0 0 16 16" height="16" width="16">
  <desc>
    Text Strikethrough Streamline Icon: https://streamlinehq.com
  </desc>
  <defs></defs>
  <title>text--strikethrough</title>
  <path d="M14 7.5H8.97815c-0.2261 -0.06185 -0.45185 -0.1162 -0.66905 -0.1676 -1.40385 -0.33205 -2.198 -0.5753 -2.198 -1.71155a1.4342 1.4342 0 0 1 0.3933 -1.0725 2.3944 2.3944 0 0 1 1.50685 -0.545c1.41455 -0.035 2.06735 0.4447 2.60055 1.175l0.80765 -0.5896a3.73635 3.73635 0 0 0 -3.415 -1.5853 3.3863 3.3863 0 0 0 -2.2 0.83055 2.4137 2.4137 0 0 0 -0.6931 1.78675A2.18615 2.18615 0 0 0 5.97865 7.5H2v1h6.82595c0.9834 0.285 1.5716 0.65615 1.58665 1.67895a1.5595 1.5595 0 0 1 -0.43115 1.19655A2.91205 2.91205 0 0 1 8.1216 12a3.3172 3.3172 0 0 1 -2.57255 -1.3456L4.78245 11.2965A4.2631 4.2631 0 0 0 8.10595 13c0.0044 -0.0006 0.021 0 0.05 0a3.835 3.835 0 0 0 2.52405 -0.9094 2.53895 2.53895 0 0 0 0.7324 -1.92655A2.476 2.476 0 0 0 10.83765 8.5H14Z" fill="currentColor" stroke-width="0.5"></path>
  <path id="_Transparent_Rectangle_" d="M0 0h16v16H0Z" fill="none" stroke-width="0.5"></path>
</svg>