<svg id="Text-Clear-Format--Streamline-Carbon" xmlns="http://www.w3.org/2000/svg" viewBox="0 0 16 16" height="16" width="16">
  <desc>
    Text Clear Format Streamline Icon: https://streamlinehq.com
  </desc>
  <defs></defs>
  <path d="m14.7192 8.28575 -3.9925 -3.9928a1.0007 1.0007 0 0 0 -1.41455 0l-2.6792 2.6792L4.5 1H3.5L1 8h1l0.4995 -1.5h3l0.40175 1.20385 -3.60835 3.60835a1 1 0 0 0 0 1.4141L4.5658 15h4.7954l5.358 -5.3585a0.95865 0.95865 0 0 0 0 -1.35575ZM2.83265 5.5l1.1655 -3.5 1.16775 3.5Zm6.1145 8.5H4.98L3 12.01905l3.15615 -3.15575 3.96385 3.9636Zm1.88 -1.88 -3.96375 -3.9636L10.01965 5l3.9634 3.9636Z" fill="currentColor" stroke-width="0.5"></path>
  <path id="_Transparent_Rectangle_" d="M0 0h16v16H0Z" fill="none" stroke-width="0.5"></path>
</svg>