<svg xmlns="http://www.w3.org/2000/svg" fill="none" viewBox="0 0 24 24" id="Update--Streamline-Sharp-Material" height="24" width="24">
  <desc>
    Update Streamline Icon: https://streamlinehq.com
  </desc>
  <path fill="#000000" d="M12.075 21c-1.25 0 -2.425 -0.2375 -3.525 -0.7125 -1.1 -0.475 -2.0625 -1.12085 -2.8875 -1.9375 -0.825 -0.81665 -1.475 -1.775 -1.95 -2.875C3.2375 14.375 3 13.2 3 11.95s0.2375 -2.41665 0.7125 -3.5c0.475 -1.08335 1.125 -2.02915 1.95 -2.8375C6.4875 4.804165 7.45 4.166665 8.55 3.7c1.1 -0.466665 2.275 -0.7 3.525 -0.7 1.33335 0 2.59585 0.291665 3.7875 0.875 1.19165 0.583335 2.22085 1.38335 3.0875 2.4v-2.65h1.5v5.2H15.225v-1.5h2.625c-0.73335 -0.85 -1.59585 -1.53335 -2.5875 -2.05C14.27085 4.758335 13.20835 4.5 12.075 4.5c-2.08335 0 -3.86665 0.7125 -5.35 2.1375C5.24165 8.0625 4.5 9.80835 4.5 11.875c0 2.11665 0.73335 3.91665 2.2 5.4C8.16665 18.75835 9.95835 19.5 12.075 19.5c2.08335 0 3.84165 -0.73335 5.275 -2.2 1.43335 -1.46665 2.15 -3.24165 2.15 -5.325h1.5c0 2.5 -0.86665 4.62915 -2.6 6.3875C16.66665 20.12085 14.55835 21 12.075 21Zm3.05 -4.925 -3.85 -3.8v-5.35h1.5v4.725L16.2 15l-1.075 1.075Z" stroke-width="0.5"></path>
</svg>