<svg id="User-Avatar-Filled-Alt--Streamline-Carbon" xmlns="http://www.w3.org/2000/svg" viewBox="0 0 16 16" height="16" width="16">
  <desc>
    User Avatar Filled Alt Streamline Icon: https://streamlinehq.com
  </desc>
  <defs></defs>
  <path d="M8 4a2.5 2.5 0 1 0 2.5 2.5 2.5 2.5 0 0 0 -2.5 -2.5Z" fill="currentColor" stroke-width="0.5"></path>
  <path d="M8 1a7 7 0 1 0 7 7A7.0079 7.0079 0 0 0 8 1Zm3.99625 11.4629A2.5008 2.5008 0 0 0 9.5 10h-3a2.5008 2.5008 0 0 0 -2.49625 2.4629 6 6 0 1 1 7.9925 0Z" fill="currentColor" stroke-width="0.5"></path>
  <path id="_Transparent_Rectangle_" d="M0 0h16v16H0Z" fill="none" stroke-width="0.5"></path>
</svg>