<svg xmlns="http://www.w3.org/2000/svg" viewBox="0 0 16 16" id="Cc-Visa--Streamline-Font-Awesome" height="16" width="16">
  <desc>
    Cc Visa Streamline Icon: https://streamlinehq.com
  </desc>
<!--! Font Awesome Free 6.5.2 by @fontawesome - https://fontawesome.com License - https://fontawesome.com/license/free (Icons: CC BY 4.0, Fonts: SIL OFL 1.1, Code: MIT License) Copyright 2024 Fonticons, Inc.-->
  <path d="M12.957166666666666 7.327611111111111s0.2068888888888889 1.0126666666666666 0.25316666666666665 1.2249999999999999H12.30111111111111c0.08983333333333333 -0.24227777777777776 0.43555555555555553 -1.1841666666666666 0.43555555555555553 -1.1841666666666666 -0.0054444444444444445 0.008166666666666666 0.08983333333333333 -0.24772222222222218 0.14427777777777775 -0.4056111111111111l0.07622222222222222 0.36477777777777776ZM15.84 3.2088888888888887v9.58222222222222c0 0.7213888888888889 -0.5852777777777778 1.3066666666666666 -1.3066666666666666 1.3066666666666666H1.4666666666666666c-0.7213888888888889 0 -1.3066666666666666 -0.5852777777777778 -1.3066666666666666 -1.3066666666666666V3.2088888888888887c0 -0.7213888888888889 0.5852777777777778 -1.3066666666666666 1.3066666666666666 -1.3066666666666666h13.066666666666665c0.7213888888888889 0 1.3066666666666666 0.5852777777777778 1.3066666666666666 1.3066666666666666ZM4.311388888888889 10.04711111111111 6.031833333333332 5.822222222222222h-1.1569444444444443l-1.0698333333333334 2.8855555555555554 -0.11705555555555557 -0.5852777777777778 -0.3811111111111111 -1.9436666666666664c-0.0626111111111111 -0.26949999999999996 -0.2558888888888889 -0.3457222222222222 -0.49544444444444435 -0.35661111111111105H1.0501666666666665l-0.019055555555555555 0.08438888888888887c0.4301111111111111 0.10888888888888888 0.8139444444444444 0.2667777777777777 1.1487777777777777 0.46549999999999997l0.9745555555555556 3.6750000000000003h1.1569444444444443Zm2.5697777777777775 0.0054444444444444445L7.567166666666666 5.822222222222222h-1.0943333333333334l-0.6832777777777778 4.230333333333333h1.091611111111111Zm3.8083888888888886 -1.3828888888888888c0.0054444444444444445 -0.48183333333333334 -0.2885555555555555 -0.8493333333333333 -0.9173888888888889 -1.1515 -0.3838333333333333 -0.19327777777777777 -0.6179444444444444 -0.3239444444444444 -0.6179444444444444 -0.5226666666666666 0.0054444444444444445 -0.17966666666666667 0.19872222222222222 -0.36477777777777776 0.6288333333333334 -0.36477777777777776 0.35661111111111105 -0.008166666666666666 0.6179444444444444 0.07622222222222222 0.8139444444444444 0.1606111111111111l0.09799999999999999 0.04627777777777777 0.1497222222222222 -0.9146666666666665c-0.21505555555555556 -0.08438888888888887 -0.5580555555555555 -0.17966666666666667 -0.98 -0.17966666666666667 -1.0807222222222221 0 -1.8402222222222222 0.577111111111111 -1.8456666666666666 1.3992222222222221 -0.008166666666666666 0.6070555555555555 0.5444444444444445 0.9446111111111111 0.9582222222222222 1.1487777777777777 0.4219444444444444 0.2068888888888889 0.5662222222222222 0.343 0.5662222222222222 0.5253888888888889 -0.0054444444444444445 0.2831111111111111 -0.343 0.4137777777777778 -0.6560555555555555 0.4137777777777778 -0.43555555555555553 0 -0.6696666666666666 -0.06805555555555556 -1.0262777777777776 -0.22594444444444445l-0.14427777777777775 -0.06805555555555556 -0.15244444444444444 0.9500555555555554c0.2558888888888889 0.11705555555555557 0.7295555555555555 0.22049999999999997 1.2195555555555555 0.22594444444444445 1.1487777777777777 0.0027222222222222222 1.8973888888888888 -0.5662222222222222 1.9055555555555552 -1.4427777777777777ZM14.533333333333333 10.052555555555555 13.651333333333332 5.822222222222222H12.804722222222223c-0.2613333333333333 0 -0.46005555555555555 0.07622222222222222 -0.5716666666666665 0.3511666666666666l-1.6251666666666666 3.8791666666666664h1.1487777777777777s0.18783333333333332 -0.5226666666666666 0.22866666666666663 -0.6342777777777777h1.4046666666666665c0.03266666666666666 0.1497222222222222 0.13066666666666665 0.6342777777777777 0.13066666666666665 0.6342777777777777H14.533333333333333Z" fill="currentColor" stroke-width="0.0278"></path>
</svg>