<svg id="Vmdk-Disk--Streamline-Carbon" xmlns="http://www.w3.org/2000/svg" viewBox="0 0 32 32" height="16" width="16">
  <desc>
    Vmdk Disk Streamline Icon: https://streamlinehq.com
  </desc>
  <defs></defs>
  <title>vmdk-disk</title>
  <path d="M9 24.5a1.5 1.5 0 1 0 3 0 1.5 1.5 0 1 0-3 0" fill="currentColor"></path>
  <path transform="rotate(-45 20.5 17.5)" d="M19.5 14.9645h2v5.0711h-2Z" fill="currentColor"></path>
  <path d="M14 13a2 2 0 1 0 4 0 2 2 0 1 0-4 0" fill="currentColor"></path>
  <path d="M16 6a7 7 0 0 0 0 14v-2a5 5 0 1 1 5-5h2a7 7 0 0 0-7-7Z" fill="currentColor"></path>
  <path d="M26 2H6a2 2 0 0 0-2 2v24a2 2 0 0 0 2 2h20a2 2 0 0 0 2-2V4a2 2 0 0 0-2-2Zm0 26H6V4h20Z" fill="currentColor"></path>
  <path id="_Transparent_Rectangle_" d="M0 0h32v32H0Z" fill="none"></path>
</svg>