<svg id="Wallet--Streamline-Carbon" xmlns="http://www.w3.org/2000/svg" viewBox="0 0 16 16" height="16" width="16">
  <desc>
    Wallet Streamline Icon: https://streamlinehq.com
  </desc>
  <defs></defs>
  <title>wallet</title>
  <path id="_Transparent_Rectangle_" d="M0 0h16v16H0Z" fill="none" stroke-width="0.5"></path>
  <path d="M11 8.5h1v1h-1Z" fill="currentColor" stroke-width="0.5"></path>
  <path d="M14 4H2V2.5h11V1.5H2a1 1 0 0 0 -1 1v10.5a1 1 0 0 0 1 1h12a1 1 0 0 0 1 -1V5a1 1 0 0 0 -1 -1ZM2 13V5h12v1.5h-4a1 1 0 0 0 -1 1v3a1 1 0 0 0 1 1h4v1.5Zm12 -5.5v3h-4v-3Z" fill="currentColor" stroke-width="0.5"></path>
</svg>