<svg id="Wmv--Streamline-Carbon" xmlns="http://www.w3.org/2000/svg" viewBox="0 0 16 16" height="16" width="16">
  <desc>
    WMV Streamline Icon: https://streamlinehq.com
  </desc>
  <defs></defs>
  <title>WMV</title>
  <path d="m14.5 4.5 -1 6.5 -1 -6.5 -1 0 1.26 7 1.48 0L15.5 4.5l-1 0z" fill="currentColor" stroke-width="0.5"></path>
  <path d="m9.5 4.5 -0.76 2.5 -0.24 0.99 -0.23 -0.99L7.5 4.5l-1 0 0 7 1 0 0 -4 -0.08 -1 0.29 1L8.5 9.815 9.29 7.5l0.29 -1 -0.08 1 0 4 1 0 0 -7 -1 0z" fill="currentColor" stroke-width="0.5"></path>
  <path d="m4.6 4.5 -0.17 4 -0.13 2.27L4.095 9l-0.34 -2.73 -1.01 0L2.405 9l-0.205 1.77L2.07 8.5 1.9 4.5 1 4.5l0.5 7 1.135 0 0.38 -2.465 0.23 -2.035 0.005 -0.015 0.005 0.015 0.23 2.035 0.38 2.465L5 11.5l0.5 -7 -0.9 0z" fill="currentColor" stroke-width="0.5"></path>
  <path id="_Transparent_Rectangle_" d="M0 0h16v16H0Z" fill="none" stroke-width="0.5"></path>
</svg>