<svg id="Xls--Streamline-Carbon" xmlns="http://www.w3.org/2000/svg" viewBox="0 0 16 16" height="16" width="16">
  <desc>
    XLS Streamline Icon: https://streamlinehq.com
  </desc>
  <defs></defs>
  <title>XLS</title>
  <path d="M14 11.5h-3v-1h3v-2h-2a1.001 1.001 0 0 1 -1 -1v-2a1.001 1.001 0 0 1 1 -1h3v1h-3v2h2a1.001 1.001 0 0 1 1 1v2a1.00115 1.00115 0 0 1 -1 1Z" fill="currentColor" stroke-width="0.5"></path>
  <path d="m7 10.5 0 -6 -1 0 0 7 4 0 0 -1 -3 0z" fill="currentColor" stroke-width="0.5"></path>
  <path d="M5 4.5 4 4.5l-1 3 -1 -3 -1 0 1.376 3.5L1 11.5l1 0 1 -3 1 3 1 0 -1.3775 -3.5L5 4.5z" fill="currentColor" stroke-width="0.5"></path>
  <path id="_Transparent_Rectangle_" d="M0 0h16v16H0Z" fill="none" stroke-width="0.5"></path>
</svg>