<svg id="Zip--Streamline-Carbon" xmlns="http://www.w3.org/2000/svg" viewBox="0 0 16 16" height="16" width="16">
  <desc>
    ZIP Streamline Icon: https://streamlinehq.com
  </desc>
  <defs></defs>
  <title>ZIP</title>
  <path d="M14 4.5h-3v7h1v-2.5h2a1 1 0 0 0 1 -1v-2.5a1 1 0 0 0 -1 -1Zm0 3.5h-2v-2.5h2Z" fill="currentColor" stroke-width="0.5"></path>
  <path d="m6 4.5 0 1 1.5 0 0 5 -1.5 0 0 1 4 0 0 -1 -1.5 0 0 -5 1.5 0 0 -1 -4 0z" fill="currentColor" stroke-width="0.5"></path>
  <path d="M5 4.5 1 4.5l0 1 3 0 -3 5 0 1 4 0 0 -1 -3 0 3 -5 0 -1z" fill="currentColor" stroke-width="0.5"></path>
  <path id="_Transparent_Rectangle_" d="M0 0h16v16H0Z" fill="none" stroke-width="0.5"></path>
</svg>